<svg width="114" height="22" viewBox="0 0 114 22" fill="none" xmlns="http://www.w3.org/2000/svg">
<path d="M19.2672 19.4041L15.4009 21.6572L9.26967 10.9424L15.385 0.254883L19.2529 2.50801L17.1645 6.15589L14.4252 10.9424L19.2672 19.4041ZM6.98079 6.9436H9.55299L10.8455 4.68566L8.31942 0.272548L6.39186 1.3951L4.45156 2.52407L6.98079 6.9436ZM17.7312 8.69086L16.4355 10.9536L17.7185 13.1955H22.8151V8.69086H17.7312ZM8.26052 12.7057L4.43565 19.388L8.3035 21.6395L10.8391 17.2103L8.26052 12.7057ZM8.5534 8.69086H0.917969V13.1955H5.97483L8.5534 8.69086Z" fill="#181C23"/>
<path d="M19.2671 19.4041L15.4008 21.6572L9.26954 10.9424L15.3849 0.254883L19.2527 2.50801L14.4251 10.9424L19.2671 19.4041Z" fill="#181C23"/>
<g clip-path="url(#clip0_2040_3060)">
<path d="M113.141 17.3128H109.682L107.167 12.7864H105.205V17.3128H102.03V4.63281H107.7C108.058 4.63281 108.413 4.63281 108.77 4.65025C109.342 4.68513 111.338 4.81093 112.318 6.62698C112.496 6.96952 112.816 7.70441 112.816 8.74696C112.816 10.1669 112.261 10.9193 111.834 11.3328C111.656 11.5121 111.442 11.6753 111.245 11.7986C111.013 11.9244 110.747 12.0502 110.227 12.247L113.136 17.3128H113.141ZM109.682 8.67347C109.682 7.02183 108.415 6.98447 107.862 6.98447H105.188V10.4335H107.791C107.917 10.4335 108.272 10.4335 108.629 10.3077C109.647 9.96514 109.682 8.99608 109.682 8.67347Z" fill="#181C23"/>
<path d="M98.6436 11.0635C98.6436 13.0016 97.8053 15.0867 96.2546 16.361C95.577 16.9177 94.3638 17.69 92.2961 17.69C91.5276 17.69 89.4438 17.5642 87.837 15.8777C86.143 14.0828 86.0371 11.6751 86.0371 10.9203C86.0371 10.2551 86.1255 8.46026 87.2304 6.82606C87.8718 5.87443 89.3354 4.24023 92.2588 4.24023C94.6478 4.24023 96.0939 5.31766 96.7528 6.00024C97.966 7.25703 98.6436 9.32344 98.6436 11.066V11.0635ZM95.4861 11.2778C95.5384 9.67843 95.0576 8.60101 94.6827 8.08036C94.522 7.86362 94.1483 7.41522 93.4695 7.12873C92.9351 6.912 92.4705 6.89456 92.2563 6.89456C91.5613 6.89456 91.0805 7.12873 90.8463 7.25454C89.5795 7.97199 89.1349 9.53519 89.1349 10.8829C89.1349 12.608 89.6692 13.5422 90.1874 14.0977C90.7392 14.6894 91.489 15.0145 92.3098 15.0145C92.7209 15.0145 93.6999 14.9061 94.4859 14.0629C95.1983 13.2894 95.4475 12.2854 95.4848 11.2778H95.4873H95.4861Z" fill="#181C23"/>
<path d="M84.6933 4.71387V7.2673H81.0949V17.2942H77.8476V7.2673H74.2305V4.71387H84.6933Z" fill="#181C23"/>
<path d="M71.4192 17.3128H68.3351L63.7701 9.46441L63.8784 17.3128H60.8467V4.63281H63.9307L68.5307 12.5883L68.4049 4.63281H71.4192V17.3116V17.3128Z" fill="#181C23"/>
<path d="M57.4551 11.0635C57.4551 13.0016 56.6169 15.0867 55.0661 16.361C54.3885 16.9177 53.1753 17.69 51.1077 17.69C50.3391 17.69 48.2553 17.5642 46.6485 15.8777C44.9545 14.0828 44.8486 11.6751 44.8486 10.9203C44.8486 10.2551 44.9371 8.46026 46.0444 6.82606C46.6859 5.87443 48.1494 4.24023 51.0728 4.24023C53.4618 4.24023 54.9067 5.31766 55.5668 6.00024C56.78 7.25703 57.4576 9.32344 57.4576 11.066L57.4551 11.0635ZM54.2976 11.2778C54.3499 9.67843 53.8691 8.60101 53.4942 8.08036C53.3335 7.86362 52.9598 7.41522 52.281 7.12873C51.7467 6.912 51.282 6.89456 51.0678 6.89456C50.3728 6.89456 49.892 7.12873 49.6578 7.25454C48.3911 7.97199 47.9451 9.53519 47.9451 10.8829C47.9451 12.608 48.4795 13.5422 48.9977 14.0977C49.5519 14.6894 50.2993 15.0145 51.1201 15.0145C51.5299 15.0145 52.5102 14.9061 53.2949 14.0629C54.0074 13.2894 54.2565 12.2854 54.2951 11.2778H54.2976Z" fill="#181C23"/>
<path d="M34.0693 10.7239L39.444 17.3131H43.0711L37.6927 10.7239L43.0126 4.68164H39.4091L34.0693 10.7239Z" fill="#181C23"/>
<path d="M32.5171 10.6928L34.9273 7.96623V4.68164H31.7236V17.3131H34.9298V13.6498L32.5171 10.6928Z" fill="#181C23"/>
</g>
<defs>
<clipPath id="clip0_2040_3060">
<rect width="81.4322" height="15.0292" fill="white" transform="translate(31.709 3.74219)"/>
</clipPath>
</defs>
</svg>
