<svg width="177" height="173" viewBox="0 0 177 173" fill="none" xmlns="http://www.w3.org/2000/svg">
<path d="M148.352 153.919L117.302 172.026L68.0614 85.9162L117.174 0.0258789L148.237 18.1332L131.466 47.4494L109.466 85.9162L148.352 153.919ZM49.6792 53.7799H70.3368L80.7167 35.6339L60.4299 0.167846L44.9495 9.18923L29.3668 18.2622L49.6792 53.7799ZM136.017 67.8218L125.611 86.0065L135.914 104.023H176.846V67.8218H136.017ZM59.9569 100.087L29.239 153.79L60.302 171.884L80.6656 136.289L59.9569 100.087ZM62.309 67.8218H0.988281V104.023H41.6003L62.309 67.8218Z" fill="#B8B8C9"/>
<path d="M148.353 153.919L117.303 172.026L68.0626 85.9162L117.175 0.0258789L148.238 18.1332L109.467 85.9162L148.353 153.919Z" fill="#E2DDD9"/>
</svg>
