<svg width="113" height="22" viewBox="0 0 113 22" fill="none" xmlns="http://www.w3.org/2000/svg">
<path d="M18.4361 19.6335L14.5699 21.8867L8.43861 11.1719L14.554 0.484375L18.4218 2.7375L16.3335 6.38538L13.5942 11.1719L18.4361 19.6335ZM6.14973 7.17309H8.72194L10.0144 4.91515L7.48836 0.50204L5.5608 1.62459L3.62051 2.75356L6.14973 7.17309ZM16.9001 8.92035L15.6045 11.1831L16.8874 13.425H21.9841V8.92035H16.9001ZM7.42947 12.9352L3.60459 19.6175L7.47245 21.869L10.008 17.4398L7.42947 12.9352ZM7.72234 8.92035H0.0869141V13.425H5.14377L7.72234 8.92035Z" fill="#E2DDD9"/>
<path d="M18.436 19.6335L14.5697 21.8867L8.43848 11.1719L14.5538 0.484375L18.4217 2.7375L13.594 11.1719L18.436 19.6335Z" fill="#E2DDD9"/>
<g clip-path="url(#clip0_2040_3153)">
<path d="M112.31 17.5423H108.851L106.336 13.0159H104.374V17.5423H101.199V4.8623H106.869C107.227 4.8623 107.582 4.8623 107.939 4.87974C108.511 4.91462 110.507 5.04042 111.486 6.85648C111.665 7.19901 111.985 7.9339 111.985 8.97645C111.985 10.3964 111.43 11.1487 111.003 11.5623C110.825 11.7416 110.611 11.9048 110.414 12.0281C110.182 12.1539 109.916 12.2797 109.396 12.4765L112.305 17.5423H112.31ZM108.851 8.90296C108.851 7.25133 107.584 7.21396 107.031 7.21396H104.357V10.663H106.96C107.086 10.663 107.441 10.663 107.798 10.5372C108.816 10.1946 108.851 9.22557 108.851 8.90296Z" fill="#E2DDD9"/>
<path d="M97.8126 11.293C97.8126 13.2311 96.9743 15.3162 95.4235 16.5905C94.7459 17.1472 93.5328 17.9195 91.4651 17.9195C90.6966 17.9195 88.6127 17.7937 87.0059 16.1072C85.3119 14.3123 85.2061 11.9046 85.2061 11.1498C85.2061 10.4846 85.2945 8.68975 86.3993 7.05555C87.0408 6.10393 88.5043 4.46973 91.4277 4.46973C93.8167 4.46973 95.2629 5.54715 95.9218 6.22973C97.135 7.48652 97.8126 9.55294 97.8126 11.2955V11.293ZM94.655 11.5072C94.7073 9.90793 94.2265 8.8305 93.8516 8.30985C93.6909 8.09312 93.3173 7.64471 92.6384 7.35822C92.1041 7.14149 91.6395 7.12406 91.4252 7.12406C90.7302 7.12406 90.2494 7.35822 90.0152 7.48403C88.7485 8.20148 88.3038 9.76468 88.3038 11.1124C88.3038 12.8375 88.8382 13.7717 89.3563 14.3272C89.9081 14.9189 90.658 15.244 91.4788 15.244C91.8898 15.244 92.8689 15.1356 93.6548 14.2924C94.3673 13.5189 94.6164 12.5149 94.6538 11.5072H94.6563H94.655Z" fill="#E2DDD9"/>
<path d="M83.8623 4.94336V7.4968H80.2638V17.5237H77.0166V7.4968H73.3994V4.94336H83.8623Z" fill="#E2DDD9"/>
<path d="M70.5881 17.5423H67.504L62.939 9.69391L63.0474 17.5423H60.0156V4.8623H63.0997L67.6996 12.8178L67.5738 4.8623H70.5881V17.5411V17.5423Z" fill="#E2DDD9"/>
<path d="M56.6241 11.293C56.6241 13.2311 55.7858 15.3162 54.2351 16.5905C53.5575 17.1472 52.3443 17.9195 50.2766 17.9195C49.5081 17.9195 47.4242 17.7937 45.8174 16.1072C44.1235 14.3123 44.0176 11.9046 44.0176 11.1498C44.0176 10.4846 44.106 8.68975 45.2133 7.05555C45.8548 6.10393 47.3184 4.46973 50.2417 4.46973C52.6308 4.46973 54.0756 5.54715 54.7358 6.22973C55.949 7.48652 56.6266 9.55294 56.6266 11.2955L56.6241 11.293ZM53.4665 11.5072C53.5189 9.90793 53.0381 8.8305 52.6631 8.30985C52.5025 8.09312 52.1288 7.64471 51.4499 7.35822C50.9156 7.14149 50.451 7.12406 50.2368 7.12406C49.5417 7.12406 49.0609 7.35822 48.8268 7.48403C47.56 8.20148 47.1141 9.76468 47.1141 11.1124C47.1141 12.8375 47.6484 13.7717 48.1666 14.3272C48.7209 14.9189 49.4682 15.244 50.2891 15.244C50.6989 15.244 51.6791 15.1356 52.4639 14.2924C53.1763 13.5189 53.4254 12.5149 53.4641 11.5072H53.4665Z" fill="#E2DDD9"/>
<path d="M33.2383 10.9534L38.613 17.5426H42.2401L36.8617 10.9534L42.1815 4.91113H38.5781L33.2383 10.9534Z" fill="#E2DDD9"/>
<path d="M31.686 10.9223L34.0962 8.19572V4.91113H30.8926V17.5426H34.0987V13.8793L31.686 10.9223Z" fill="#E2DDD9"/>
</g>
<defs>
<clipPath id="clip0_2040_3153">
<rect width="81.4322" height="15.0292" fill="white" transform="translate(30.8779 3.97168)"/>
</clipPath>
</defs>
</svg>
