<svg version="1.1" viewBox="0.0 0.0 589.0 364.0" fill="none" stroke="none" stroke-linecap="square" stroke-miterlimit="10" width="589" height="364" xmlns:xlink="http://www.w3.org/1999/xlink" xmlns="http://www.w3.org/2000/svg"><path fill="#ffffff" fill-opacity="0.0" d="M0 0L589.0 0L589.0 364.0L0 364.0L0 0Z" fill-rule="nonzero"/><path fill="#4285f4" d="M294.5 18.2C360.75092 18.2 420.47833 58.10859 445.83148 119.31645C471.1846 180.52432 457.17056 250.97762 410.3241 297.8241L381.36807 268.86807C416.50293 233.73322 427.01346 180.89323 407.9986 134.98734C388.98376 89.08144 344.1882 59.15 294.5 59.15Z" fill-rule="nonzero"/><path fill="#46bdc6" d="M220.13635 36.05313C243.16829 24.317776 268.65067 18.2 294.5 18.2L294.5 59.15C275.113 59.15 256.00122 63.73833 238.72726 72.53985Z" fill-rule="nonzero"/><path fill="#ff6d01" d="M148.55313 107.63635C164.25719 76.81541 189.3154 51.75719 220.13635 36.05313L238.72726 72.53985C215.61156 84.317894 196.81789 103.11156 185.03986 126.227264Z" fill-rule="nonzero"/><path fill="#34a853" d="M132.71664 207.62396C127.3054 173.45868 132.84908 138.4573 148.55313 107.63635L185.03986 126.227264C173.26181 149.34299 169.10405 175.59401 173.16249 201.21797Z" fill-rule="nonzero"/><path fill="#fbbc04" d="M220.13635 327.94687C173.41803 304.1427 140.919 259.41162 132.71664 207.62396L173.16249 201.21797C179.31425 240.05872 203.68852 273.60703 238.72726 291.46014Z" fill-rule="nonzero"/><path fill="#ea4335" d="M410.3241 297.8241C360.14606 348.00214 283.36438 360.16315 220.13635 327.94687L238.72726 291.46014C286.1483 315.62238 343.73453 306.5016 381.36807 268.86807Z" fill-rule="nonzero"/><path stroke="#000000" stroke-width="1.0" stroke-linejoin="round" stroke-linecap="round" d="M381.36807 268.86807C416.50293 233.73322 427.01346 180.89323 407.9986 134.98734C388.98376 89.08144 344.1882 59.15 294.5 59.15L294.5 18.2C360.75092 18.2 420.47833 58.10859 445.83148 119.31645C471.1846 180.52432 457.17056 250.97762 410.3241 297.8241" fill-rule="nonzero"/><path stroke="#000000" stroke-width="1.0" stroke-linejoin="round" stroke-linecap="round" d="M238.72726 291.46014C286.1483 315.62238 343.73453 306.5016 381.36807 268.86807L410.3241 297.8241C360.14606 348.00214 283.36438 360.16315 220.13635 327.94687" fill-rule="nonzero"/><path stroke="#000000" stroke-width="1.0" stroke-linejoin="round" stroke-linecap="round" d="M173.16249 201.21797C179.31425 240.05872 203.68852 273.60703 238.72726 291.46014L220.13635 327.94687C173.41803 304.1427 140.919 259.41162 132.71664 207.62396" fill-rule="nonzero"/><path stroke="#000000" stroke-width="1.0" stroke-linejoin="round" stroke-linecap="round" d="M185.03986 126.227264C173.26181 149.34299 169.10405 175.59401 173.16249 201.21797L132.71664 207.62396C127.3054 173.45868 132.84908 138.4573 148.55313 107.63635" fill-rule="nonzero"/><path stroke="#000000" stroke-width="1.0" stroke-linejoin="round" stroke-linecap="round" d="M238.72726 72.53985C215.61156 84.317894 196.81789 103.11156 185.03986 126.227264L148.55313 107.63635C164.25719 76.81541 189.3154 51.75719 220.13635 36.05313" fill-rule="nonzero"/><path stroke="#000000" stroke-width="1.0" stroke-linejoin="round" stroke-linecap="round" d="M294.5 59.15C275.113 59.15 256.00122 63.73833 238.72726 72.53985L220.13635 36.05313C243.16829 24.317776 268.65067 18.2 294.5 18.2" fill-rule="nonzero"/><path fill="#1a1a1a" d="M19.184376 29.2L19.184376 20.60625L24.98125 20.60625L24.98125 21.621876L20.325 21.621876L20.325 24.278126L24.35625 24.278126L24.35625 25.29375L20.325 25.29375L20.325 29.2L19.184376 29.2ZM25.60625 26.090626Q25.60625 24.35625 26.559376 23.528126Q27.35625 22.840626 28.5125 22.840626Q29.79375 22.840626 30.60625 23.684376Q31.434376 24.5125 31.434376 25.996876Q31.434376 27.2 31.075 27.8875Q30.715626 28.575 30.0125 28.965626Q29.325 29.340626 28.5125 29.340626Q27.215626 29.340626 26.403126 28.5125Q25.60625 27.66875 25.60625 26.090626ZM26.684376 26.090626Q26.684376 27.278126 27.2 27.871876Q27.73125 28.465626 28.5125 28.465626Q29.309376 28.465626 29.825 27.871876Q30.340626 27.278126 30.340626 26.059376Q30.340626 24.903126 29.809376 24.309376Q29.29375 23.715626 28.5125 23.715626Q27.73125 23.715626 27.2 24.309376Q26.684376 24.8875 26.684376 26.090626ZM37.075 29.2L37.075 28.278126Q36.340626 29.340626 35.090626 29.340626Q34.54375 29.340626 34.059376 29.1375Q33.590626 28.91875 33.35625 28.60625Q33.121876 28.278126 33.028126 27.809376Q32.965626 27.5125 32.965626 26.825L32.965626 22.98125L34.028126 22.98125L34.028126 26.434376Q34.028126 27.246876 34.090626 27.54375Q34.184376 27.95 34.496876 28.2Q34.825 28.434376 35.309376 28.434376Q35.778126 28.434376 36.184376 28.2Q36.60625 27.95 36.778126 27.528126Q36.965626 27.10625 36.965626 26.309376L36.965626 22.98125L38.0125 22.98125L38.0125 29.2L37.075 29.2ZM39.996876 29.2L39.996876 22.98125L40.934376 22.98125L40.934376 23.85625Q41.621876 22.840626 42.91875 22.840626Q43.48125 22.840626 43.95 23.04375Q44.434376 23.246876 44.66875 23.575Q44.903126 23.903126 44.996876 24.340626Q45.04375 24.6375 45.04375 25.371876L45.04375 29.2L43.996876 29.2L43.996876 25.41875Q43.996876 24.7625 43.871876 24.45Q43.746876 24.1375 43.434376 23.95Q43.121876 23.746876 42.7 23.746876Q42.028126 23.746876 41.528126 24.184376Q41.04375 24.60625 41.04375 25.79375L41.04375 29.2L39.996876 29.2ZM51.028126 29.2L51.028126 28.41875Q50.434376 29.340626 49.29375 29.340626Q48.54375 29.340626 47.91875 28.934376Q47.29375 28.5125 46.95 27.778126Q46.60625 27.04375 46.60625 26.090626Q46.60625 25.16875 46.91875 24.403126Q47.23125 23.6375 47.85625 23.246876Q48.48125 22.840626 49.246876 22.840626Q49.809376 22.840626 50.246876 23.075Q50.684376 23.309376 50.965626 23.684376L50.965626 20.60625L52.0125 20.60625L52.0125 29.2L51.028126 29.2ZM47.7 26.090626Q47.7 27.29375 48.2 27.8875Q48.7 28.465626 49.3875 28.465626Q50.075 28.465626 50.559376 27.903126Q51.04375 27.340626 51.04375 26.184376Q51.04375 24.903126 50.54375 24.309376Q50.059376 23.715626 49.340626 23.715626Q48.6375 23.715626 48.16875 24.29375Q47.7 24.85625 47.7 26.090626ZM58.059376 28.434376Q57.465626 28.934376 56.91875 29.1375Q56.3875 29.340626 55.7625 29.340626Q54.73125 29.340626 54.184376 28.840626Q53.6375 28.340626 53.6375 27.559376Q53.6375 27.10625 53.840626 26.73125Q54.04375 26.340626 54.3875 26.121876Q54.73125 25.8875 55.153126 25.778126Q55.45 25.684376 56.090626 25.60625Q57.35625 25.465626 57.965626 25.246876Q57.965626 25.028126 57.965626 24.98125Q57.965626 24.325 57.66875 24.059376Q57.2625 23.715626 56.465626 23.715626Q55.73125 23.715626 55.371876 23.98125Q55.0125 24.23125 54.840626 24.8875L53.809376 24.746876Q53.95 24.090626 54.278126 23.684376Q54.60625 23.278126 55.215626 23.059376Q55.825 22.840626 56.621876 22.840626Q57.41875 22.840626 57.91875 23.028126Q58.41875 23.215626 58.653126 23.496876Q58.8875 23.778126 58.98125 24.215626Q59.028126 24.48125 59.028126 25.184376L59.028126 26.590626Q59.028126 28.059376 59.090626 28.45Q59.16875 28.840626 59.371876 29.2L58.2625 29.2Q58.10625 28.871876 58.059376 28.434376ZM57.965626 26.075Q57.3875 26.309376 56.246876 26.48125Q55.590626 26.575 55.325 26.7Q55.059376 26.809376 54.903126 27.028126Q54.7625 27.246876 54.7625 27.528126Q54.7625 27.95 55.075 28.23125Q55.403126 28.5125 56.0125 28.5125Q56.621876 28.5125 57.090626 28.246876Q57.575 27.98125 57.79375 27.5125Q57.965626 27.153126 57.965626 26.465626L57.965626 26.075ZM63.29375 28.2625L63.45 29.184376Q62.996876 29.278126 62.653126 29.278126Q62.075 29.278126 61.7625 29.10625Q61.45 28.91875 61.309376 28.621876Q61.184376 28.325 61.184376 27.371876L61.184376 23.79375L60.41875 23.79375L60.41875 22.98125L61.184376 22.98125L61.184376 21.434376L62.23125 20.809376L62.23125 22.98125L63.29375 22.98125L63.29375 23.79375L62.23125 23.79375L62.23125 27.434376Q62.23125 27.8875 62.278126 28.0125Q62.340626 28.1375 62.465626 28.215626Q62.590626 28.29375 62.825 28.29375Q63.0125 28.29375 63.29375 28.2625ZM63.996876 21.825L63.996876 20.60625L65.05937 20.60625L65.05937 21.825L63.996876 21.825ZM63.996876 29.2L63.996876 22.98125L65.05937 22.98125L65.05937 29.2L63.996876 29.2ZM66.60625 26.090626Q66.60625 24.35625 67.55937 23.528126Q68.35625 22.840626 69.5125 22.840626Q70.79375 22.840626 71.60625 23.684376Q72.43437 24.5125 72.43437 25.996876Q72.43437 27.2 72.075 27.8875Q71.71562 28.575 71.0125 28.965626Q70.325 29.340626 69.5125 29.340626Q68.21562 29.340626 67.40312 28.5125Q66.60625 27.66875 66.60625 26.090626ZM67.68437 26.090626Q67.68437 27.278126 68.2 27.871876Q68.73125 28.465626 69.5125 28.465626Q70.30937 28.465626 70.825 27.871876Q71.34062 27.278126 71.34062 26.059376Q71.34062 24.903126 70.80937 24.309376Q70.29375 23.715626 69.5125 23.715626Q68.73125 23.715626 68.2 24.309376Q67.68437 24.8875 67.68437 26.090626ZM73.99687 29.2L73.99687 22.98125L74.93437 22.98125L74.93437 23.85625Q75.62187 22.840626 76.91875 22.840626Q77.48125 22.840626 77.95 23.04375Q78.43437 23.246876 78.66875 23.575Q78.90312 23.903126 78.99687 24.340626Q79.04375 24.6375 79.04375 25.371876L79.04375 29.2L77.99687 29.2L77.99687 25.41875Q77.99687 24.7625 77.87187 24.45Q77.74687 24.1375 77.43437 23.95Q77.12187 23.746876 76.7 23.746876Q76.02812 23.746876 75.52812 24.184376Q75.04375 24.60625 75.04375 25.79375L75.04375 29.2L73.99687 29.2Z" fill-rule="nonzero"/><path fill="#9e9e9e" d="M18.7625 38.73125L18.7625 37.715626L24.325 37.715626L24.325 38.54375Q23.5125 39.41875 22.7 40.871876Q21.903126 42.309376 21.465626 43.840626Q21.1375 44.91875 21.059376 46.2L19.965626 46.2Q19.98125 45.184376 20.35625 43.746876Q20.746876 42.309376 21.45 40.98125Q22.16875 39.653126 22.98125 38.73125L18.7625 38.73125ZM26.29375 46.2L26.29375 44.996876L27.496876 44.996876L27.496876 46.2L26.29375 46.2ZM28.7 43.95L29.809376 43.85625Q29.934376 44.66875 30.371876 45.075Q30.825 45.48125 31.465626 45.48125Q32.215626 45.48125 32.746876 44.903126Q33.278126 44.325 33.278126 43.3875Q33.278126 42.48125 32.7625 41.965626Q32.2625 41.434376 31.434376 41.434376Q30.934376 41.434376 30.5125 41.66875Q30.10625 41.903126 29.871876 42.2625L28.8875 42.1375L29.715626 37.73125L33.996876 37.73125L33.996876 38.73125L30.559376 38.73125L30.10625 41.04375Q30.871876 40.496876 31.715626 40.496876Q32.840626 40.496876 33.60625 41.278126Q34.3875 42.059376 34.3875 43.29375Q34.3875 44.45 33.715626 45.309376Q32.8875 46.340626 31.465626 46.340626Q30.29375 46.340626 29.54375 45.684376Q28.809376 45.028126 28.7 43.95ZM35.903126 39.66875Q35.903126 38.746876 36.35625 38.10625Q36.825 37.465626 37.7 37.465626Q38.5125 37.465626 39.04375 38.04375Q39.575 38.621876 39.575 39.73125Q39.575 40.825 39.028126 41.41875Q38.496876 41.996876 37.715626 41.996876Q36.934376 41.996876 36.41875 41.41875Q35.903126 40.840626 35.903126 39.66875ZM37.73125 38.184376Q37.340626 38.184376 37.075 38.528126Q36.825 38.871876 36.825 39.778126Q36.825 40.60625 37.075 40.95Q37.340626 41.278126 37.73125 41.278126Q38.1375 41.278126 38.3875 40.934376Q38.653126 40.590626 38.653126 39.7Q38.653126 38.85625 38.3875 38.528126Q38.121876 38.184376 37.73125 38.184376ZM37.73125 46.5125L42.434376 37.465626L43.29375 37.465626L38.60625 46.5125L37.73125 46.5125ZM41.45 44.184376Q41.45 43.2625 41.903126 42.621876Q42.371876 41.98125 43.2625 41.98125Q44.075 41.98125 44.60625 42.559376Q45.1375 43.121876 45.1375 44.246876Q45.1375 45.340626 44.590626 45.934376Q44.059376 46.5125 43.2625 46.5125Q42.496876 46.5125 41.965626 45.934376Q41.45 45.35625 41.45 44.184376ZM43.29375 42.7Q42.8875 42.7 42.621876 43.04375Q42.371876 43.3875 42.371876 44.29375Q42.371876 45.10625 42.6375 45.45Q42.903126 45.79375 43.29375 45.79375Q43.684376 45.79375 43.95 45.45Q44.215626 45.10625 44.215626 44.2Q44.215626 43.371876 43.95 43.04375Q43.684376 42.7 43.29375 42.7Z" fill-rule="nonzero"/><path stroke="#757575" stroke-width="1.0" stroke-linecap="butt" d="M18.2 33.7L124.7 33.7L258.17355 30.689516" fill-rule="nonzero"/><path fill="#9e9e9e" d="M260.17355 30.689516C260.17355 29.584948 259.27814 28.689516 258.17355 28.689516C257.069 28.689516 256.17355 29.584948 256.17355 30.689516C256.17355 31.794086 257.069 32.689518 258.17355 32.689518C259.27814 32.689518 260.17355 31.794086 260.17355 30.689516" fill-rule="nonzero"/><path fill="#1a1a1a" d="M18.184376 67.46712L21.48125 58.873367L22.7 58.873367L26.215626 67.46712L24.934376 67.46712L23.91875 64.85774L20.340626 64.85774L19.3875 67.46712L18.184376 67.46712ZM20.66875 63.935867L23.575 63.935867L22.684376 61.560867Q22.2625 60.482742 22.075 59.779617Q21.903126 60.607742 21.60625 61.420242L20.66875 63.935867ZM25.996876 60.092117L25.996876 58.873367L27.059376 58.873367L27.059376 60.092117L25.996876 60.092117ZM25.996876 67.46712L25.996876 61.248367L27.059376 61.248367L27.059376 67.46712L25.996876 67.46712ZM28.98125 67.46712L28.98125 61.248367L29.934376 61.248367L29.934376 62.185867Q30.29375 61.529617 30.590626 61.326492Q30.903126 61.107742 31.278126 61.107742Q31.809376 61.107742 32.35625 61.435867L31.996876 62.420242Q31.60625 62.185867 31.23125 62.185867Q30.871876 62.185867 30.590626 62.404617Q30.325 62.607742 30.215626 62.982742Q30.028126 63.545242 30.028126 64.20149L30.028126 67.46712L28.98125 67.46712ZM37.028126 67.46712L37.028126 66.68587Q36.434376 67.60774 35.29375 67.60774Q34.54375 67.60774 33.91875 67.20149Q33.29375 66.77962 32.95 66.04524Q32.60625 65.31087 32.60625 64.35774Q32.60625 63.435867 32.91875 62.670242Q33.23125 61.904617 33.85625 61.513992Q34.48125 61.107742 35.246876 61.107742Q35.809376 61.107742 36.246876 61.342117Q36.684376 61.576492 36.965626 61.951492L36.965626 58.873367L38.0125 58.873367L38.0125 67.46712L37.028126 67.46712ZM33.7 64.35774Q33.7 65.56087 34.2 66.15462Q34.7 66.73274 35.3875 66.73274Q36.075 66.73274 36.559376 66.17024Q37.04375 65.60774 37.04375 64.45149Q37.04375 63.170242 36.54375 62.576492Q36.059376 61.982742 35.340626 61.982742Q34.6375 61.982742 34.16875 62.560867Q33.7 63.123367 33.7 64.35774ZM39.98125 67.46712L39.98125 61.248367L40.934376 61.248367L40.934376 62.185867Q41.29375 61.529617 41.590626 61.326492Q41.903126 61.107742 42.278126 61.107742Q42.809376 61.107742 43.35625 61.435867L42.996876 62.420242Q42.60625 62.185867 42.23125 62.185867Q41.871876 62.185867 41.590626 62.404617Q41.325 62.607742 41.215626 62.982742Q41.028126 63.545242 41.028126 64.20149L41.028126 67.46712L39.98125 67.46712ZM43.60625 64.35774Q43.60625 62.623367 44.559376 61.795242Q45.35625 61.107742 46.5125 61.107742Q47.79375 61.107742 48.60625 61.951492Q49.434376 62.779617 49.434376 64.26399Q49.434376 65.46712 49.075 66.15462Q48.715626 66.84212 48.0125 67.23274Q47.325 67.60774 46.5125 67.60774Q45.215626 67.60774 44.403126 66.77962Q43.60625 65.93587 43.60625 64.35774ZM44.684376 64.35774Q44.684376 65.54524 45.2 66.13899Q45.73125 66.73274 46.5125 66.73274Q47.309376 66.73274 47.825 66.13899Q48.340626 65.54524 48.340626 64.32649Q48.340626 63.170242 47.809376 62.576492Q47.29375 61.982742 46.5125 61.982742Q45.73125 61.982742 45.2 62.576492Q44.684376 63.154617 44.684376 64.35774ZM50.996876 69.85774L50.996876 61.248367L51.95 61.248367L51.95 62.045242Q52.29375 61.576492 52.715626 61.342117Q53.153126 61.107742 53.7625 61.107742Q54.559376 61.107742 55.16875 61.513992Q55.778126 61.920242 56.075 62.670242Q56.3875 63.420242 56.3875 64.31087Q56.3875 65.26399 56.04375 66.02962Q55.715626 66.79524 55.059376 67.20149Q54.403126 67.60774 53.684376 67.60774Q53.153126 67.60774 52.73125 67.38899Q52.309376 67.15462 52.04375 66.82649L52.04375 69.85774L50.996876 69.85774ZM51.95 64.38899Q51.95 65.59212 52.434376 66.17024Q52.91875 66.73274 53.60625 66.73274Q54.309376 66.73274 54.809376 66.13899Q55.309376 65.54524 55.309376 64.29524Q55.309376 63.107742 54.825 62.529617Q54.340626 61.935867 53.653126 61.935867Q52.98125 61.935867 52.465626 62.560867Q51.95 63.185867 51.95 64.38899Z" fill-rule="nonzero"/><path fill="#9e9e9e" d="M22.66875 84.46712L21.621876 84.46712L21.621876 77.74837Q21.23125 78.10774 20.60625 78.48274Q19.996876 78.84212 19.5125 79.01399L19.5125 77.99837Q20.3875 77.57649 21.04375 76.99837Q21.715626 76.40462 21.996876 75.84212L22.66875 75.84212L22.66875 84.46712ZM25.7 80.23274Q25.7 78.70149 26.0125 77.77962Q26.325 76.84212 26.934376 76.34212Q27.559376 75.84212 28.496876 75.84212Q29.184376 75.84212 29.7 76.12337Q30.23125 76.40462 30.575 76.93587Q30.91875 77.45149 31.10625 78.20149Q31.29375 78.95149 31.29375 80.23274Q31.29375 81.74837 30.98125 82.67024Q30.684376 83.59212 30.059376 84.10774Q29.45 84.60774 28.496876 84.60774Q27.2625 84.60774 26.54375 83.71712Q25.7 82.65462 25.7 80.23274ZM26.778126 80.23274Q26.778126 82.34212 27.278126 83.04524Q27.778126 83.74837 28.496876 83.74837Q29.23125 83.74837 29.715626 83.04524Q30.215626 82.34212 30.215626 80.23274Q30.215626 78.10774 29.715626 77.42024Q29.23125 76.71712 28.48125 76.71712Q27.7625 76.71712 27.325 77.32649Q26.778126 78.10774 26.778126 80.23274ZM33.29375 84.46712L33.29375 83.26399L34.496876 83.26399L34.496876 84.46712L33.29375 84.46712ZM35.7 80.23274Q35.7 78.70149 36.0125 77.77962Q36.325 76.84212 36.934376 76.34212Q37.559376 75.84212 38.496876 75.84212Q39.184376 75.84212 39.7 76.12337Q40.23125 76.40462 40.575 76.93587Q40.91875 77.45149 41.10625 78.20149Q41.29375 78.95149 41.29375 80.23274Q41.29375 81.74837 40.98125 82.67024Q40.684376 83.59212 40.059376 84.10774Q39.45 84.60774 38.496876 84.60774Q37.2625 84.60774 36.54375 83.71712Q35.7 82.65462 35.7 80.23274ZM36.778126 80.23274Q36.778126 82.34212 37.278126 83.04524Q37.778126 83.74837 38.496876 83.74837Q39.23125 83.74837 39.715626 83.04524Q40.215626 82.34212 40.215626 80.23274Q40.215626 78.10774 39.715626 77.42024Q39.23125 76.71712 38.48125 76.71712Q37.7625 76.71712 37.325 77.32649Q36.778126 78.10774 36.778126 80.23274ZM42.903126 77.93587Q42.903126 77.01399 43.35625 76.37337Q43.825 75.73274 44.7 75.73274Q45.5125 75.73274 46.04375 76.31087Q46.575 76.88899 46.575 77.99837Q46.575 79.09212 46.028126 79.68587Q45.496876 80.26399 44.715626 80.26399Q43.934376 80.26399 43.41875 79.68587Q42.903126 79.10774 42.903126 77.93587ZM44.73125 76.45149Q44.340626 76.45149 44.075 76.79524Q43.825 77.13899 43.825 78.04524Q43.825 78.87337 44.075 79.21712Q44.340626 79.54524 44.73125 79.54524Q45.1375 79.54524 45.3875 79.20149Q45.653126 78.85774 45.653126 77.96712Q45.653126 77.12337 45.3875 76.79524Q45.121876 76.45149 44.73125 76.45149ZM44.73125 84.77962L49.434376 75.73274L50.29375 75.73274L45.60625 84.77962L44.73125 84.77962ZM48.45 82.45149Q48.45 81.52962 48.903126 80.88899Q49.371876 80.24837 50.2625 80.24837Q51.075 80.24837 51.60625 80.82649Q52.1375 81.38899 52.1375 82.51399Q52.1375 83.60774 51.590626 84.20149Q51.059376 84.77962 50.2625 84.77962Q49.496876 84.77962 48.965626 84.20149Q48.45 83.62337 48.45 82.45149ZM50.29375 80.96712Q49.8875 80.96712 49.621876 81.31087Q49.371876 81.65462 49.371876 82.56087Q49.371876 83.37337 49.6375 83.71712Q49.903126 84.06087 50.29375 84.06087Q50.684376 84.06087 50.95 83.71712Q51.215626 83.37337 51.215626 82.46712Q51.215626 81.63899 50.95 81.31087Q50.684376 80.96712 50.29375 80.96712Z" fill-rule="nonzero"/><path stroke="#757575" stroke-width="1.0" stroke-linecap="butt" d="M18.2 71.96712L124.7 71.96712L184.46712 71.96712" fill-rule="nonzero"/><path fill="#9e9e9e" d="M186.46712 71.96712C186.46712 70.86254 185.57169 69.96712 184.46712 69.96712C183.36255 69.96712 182.46712 70.86254 182.46712 71.96712C182.46712 73.071686 183.36255 73.96712 184.46712 73.96712C185.57169 73.96712 186.46712 73.071686 186.46712 71.96712" fill-rule="nonzero"/><path fill="#1a1a1a" d="M19.121876 153.15723L19.121876 144.56348L22.371876 144.56348Q23.215626 144.56348 23.66875 144.6416Q24.309376 144.75098 24.73125 145.04785Q25.16875 145.34473 25.41875 145.87598Q25.684376 146.40723 25.684376 147.04785Q25.684376 148.1416 24.98125 148.90723Q24.29375 149.65723 22.465626 149.65723L20.2625 149.65723L20.2625 153.15723L19.121876 153.15723ZM20.2625 148.65723L22.48125 148.65723Q23.590626 148.65723 24.04375 148.25098Q24.5125 147.8291 24.5125 147.0791Q24.5125 146.54785 24.23125 146.17285Q23.965626 145.78223 23.528126 145.65723Q23.23125 145.5791 22.465626 145.5791L20.2625 145.5791L20.2625 148.65723ZM26.98125 153.15723L26.98125 146.93848L27.934376 146.93848L27.934376 147.87598Q28.29375 147.21973 28.590626 147.0166Q28.903126 146.79785 29.278126 146.79785Q29.809376 146.79785 30.35625 147.12598L29.996876 148.11035Q29.60625 147.87598 29.23125 147.87598Q28.871876 147.87598 28.590626 148.09473Q28.325 148.29785 28.215626 148.67285Q28.028126 149.23535 28.028126 149.8916L28.028126 153.15723L26.98125 153.15723ZM30.996876 145.78223L30.996876 144.56348L32.059376 144.56348L32.059376 145.78223L30.996876 145.78223ZM30.996876 153.15723L30.996876 146.93848L32.059376 146.93848L32.059376 153.15723L30.996876 153.15723ZM35.715626 153.15723L33.35625 146.93848L34.465626 146.93848L35.809376 150.65723Q36.0125 151.2666 36.2 151.90723Q36.340626 151.42285 36.590626 150.73535L37.98125 146.93848L39.059376 146.93848L36.7 153.15723L35.715626 153.15723ZM43.059376 152.3916Q42.465626 152.8916 41.91875 153.09473Q41.3875 153.29785 40.7625 153.29785Q39.73125 153.29785 39.184376 152.79785Q38.6375 152.29785 38.6375 151.5166Q38.6375 151.06348 38.840626 150.68848Q39.04375 150.29785 39.3875 150.0791Q39.73125 149.84473 40.153126 149.73535Q40.45 149.6416 41.090626 149.56348Q42.35625 149.42285 42.965626 149.2041Q42.965626 148.98535 42.965626 148.93848Q42.965626 148.28223 42.66875 148.0166Q42.2625 147.67285 41.465626 147.67285Q40.73125 147.67285 40.371876 147.93848Q40.0125 148.18848 39.840626 148.84473L38.809376 148.7041Q38.95 148.04785 39.278126 147.6416Q39.60625 147.23535 40.215626 147.0166Q40.825 146.79785 41.621876 146.79785Q42.41875 146.79785 42.91875 146.98535Q43.41875 147.17285 43.653126 147.4541Q43.8875 147.73535 43.98125 148.17285Q44.028126 148.43848 44.028126 149.1416L44.028126 150.54785Q44.028126 152.0166 44.090626 152.40723Q44.16875 152.79785 44.371876 153.15723L43.2625 153.15723Q43.10625 152.8291 43.059376 152.3916ZM42.965626 150.03223Q42.3875 150.2666 41.246876 150.43848Q40.590626 150.53223 40.325 150.65723Q40.059376 150.7666 39.903126 150.98535Q39.7625 151.2041 39.7625 151.48535Q39.7625 151.90723 40.075 152.18848Q40.403126 152.46973 41.0125 152.46973Q41.621876 152.46973 42.090626 152.2041Q42.575 151.93848 42.79375 151.46973Q42.965626 151.11035 42.965626 150.42285L42.965626 150.03223ZM48.29375 152.21973L48.45 153.1416Q47.996876 153.23535 47.653126 153.23535Q47.075 153.23535 46.7625 153.06348Q46.45 152.87598 46.309376 152.5791Q46.184376 152.28223 46.184376 151.3291L46.184376 147.75098L45.41875 147.75098L45.41875 146.93848L46.184376 146.93848L46.184376 145.3916L47.23125 144.7666L47.23125 146.93848L48.29375 146.93848L48.29375 147.75098L47.23125 147.75098L47.23125 151.3916Q47.23125 151.84473 47.278126 151.96973Q47.340626 152.09473 47.465626 152.17285Q47.590626 152.25098 47.825 152.25098Q48.0125 152.25098 48.29375 152.21973ZM53.246876 151.15723L54.340626 151.28223Q54.090626 152.23535 53.3875 152.7666Q52.684376 153.29785 51.60625 153.29785Q50.246876 153.29785 49.434376 152.4541Q48.6375 151.61035 48.6375 150.09473Q48.6375 148.53223 49.45 147.67285Q50.2625 146.79785 51.54375 146.79785Q52.79375 146.79785 53.575 147.6416Q54.371876 148.48535 54.371876 150.03223Q54.371876 150.12598 54.371876 150.31348L49.73125 150.31348Q49.79375 151.34473 50.309376 151.8916Q50.825 152.42285 51.60625 152.42285Q52.184376 152.42285 52.590626 152.12598Q53.0125 151.81348 53.246876 151.15723ZM49.79375 149.4541L53.2625 149.4541Q53.2 148.65723 52.871876 148.2666Q52.35625 147.65723 51.559376 147.65723Q50.825 147.65723 50.325 148.1416Q49.840626 148.62598 49.79375 149.4541ZM59.325 153.15723L59.325 144.56348L60.45 144.56348L60.45 153.15723L59.325 153.15723ZM61.996876 153.15723L61.996876 146.93848L62.934376 146.93848L62.934376 147.81348Q63.621876 146.79785 64.91875 146.79785Q65.48125 146.79785 65.95 147.00098Q66.43437 147.2041 66.66875 147.53223Q66.90312 147.86035 66.99687 148.29785Q67.04375 148.59473 67.04375 149.3291L67.04375 153.15723L65.99687 153.15723L65.99687 149.37598Q65.99687 148.71973 65.87187 148.40723Q65.74687 148.09473 65.43437 147.90723Q65.12187 147.7041 64.7 147.7041Q64.02812 147.7041 63.528126 148.1416Q63.04375 148.56348 63.04375 149.75098L63.04375 153.15723L61.996876 153.15723ZM70.71562 153.15723L68.35625 146.93848L69.46562 146.93848L70.80937 150.65723Q71.0125 151.2666 71.2 151.90723Q71.34062 151.42285 71.59062 150.73535L72.98125 146.93848L74.05937 146.93848L71.7 153.15723L70.71562 153.15723ZM78.24687 151.15723L79.34062 151.28223Q79.09062 152.23535 78.3875 152.7666Q77.68437 153.29785 76.60625 153.29785Q75.24687 153.29785 74.43437 152.4541Q73.6375 151.61035 73.6375 150.09473Q73.6375 148.53223 74.45 147.67285Q75.2625 146.79785 76.54375 146.79785Q77.79375 146.79785 78.575 147.6416Q79.37187 148.48535 79.37187 150.03223Q79.37187 150.12598 79.37187 150.31348L74.73125 150.31348Q74.79375 151.34473 75.30937 151.8916Q75.825 152.42285 76.60625 152.42285Q77.18437 152.42285 77.59062 152.12598Q78.0125 151.81348 78.24687 151.15723ZM74.79375 149.4541L78.2625 149.4541Q78.2 148.65723 77.87187 148.2666Q77.35625 147.65723 76.55937 147.65723Q75.825 147.65723 75.325 148.1416Q74.84062 148.62598 74.79375 149.4541ZM80.575 151.29785L81.60625 151.1416Q81.7 151.7666 82.09062 152.09473Q82.49687 152.42285 83.23125 152.42285Q83.95 152.42285 84.29375 152.1416Q84.65312 151.84473 84.65312 151.43848Q84.65312 151.0791 84.34062 150.87598Q84.12187 150.73535 83.2625 150.5166Q82.10625 150.21973 81.65312 150.0166Q81.21562 149.79785 80.98125 149.42285Q80.74687 149.04785 80.74687 148.5791Q80.74687 148.17285 80.93437 147.81348Q81.12187 147.4541 81.45 147.21973Q81.7 147.04785 82.12187 146.92285Q82.54375 146.79785 83.04375 146.79785Q83.7625 146.79785 84.30937 147.0166Q84.87187 147.21973 85.1375 147.5791Q85.40312 147.93848 85.49687 148.53223L84.46562 148.67285Q84.40312 148.2041 84.05937 147.93848Q83.73125 147.65723 83.10625 147.65723Q82.3875 147.65723 82.075 147.90723Q81.7625 148.1416 81.7625 148.46973Q81.7625 148.67285 81.8875 148.8291Q82.02812 149.00098 82.29375 149.11035Q82.45 149.17285 83.23125 149.37598Q84.35625 149.68848 84.79375 149.87598Q85.23125 150.06348 85.48125 150.42285Q85.73125 150.78223 85.73125 151.3291Q85.73125 151.86035 85.41875 152.3291Q85.12187 152.78223 84.54375 153.04785Q83.96562 153.29785 83.23125 153.29785Q82.0125 153.29785 81.37187 152.79785Q80.74687 152.28223 80.575 151.29785ZM90.29375 152.21973L90.45 153.1416Q89.99687 153.23535 89.65312 153.23535Q89.075 153.23535 88.7625 153.06348Q88.45 152.87598 88.30937 152.5791Q88.18437 152.28223 88.18437 151.3291L88.18437 147.75098L87.41875 147.75098L87.41875 146.93848L88.18437 146.93848L88.18437 145.3916L89.23125 144.7666L89.23125 146.93848L90.29375 146.93848L90.29375 147.75098L89.23125 147.75098L89.23125 151.3916Q89.23125 151.84473 89.27812 151.96973Q89.34062 152.09473 89.46562 152.17285Q89.59062 152.25098 89.825 152.25098Q90.0125 152.25098 90.29375 152.21973ZM90.60625 150.04785Q90.60625 148.31348 91.55937 147.48535Q92.35625 146.79785 93.5125 146.79785Q94.79375 146.79785 95.60625 147.6416Q96.43437 148.46973 96.43437 149.9541Q96.43437 151.15723 96.075 151.84473Q95.71562 152.53223 95.0125 152.92285Q94.325 153.29785 93.5125 153.29785Q92.21562 153.29785 91.40312 152.46973Q90.60625 151.62598 90.60625 150.04785ZM91.68437 150.04785Q91.68437 151.23535 92.2 151.8291Q92.73125 152.42285 93.5125 152.42285Q94.30937 152.42285 94.825 151.8291Q95.34062 151.23535 95.34062 150.0166Q95.34062 148.86035 94.80937 148.2666Q94.29375 147.67285 93.5125 147.67285Q92.73125 147.67285 92.2 148.2666Q91.68437 148.84473 91.68437 150.04785ZM97.98125 153.15723L97.98125 146.93848L98.93437 146.93848L98.93437 147.87598Q99.29375 147.21973 99.59062 147.0166Q99.90312 146.79785 100.27812 146.79785Q100.80937 146.79785 101.35625 147.12598L100.99687 148.11035Q100.60625 147.87598 100.23125 147.87598Q99.87187 147.87598 99.59062 148.09473Q99.325 148.29785 99.21562 148.67285Q99.02812 149.23535 99.02812 149.8916L99.02812 153.15723L97.98125 153.15723ZM101.575 151.29785L102.60625 151.1416Q102.7 151.7666 103.09062 152.09473Q103.49687 152.42285 104.23125 152.42285Q104.95 152.42285 105.29375 152.1416Q105.65312 151.84473 105.65312 151.43848Q105.65312 151.0791 105.34062 150.87598Q105.12187 150.73535 104.2625 150.5166Q103.10625 150.21973 102.65312 150.0166Q102.21562 149.79785 101.98125 149.42285Q101.74687 149.04785 101.74687 148.5791Q101.74687 148.17285 101.93437 147.81348Q102.12187 147.4541 102.45 147.21973Q102.7 147.04785 103.12187 146.92285Q103.54375 146.79785 104.04375 146.79785Q104.7625 146.79785 105.30937 147.0166Q105.87187 147.21973 106.1375 147.5791Q106.40312 147.93848 106.49687 148.53223L105.46562 148.67285Q105.40312 148.2041 105.05937 147.93848Q104.73125 147.65723 104.10625 147.65723Q103.3875 147.65723 103.075 147.90723Q102.7625 148.1416 102.7625 148.46973Q102.7625 148.67285 102.8875 148.8291Q103.02812 149.00098 103.29375 149.11035Q103.45 149.17285 104.23125 149.37598Q105.35625 149.68848 105.79375 149.87598Q106.23125 150.06348 106.48125 150.42285Q106.73125 150.78223 106.73125 151.3291Q106.73125 151.86035 106.41875 152.3291Q106.12187 152.78223 105.54375 153.04785Q104.96562 153.29785 104.23125 153.29785Q103.0125 153.29785 102.37187 152.79785Q101.74687 152.28223 101.575 151.29785Z" fill-rule="nonzero"/><path fill="#9e9e9e" d="M22.66875 170.15723L21.621876 170.15723L21.621876 163.43848Q21.23125 163.79785 20.60625 164.17285Q19.996876 164.53223 19.5125 164.7041L19.5125 163.68848Q20.3875 163.2666 21.04375 162.68848Q21.715626 162.09473 21.996876 161.53223L22.66875 161.53223L22.66875 170.15723ZM25.7 165.92285Q25.7 164.3916 26.0125 163.46973Q26.325 162.53223 26.934376 162.03223Q27.559376 161.53223 28.496876 161.53223Q29.184376 161.53223 29.7 161.81348Q30.23125 162.09473 30.575 162.62598Q30.91875 163.1416 31.10625 163.8916Q31.29375 164.6416 31.29375 165.92285Q31.29375 167.43848 30.98125 168.36035Q30.684376 169.28223 30.059376 169.79785Q29.45 170.29785 28.496876 170.29785Q27.2625 170.29785 26.54375 169.40723Q25.7 168.34473 25.7 165.92285ZM26.778126 165.92285Q26.778126 168.03223 27.278126 168.73535Q27.778126 169.43848 28.496876 169.43848Q29.23125 169.43848 29.715626 168.73535Q30.215626 168.03223 30.215626 165.92285Q30.215626 163.79785 29.715626 163.11035Q29.23125 162.40723 28.48125 162.40723Q27.7625 162.40723 27.325 163.0166Q26.778126 163.79785 26.778126 165.92285ZM33.29375 170.15723L33.29375 168.9541L34.496876 168.9541L34.496876 170.15723L33.29375 170.15723ZM35.7 165.92285Q35.7 164.3916 36.0125 163.46973Q36.325 162.53223 36.934376 162.03223Q37.559376 161.53223 38.496876 161.53223Q39.184376 161.53223 39.7 161.81348Q40.23125 162.09473 40.575 162.62598Q40.91875 163.1416 41.10625 163.8916Q41.29375 164.6416 41.29375 165.92285Q41.29375 167.43848 40.98125 168.36035Q40.684376 169.28223 40.059376 169.79785Q39.45 170.29785 38.496876 170.29785Q37.2625 170.29785 36.54375 169.40723Q35.7 168.34473 35.7 165.92285ZM36.778126 165.92285Q36.778126 168.03223 37.278126 168.73535Q37.778126 169.43848 38.496876 169.43848Q39.23125 169.43848 39.715626 168.73535Q40.215626 168.03223 40.215626 165.92285Q40.215626 163.79785 39.715626 163.11035Q39.23125 162.40723 38.48125 162.40723Q37.7625 162.40723 37.325 163.0166Q36.778126 163.79785 36.778126 165.92285ZM42.903126 163.62598Q42.903126 162.7041 43.35625 162.06348Q43.825 161.42285 44.7 161.42285Q45.5125 161.42285 46.04375 162.00098Q46.575 162.5791 46.575 163.68848Q46.575 164.78223 46.028126 165.37598Q45.496876 165.9541 44.715626 165.9541Q43.934376 165.9541 43.41875 165.37598Q42.903126 164.79785 42.903126 163.62598ZM44.73125 162.1416Q44.340626 162.1416 44.075 162.48535Q43.825 162.8291 43.825 163.73535Q43.825 164.56348 44.075 164.90723Q44.340626 165.23535 44.73125 165.23535Q45.1375 165.23535 45.3875 164.8916Q45.653126 164.54785 45.653126 163.65723Q45.653126 162.81348 45.3875 162.48535Q45.121876 162.1416 44.73125 162.1416ZM44.73125 170.46973L49.434376 161.42285L50.29375 161.42285L45.60625 170.46973L44.73125 170.46973ZM48.45 168.1416Q48.45 167.21973 48.903126 166.5791Q49.371876 165.93848 50.2625 165.93848Q51.075 165.93848 51.60625 166.5166Q52.1375 167.0791 52.1375 168.2041Q52.1375 169.29785 51.590626 169.8916Q51.059376 170.46973 50.2625 170.46973Q49.496876 170.46973 48.965626 169.8916Q48.45 169.31348 48.45 168.1416ZM50.29375 166.65723Q49.8875 166.65723 49.621876 167.00098Q49.371876 167.34473 49.371876 168.25098Q49.371876 169.06348 49.6375 169.40723Q49.903126 169.75098 50.29375 169.75098Q50.684376 169.75098 50.95 169.40723Q51.215626 169.06348 51.215626 168.15723Q51.215626 167.3291 50.95 167.00098Q50.684376 166.65723 50.29375 166.65723Z" fill-rule="nonzero"/><path stroke="#757575" stroke-width="1.0" stroke-linecap="butt" d="M18.2 157.65723L124.7 157.65723L140.80582 157.65723" fill-rule="nonzero"/><path fill="#9e9e9e" d="M142.80582 157.65723C142.80582 156.55266 141.91039 155.65723 140.80582 155.65723C139.70125 155.65723 138.80582 156.55266 138.80582 157.65723C138.80582 158.7618 139.70125 159.65723 140.80582 159.65723C141.91039 159.65723 142.80582 158.7618 142.80582 157.65723" fill-rule="nonzero"/><path fill="#1a1a1a" d="M19.121876 268.96527L19.121876 260.37152L22.371876 260.37152Q23.215626 260.37152 23.66875 260.44965Q24.309376 260.55902 24.73125 260.8559Q25.16875 261.15277 25.41875 261.68402Q25.684376 262.21527 25.684376 262.8559Q25.684376 263.94965 24.98125 264.71527Q24.29375 265.46527 22.465626 265.46527L20.2625 265.46527L20.2625 268.96527L19.121876 268.96527ZM20.2625 264.46527L22.48125 264.46527Q23.590626 264.46527 24.04375 264.05902Q24.5125 263.63715 24.5125 262.88715Q24.5125 262.3559 24.23125 261.9809Q23.965626 261.59027 23.528126 261.46527Q23.23125 261.38715 22.465626 261.38715L20.2625 261.38715L20.2625 264.46527ZM31.075 268.96527L31.075 268.0434Q30.340626 269.1059 29.090626 269.1059Q28.54375 269.1059 28.059376 268.90277Q27.590626 268.68402 27.35625 268.37152Q27.121876 268.0434 27.028126 267.57465Q26.965626 267.27777 26.965626 266.59027L26.965626 262.74652L28.028126 262.74652L28.028126 266.19965Q28.028126 267.01215 28.090626 267.30902Q28.184376 267.71527 28.496876 267.96527Q28.825 268.19965 29.309376 268.19965Q29.778126 268.19965 30.184376 267.96527Q30.60625 267.71527 30.778126 267.2934Q30.965626 266.87152 30.965626 266.07465L30.965626 262.74652L32.0125 262.74652L32.0125 268.96527L31.075 268.96527ZM34.965626 268.96527L33.98125 268.96527L33.98125 260.37152L35.04375 260.37152L35.04375 263.43402Q35.715626 262.6059 36.746876 262.6059Q37.325 262.6059 37.825 262.84027Q38.340626 263.05902 38.66875 263.4809Q39.0125 263.90277 39.2 264.49652Q39.3875 265.09027 39.3875 265.76215Q39.3875 267.3559 38.590626 268.2309Q37.79375 269.1059 36.7 269.1059Q35.590626 269.1059 34.965626 268.18402L34.965626 268.96527ZM34.95 265.80902Q34.95 266.9184 35.2625 267.4184Q35.7625 268.2309 36.60625 268.2309Q37.29375 268.2309 37.79375 267.63715Q38.309376 267.0434 38.309376 265.84027Q38.309376 264.62152 37.825 264.0434Q37.340626 263.46527 36.653126 263.46527Q35.965626 263.46527 35.45 264.07465Q34.95 264.6684 34.95 265.80902ZM40.965626 268.96527L40.965626 260.37152L42.028126 260.37152L42.028126 268.96527L40.965626 268.96527ZM43.996876 261.59027L43.996876 260.37152L45.059376 260.37152L45.059376 261.59027L43.996876 261.59027ZM43.996876 268.96527L43.996876 262.74652L45.059376 262.74652L45.059376 268.96527L43.996876 268.96527ZM51.059376 266.68402L52.090626 266.82465Q51.91875 267.88715 51.215626 268.49652Q50.5125 269.1059 49.496876 269.1059Q48.215626 269.1059 47.434376 268.27777Q46.66875 267.43402 46.66875 265.87152Q46.66875 264.87152 46.996876 264.12152Q47.340626 263.3559 48.0125 262.9809Q48.7 262.6059 49.5125 262.6059Q50.5125 262.6059 51.153126 263.12152Q51.809376 263.62152 51.996876 264.57465L50.965626 264.7309Q50.825 264.1059 50.45 263.7934Q50.075 263.46527 49.54375 263.46527Q48.746876 263.46527 48.246876 264.0434Q47.746876 264.6059 47.746876 265.84027Q47.746876 267.1059 48.23125 267.6684Q48.715626 268.2309 49.48125 268.2309Q50.10625 268.2309 50.5125 267.8559Q50.934376 267.4809 51.059376 266.68402ZM58.309376 268.96527L58.309376 261.38715L55.48125 261.38715L55.48125 260.37152L62.29375 260.37152L62.29375 261.38715L59.45 261.38715L59.45 268.96527L58.309376 268.96527ZM62.60625 265.8559Q62.60625 264.12152 63.559376 263.2934Q64.35625 262.6059 65.5125 262.6059Q66.79375 262.6059 67.60625 263.44965Q68.43437 264.27777 68.43437 265.76215Q68.43437 266.96527 68.075 267.65277Q67.71562 268.34027 67.0125 268.7309Q66.325 269.1059 65.5125 269.1059Q64.21562 269.1059 63.403126 268.27777Q62.60625 267.43402 62.60625 265.8559ZM63.684376 265.8559Q63.684376 267.0434 64.2 267.63715Q64.73125 268.2309 65.5125 268.2309Q66.30937 268.2309 66.825 267.63715Q67.34062 267.0434 67.34062 265.82465Q67.34062 264.6684 66.80937 264.07465Q66.29375 263.4809 65.5125 263.4809Q64.73125 263.4809 64.2 264.07465Q63.684376 264.65277 63.684376 265.8559ZM69.99687 268.96527L69.99687 260.37152L71.05937 260.37152L71.05937 265.27777L73.54375 262.74652L74.91875 262.74652L72.52812 265.0434L75.15312 268.96527L73.85625 268.96527L71.79375 265.77777L71.05937 266.49652L71.05937 268.96527L69.99687 268.96527ZM80.24687 266.96527L81.34062 267.09027Q81.09062 268.0434 80.3875 268.57465Q79.68437 269.1059 78.60625 269.1059Q77.24687 269.1059 76.43437 268.26215Q75.6375 267.4184 75.6375 265.90277Q75.6375 264.34027 76.45 263.4809Q77.2625 262.6059 78.54375 262.6059Q79.79375 262.6059 80.575 263.44965Q81.37187 264.2934 81.37187 265.84027Q81.37187 265.93402 81.37187 266.12152L76.73125 266.12152Q76.79375 267.15277 77.30937 267.69965Q77.825 268.2309 78.60625 268.2309Q79.18437 268.2309 79.59062 267.93402Q80.0125 267.62152 80.24687 266.96527ZM76.79375 265.26215L80.2625 265.26215Q80.2 264.46527 79.87187 264.07465Q79.35625 263.46527 78.55937 263.46527Q77.825 263.46527 77.325 263.94965Q76.84062 264.43402 76.79375 265.26215ZM82.99687 268.96527L82.99687 262.74652L83.93437 262.74652L83.93437 263.62152Q84.62187 262.6059 85.91875 262.6059Q86.48125 262.6059 86.95 262.80902Q87.43437 263.01215 87.66875 263.34027Q87.90312 263.6684 87.99687 264.1059Q88.04375 264.40277 88.04375 265.13715L88.04375 268.96527L86.99687 268.96527L86.99687 265.18402Q86.99687 264.52777 86.87187 264.21527Q86.74687 263.90277 86.43437 263.71527Q86.12187 263.51215 85.7 263.51215Q85.02812 263.51215 84.52812 263.94965Q84.04375 264.37152 84.04375 265.55902L84.04375 268.96527L82.99687 268.96527ZM92.74687 266.19965L93.80937 266.1059Q93.8875 266.76215 94.16875 267.1684Q94.45 267.57465 95.02812 267.84027Q95.62187 268.09027 96.35625 268.09027Q96.99687 268.09027 97.49687 267.90277Q97.99687 267.69965 98.23125 267.37152Q98.48125 267.02777 98.48125 266.63715Q98.48125 266.2309 98.24687 265.93402Q98.0125 265.62152 97.48125 265.4184Q97.12187 265.27777 95.93437 264.99652Q94.7625 264.71527 94.29375 264.46527Q93.66875 264.13715 93.37187 263.6684Q93.075 263.18402 93.075 262.59027Q93.075 261.94965 93.43437 261.38715Q93.80937 260.80902 94.5125 260.52777Q95.23125 260.2309 96.09062 260.2309Q97.04375 260.2309 97.77812 260.5434Q98.5125 260.84027 98.90312 261.44965Q99.29375 262.0434 99.325 262.7934L98.23125 262.87152Q98.1375 262.05902 97.62187 261.65277Q97.12187 261.2309 96.1375 261.2309Q95.10625 261.2309 94.6375 261.6059Q94.16875 261.9809 94.16875 262.51215Q94.16875 262.9809 94.49687 263.27777Q94.825 263.57465 96.2 263.88715Q97.59062 264.19965 98.10625 264.43402Q98.85625 264.7934 99.21562 265.32465Q99.575 265.84027 99.575 266.5434Q99.575 267.2309 99.18437 267.84027Q98.79375 268.43402 98.05937 268.77777Q97.325 269.1059 96.40312 269.1059Q95.23125 269.1059 94.43437 268.77777Q93.65312 268.43402 93.2 267.74652Q92.7625 267.05902 92.74687 266.19965ZM105.05937 268.19965Q104.46562 268.69965 103.91875 268.90277Q103.3875 269.1059 102.7625 269.1059Q101.73125 269.1059 101.18437 268.6059Q100.6375 268.1059 100.6375 267.32465Q100.6375 266.87152 100.84062 266.49652Q101.04375 266.1059 101.3875 265.88715Q101.73125 265.65277 102.15312 265.5434Q102.45 265.44965 103.09062 265.37152Q104.35625 265.2309 104.96562 265.01215Q104.96562 264.7934 104.96562 264.74652Q104.96562 264.09027 104.66875 263.82465Q104.2625 263.4809 103.46562 263.4809Q102.73125 263.4809 102.37187 263.74652Q102.0125 263.99652 101.84062 264.65277L100.80937 264.51215Q100.95 263.8559 101.27812 263.44965Q101.60625 263.0434 102.21562 262.82465Q102.825 262.6059 103.62187 262.6059Q104.41875 262.6059 104.91875 262.7934Q105.41875 262.9809 105.65312 263.26215Q105.8875 263.5434 105.98125 263.9809Q106.02812 264.24652 106.02812 264.94965L106.02812 266.3559Q106.02812 267.82465 106.09062 268.21527Q106.16875 268.6059 106.37187 268.96527L105.2625 268.96527Q105.10625 268.63715 105.05937 268.19965ZM104.96562 265.84027Q104.3875 266.07465 103.24687 266.24652Q102.59062 266.34027 102.325 266.46527Q102.05937 266.57465 101.90312 266.7934Q101.7625 267.01215 101.7625 267.2934Q101.7625 267.71527 102.075 267.99652Q102.40312 268.27777 103.0125 268.27777Q103.62187 268.27777 104.09062 268.01215Q104.575 267.74652 104.79375 267.27777Q104.96562 266.9184 104.96562 266.2309L104.96562 265.84027ZM107.96562 268.96527L107.96562 260.37152L109.02812 260.37152L109.02812 268.96527L107.96562 268.96527ZM115.24687 266.96527L116.34062 267.09027Q116.09062 268.0434 115.3875 268.57465Q114.68437 269.1059 113.60625 269.1059Q112.24687 269.1059 111.43437 268.26215Q110.6375 267.4184 110.6375 265.90277Q110.6375 264.34027 111.45 263.4809Q112.2625 262.6059 113.54375 262.6059Q114.79375 262.6059 115.575 263.44965Q116.37187 264.2934 116.37187 265.84027Q116.37187 265.93402 116.37187 266.12152L111.73125 266.12152Q111.79375 267.15277 112.30937 267.69965Q112.825 268.2309 113.60625 268.2309Q114.18437 268.2309 114.59062 267.93402Q115.0125 267.62152 115.24687 266.96527ZM111.79375 265.26215L115.2625 265.26215Q115.2 264.46527 114.87187 264.07465Q114.35625 263.46527 113.55937 263.46527Q112.825 263.46527 112.325 263.94965Q111.84062 264.43402 111.79375 265.26215Z" fill-rule="nonzero"/><path fill="#9e9e9e" d="M22.66875 285.96527L21.621876 285.96527L21.621876 279.24652Q21.23125 279.6059 20.60625 279.9809Q19.996876 280.34027 19.5125 280.51215L19.5125 279.49652Q20.3875 279.07465 21.04375 278.49652Q21.715626 277.90277 21.996876 277.34027L22.66875 277.34027L22.66875 285.96527ZM25.7 283.71527L26.809376 283.62152Q26.934376 284.43402 27.371876 284.84027Q27.825 285.24652 28.465626 285.24652Q29.215626 285.24652 29.746876 284.6684Q30.278126 284.09027 30.278126 283.15277Q30.278126 282.24652 29.7625 281.7309Q29.2625 281.19965 28.434376 281.19965Q27.934376 281.19965 27.5125 281.43402Q27.10625 281.6684 26.871876 282.02777L25.8875 281.90277L26.715626 277.49652L30.996876 277.49652L30.996876 278.49652L27.559376 278.49652L27.10625 280.80902Q27.871876 280.26215 28.715626 280.26215Q29.840626 280.26215 30.60625 281.0434Q31.3875 281.82465 31.3875 283.05902Q31.3875 284.21527 30.715626 285.07465Q29.8875 286.1059 28.465626 286.1059Q27.29375 286.1059 26.54375 285.44965Q25.809376 284.7934 25.7 283.71527ZM33.29375 285.96527L33.29375 284.76215L34.496876 284.76215L34.496876 285.96527L33.29375 285.96527ZM35.7 281.7309Q35.7 280.19965 36.0125 279.27777Q36.325 278.34027 36.934376 277.84027Q37.559376 277.34027 38.496876 277.34027Q39.184376 277.34027 39.7 277.62152Q40.23125 277.90277 40.575 278.43402Q40.91875 278.94965 41.10625 279.69965Q41.29375 280.44965 41.29375 281.7309Q41.29375 283.24652 40.98125 284.1684Q40.684376 285.09027 40.059376 285.6059Q39.45 286.1059 38.496876 286.1059Q37.2625 286.1059 36.54375 285.21527Q35.7 284.15277 35.7 281.7309ZM36.778126 281.7309Q36.778126 283.84027 37.278126 284.5434Q37.778126 285.24652 38.496876 285.24652Q39.23125 285.24652 39.715626 284.5434Q40.215626 283.84027 40.215626 281.7309Q40.215626 279.6059 39.715626 278.9184Q39.23125 278.21527 38.48125 278.21527Q37.7625 278.21527 37.325 278.82465Q36.778126 279.6059 36.778126 281.7309ZM42.903126 279.43402Q42.903126 278.51215 43.35625 277.87152Q43.825 277.2309 44.7 277.2309Q45.5125 277.2309 46.04375 277.80902Q46.575 278.38715 46.575 279.49652Q46.575 280.59027 46.028126 281.18402Q45.496876 281.76215 44.715626 281.76215Q43.934376 281.76215 43.41875 281.18402Q42.903126 280.6059 42.903126 279.43402ZM44.73125 277.94965Q44.340626 277.94965 44.075 278.2934Q43.825 278.63715 43.825 279.5434Q43.825 280.37152 44.075 280.71527Q44.340626 281.0434 44.73125 281.0434Q45.1375 281.0434 45.3875 280.69965Q45.653126 280.3559 45.653126 279.46527Q45.653126 278.62152 45.3875 278.2934Q45.121876 277.94965 44.73125 277.94965ZM44.73125 286.27777L49.434376 277.2309L50.29375 277.2309L45.60625 286.27777L44.73125 286.27777ZM48.45 283.94965Q48.45 283.02777 48.903126 282.38715Q49.371876 281.74652 50.2625 281.74652Q51.075 281.74652 51.60625 282.32465Q52.1375 282.88715 52.1375 284.01215Q52.1375 285.1059 51.590626 285.69965Q51.059376 286.27777 50.2625 286.27777Q49.496876 286.27777 48.965626 285.69965Q48.45 285.12152 48.45 283.94965ZM50.29375 282.46527Q49.8875 282.46527 49.621876 282.80902Q49.371876 283.15277 49.371876 284.05902Q49.371876 284.87152 49.6375 285.21527Q49.903126 285.55902 50.29375 285.55902Q50.684376 285.55902 50.95 285.21527Q51.215626 284.87152 51.215626 283.96527Q51.215626 283.13715 50.95 282.80902Q50.684376 282.46527 50.29375 282.46527Z" fill-rule="nonzero"/><path stroke="#757575" stroke-width="1.0" stroke-linecap="butt" d="M18.2 273.46527L124.7 273.46527L168.60887 273.46527" fill-rule="nonzero"/><path fill="#9e9e9e" d="M170.60887 273.46527C170.60887 272.3607 169.71344 271.46527 168.60887 271.46527C167.5043 271.46527 166.60887 272.3607 166.60887 273.46527C166.60887 274.56982 167.5043 275.46527 168.60887 275.46527C169.71344 275.46527 170.60887 274.56982 170.60887 273.46527" fill-rule="nonzero"/><path fill="#1a1a1a" d="M510.7531 117.95063L510.7531 109.35688L516.95624 109.35688L516.95624 110.372505L511.89374 110.372505L511.89374 112.997505L516.64374 112.997505L516.64374 114.01313L511.89374 114.01313L511.89374 116.935005L517.15936 116.935005L517.15936 117.95063L510.7531 117.95063ZM522.65936 115.66938L523.6906 115.810005Q523.51874 116.872505 522.8156 117.48188Q522.1125 118.091255 521.09686 118.091255Q519.8156 118.091255 519.03436 117.26313Q518.26874 116.41938 518.26874 114.85688Q518.26874 113.85688 518.59686 113.10688Q518.9406 112.341255 519.6125 111.966255Q520.3 111.591255 521.1125 111.591255Q522.1125 111.591255 522.7531 112.10688Q523.40936 112.60688 523.59686 113.560005L522.5656 113.716255Q522.425 113.091255 522.05 112.778755Q521.675 112.45063 521.14374 112.45063Q520.34686 112.45063 519.84686 113.028755Q519.34686 113.591255 519.34686 114.82563Q519.34686 116.091255 519.83124 116.653755Q520.3156 117.216255 521.08124 117.216255Q521.70624 117.216255 522.1125 116.841255Q522.53436 116.466255 522.65936 115.66938ZM524.20624 114.841255Q524.20624 113.10688 525.15936 112.278755Q525.95624 111.591255 527.1125 111.591255Q528.39374 111.591255 529.20624 112.435005Q530.03436 113.26313 530.03436 114.747505Q530.03436 115.95063 529.675 116.63813Q529.3156 117.32563 528.6125 117.716255Q527.925 118.091255 527.1125 118.091255Q525.8156 118.091255 525.0031 117.26313Q524.20624 116.41938 524.20624 114.841255ZM525.28436 114.841255Q525.28436 116.028755 525.8 116.622505Q526.33124 117.216255 527.1125 117.216255Q527.90936 117.216255 528.425 116.622505Q528.9406 116.028755 528.9406 114.810005Q528.9406 113.653755 528.40936 113.060005Q527.89374 112.466255 527.1125 112.466255Q526.33124 112.466255 525.8 113.060005Q525.28436 113.63813 525.28436 114.841255ZM531.175 116.091255L532.20624 115.935005Q532.3 116.560005 532.6906 116.88813Q533.09686 117.216255 533.83124 117.216255Q534.55 117.216255 534.89374 116.935005Q535.2531 116.63813 535.2531 116.23188Q535.2531 115.872505 534.9406 115.66938Q534.72186 115.528755 533.8625 115.310005Q532.70624 115.01313 532.2531 114.810005Q531.8156 114.591255 531.58124 114.216255Q531.34686 113.841255 531.34686 113.372505Q531.34686 112.966255 531.53436 112.60688Q531.72186 112.247505 532.05 112.01313Q532.3 111.841255 532.72186 111.716255Q533.14374 111.591255 533.64374 111.591255Q534.3625 111.591255 534.90936 111.810005Q535.47186 112.01313 535.7375 112.372505Q536.0031 112.73188 536.09686 113.32563L535.0656 113.466255Q535.0031 112.997505 534.65936 112.73188Q534.33124 112.45063 533.70624 112.45063Q532.9875 112.45063 532.675 112.70063Q532.3625 112.935005 532.3625 113.26313Q532.3625 113.466255 532.4875 113.622505Q532.6281 113.79438 532.89374 113.903755Q533.05 113.966255 533.83124 114.16938Q534.95624 114.48188 535.39374 114.66938Q535.83124 114.85688 536.08124 115.216255Q536.33124 115.57563 536.33124 116.122505Q536.33124 116.653755 536.01874 117.122505Q535.72186 117.57563 535.14374 117.841255Q534.5656 118.091255 533.83124 118.091255Q532.6125 118.091255 531.97186 117.591255Q531.34686 117.07563 531.175 116.091255ZM538.55 120.341255L538.425 119.35688Q538.76874 119.45063 539.03436 119.45063Q539.3781 119.45063 539.58124 119.32563Q539.8 119.216255 539.9406 119.01313Q540.03436 118.841255 540.26874 118.216255Q540.28436 118.13813 540.3625 117.966255L537.9875 111.73188L539.1281 111.73188L540.425 115.32563Q540.675 116.01313 540.8781 116.778755Q541.0656 116.04438 541.3156 115.35688L542.64374 111.73188L543.6906 111.73188L541.33124 118.060005Q540.9406 119.07563 540.7375 119.466255Q540.45624 119.997505 540.08124 120.23188Q539.72186 120.48188 539.22186 120.48188Q538.925 120.48188 538.55 120.341255ZM543.175 116.091255L544.20624 115.935005Q544.3 116.560005 544.6906 116.88813Q545.09686 117.216255 545.83124 117.216255Q546.55 117.216255 546.89374 116.935005Q547.2531 116.63813 547.2531 116.23188Q547.2531 115.872505 546.9406 115.66938Q546.72186 115.528755 545.8625 115.310005Q544.70624 115.01313 544.2531 114.810005Q543.8156 114.591255 543.58124 114.216255Q543.34686 113.841255 543.34686 113.372505Q543.34686 112.966255 543.53436 112.60688Q543.72186 112.247505 544.05 112.01313Q544.3 111.841255 544.72186 111.716255Q545.14374 111.591255 545.64374 111.591255Q546.3625 111.591255 546.90936 111.810005Q547.47186 112.01313 547.7375 112.372505Q548.0031 112.73188 548.09686 113.32563L547.0656 113.466255Q547.0031 112.997505 546.65936 112.73188Q546.33124 112.45063 545.70624 112.45063Q544.9875 112.45063 544.675 112.70063Q544.3625 112.935005 544.3625 113.26313Q544.3625 113.466255 544.4875 113.622505Q544.6281 113.79438 544.89374 113.903755Q545.05 113.966255 545.83124 114.16938Q546.95624 114.48188 547.39374 114.66938Q547.83124 114.85688 548.08124 115.216255Q548.33124 115.57563 548.33124 116.122505Q548.33124 116.653755 548.01874 117.122505Q547.72186 117.57563 547.14374 117.841255Q546.5656 118.091255 545.83124 118.091255Q544.6125 118.091255 543.97186 117.591255Q543.34686 117.07563 543.175 116.091255ZM552.89374 117.01313L553.05 117.935005Q552.59686 118.028755 552.2531 118.028755Q551.675 118.028755 551.3625 117.85688Q551.05 117.66938 550.90936 117.372505Q550.78436 117.07563 550.78436 116.122505L550.78436 112.54438L550.01874 112.54438L550.01874 111.73188L550.78436 111.73188L550.78436 110.185005L551.83124 109.560005L551.83124 111.73188L552.89374 111.73188L552.89374 112.54438L551.83124 112.54438L551.83124 116.185005Q551.83124 116.63813 551.8781 116.76313Q551.9406 116.88813 552.0656 116.966255Q552.1906 117.04438 552.425 117.04438Q552.6125 117.04438 552.89374 117.01313ZM557.84686 115.95063L558.9406 116.07563Q558.6906 117.028755 557.9875 117.560005Q557.28436 118.091255 556.20624 118.091255Q554.84686 118.091255 554.03436 117.247505Q553.2375 116.403755 553.2375 114.88813Q553.2375 113.32563 554.05 112.466255Q554.8625 111.591255 556.14374 111.591255Q557.39374 111.591255 558.175 112.435005Q558.97186 113.278755 558.97186 114.82563Q558.97186 114.91938 558.97186 115.10688L554.33124 115.10688Q554.39374 116.13813 554.90936 116.685005Q555.425 117.216255 556.20624 117.216255Q556.78436 117.216255 557.1906 116.91938Q557.6125 116.60688 557.84686 115.95063ZM554.39374 114.247505L557.8625 114.247505Q557.8 113.45063 557.47186 113.060005Q556.95624 112.45063 556.15936 112.45063Q555.425 112.45063 554.925 112.935005Q554.4406 113.41938 554.39374 114.247505ZM560.59686 117.95063L560.59686 111.73188L561.53436 111.73188L561.53436 112.60688Q561.83124 112.13813 562.3156 111.872505Q562.8 111.591255 563.425 111.591255Q564.1125 111.591255 564.55 111.872505Q565.0031 112.153755 565.175 112.66938Q565.925 111.591255 567.09686 111.591255Q568.03436 111.591255 568.51874 112.10688Q569.01874 112.60688 569.01874 113.685005L569.01874 117.95063L567.97186 117.95063L567.97186 114.028755Q567.97186 113.403755 567.8625 113.122505Q567.76874 112.841255 567.5031 112.66938Q567.2375 112.497505 566.8625 112.497505Q566.20624 112.497505 565.76874 112.935005Q565.34686 113.372505 565.34686 114.341255L565.34686 117.95063L564.28436 117.95063L564.28436 113.903755Q564.28436 113.20063 564.01874 112.85688Q563.76874 112.497505 563.1906 112.497505Q562.7375 112.497505 562.3625 112.73188Q561.9875 112.966255 561.8156 113.41938Q561.64374 113.872505 561.64374 114.716255L561.64374 117.95063L560.59686 117.95063Z" fill-rule="nonzero"/><path fill="#9e9e9e" d="M536.3 132.68501L537.3625 132.54439Q537.53436 133.43501 537.97186 133.84126Q538.40936 134.23189 539.03436 134.23189Q539.78436 134.23189 540.3 133.71626Q540.8156 133.20064 540.8156 132.43501Q540.8156 131.71626 540.33124 131.24751Q539.8625 130.76314 539.1281 130.76314Q538.83124 130.76314 538.3781 130.88814L538.5031 129.95064Q538.6125 129.96626 538.675 129.96626Q539.34686 129.96626 539.8781 129.62251Q540.425 129.26314 540.425 128.52876Q540.425 127.95064 540.03436 127.57564Q539.64374 127.18501 539.01874 127.18501Q538.40936 127.18501 537.9875 127.57564Q537.58124 127.96626 537.47186 128.73189L536.40936 128.54439Q536.59686 127.49751 537.28436 126.91939Q537.97186 126.32564 538.9875 126.32564Q539.6906 126.32564 540.28436 126.63814Q540.8781 126.93501 541.1906 127.45064Q541.5031 127.96626 541.5031 128.56001Q541.5031 129.10689 541.20624 129.57564Q540.90936 130.02876 540.33124 130.29439Q541.08124 130.46626 541.5031 131.02876Q541.925 131.57564 541.925 132.41939Q541.925 133.54439 541.09686 134.32564Q540.28436 135.10689 539.03436 135.10689Q537.90936 135.10689 537.15936 134.43501Q536.40936 133.74751 536.3 132.68501ZM543.3625 127.48189L543.3625 126.46626L548.925 126.46626L548.925 127.29439Q548.1125 128.16939 547.3 129.62251Q546.5031 131.06001 546.0656 132.59126Q545.7375 133.66939 545.65936 134.95064L544.5656 134.95064Q544.58124 133.93501 544.95624 132.49751Q545.34686 131.06001 546.05 129.73189Q546.76874 128.40376 547.58124 127.48189L543.3625 127.48189ZM550.89374 134.95064L550.89374 133.74751L552.09686 133.74751L552.09686 134.95064L550.89374 134.95064ZM553.3 132.70064L554.40936 132.60689Q554.53436 133.41939 554.97186 133.82564Q555.425 134.23189 556.0656 134.23189Q556.8156 134.23189 557.34686 133.65376Q557.8781 133.07564 557.8781 132.13814Q557.8781 131.23189 557.3625 130.71626Q556.8625 130.18501 556.03436 130.18501Q555.53436 130.18501 555.1125 130.41939Q554.70624 130.65376 554.47186 131.01314L553.4875 130.88814L554.3156 126.48189L558.59686 126.48189L558.59686 127.48189L555.15936 127.48189L554.70624 129.79439Q555.47186 129.24751 556.3156 129.24751Q557.4406 129.24751 558.20624 130.02876Q558.9875 130.81001 558.9875 132.04439Q558.9875 133.20064 558.3156 134.06001Q557.4875 135.09126 556.0656 135.09126Q554.89374 135.09126 554.14374 134.43501Q553.40936 133.77876 553.3 132.70064ZM560.5031 128.41939Q560.5031 127.49751 560.95624 126.85689Q561.425 126.21626 562.3 126.21626Q563.1125 126.21626 563.64374 126.79439Q564.175 127.37251 564.175 128.48189Q564.175 129.57564 563.6281 130.16939Q563.09686 130.74751 562.3156 130.74751Q561.53436 130.74751 561.01874 130.16939Q560.5031 129.59126 560.5031 128.41939ZM562.33124 126.93501Q561.9406 126.93501 561.675 127.27876Q561.425 127.62251 561.425 128.52876Q561.425 129.35689 561.675 129.70064Q561.9406 130.02876 562.33124 130.02876Q562.7375 130.02876 562.9875 129.68501Q563.2531 129.34126 563.2531 128.45064Q563.2531 127.60689 562.9875 127.27876Q562.72186 126.93501 562.33124 126.93501ZM562.33124 135.26314L567.03436 126.21626L567.89374 126.21626L563.20624 135.26314L562.33124 135.26314ZM566.05 132.93501Q566.05 132.01314 566.5031 131.37251Q566.97186 130.73189 567.8625 130.73189Q568.675 130.73189 569.20624 131.31001Q569.7375 131.87251 569.7375 132.99751Q569.7375 134.09126 569.1906 134.68501Q568.65936 135.26314 567.8625 135.26314Q567.09686 135.26314 566.5656 134.68501Q566.05 134.10689 566.05 132.93501ZM567.89374 131.45064Q567.4875 131.45064 567.22186 131.79439Q566.97186 132.13814 566.97186 133.04439Q566.97186 133.85689 567.2375 134.20064Q567.5031 134.54439 567.89374 134.54439Q568.28436 134.54439 568.55 134.20064Q568.8156 133.85689 568.8156 132.95064Q568.8156 132.12251 568.55 131.79439Q568.28436 131.45064 567.89374 131.45064Z" fill-rule="nonzero"/><path stroke="#757575" stroke-width="1.0" stroke-linecap="butt" d="M570.8 122.45063L464.3 122.45063L438.2649 122.45063" fill-rule="nonzero"/><path fill="#9e9e9e" d="M440.2649 122.45063C440.2649 121.34606 439.36948 120.45063 438.2649 120.45063C437.16034 120.45063 436.2649 121.34606 436.2649 122.45063C436.2649 123.5552 437.16034 124.45063 438.2649 124.45063C439.36948 124.45063 440.2649 123.5552 440.2649 122.45063" fill-rule="nonzero"/><path fill="#1a1a1a" d="M541.90936 325.8L541.90936 318.22186L539.08124 318.22186L539.08124 317.20624L545.89374 317.20624L545.89374 318.22186L543.05 318.22186L543.05 325.8L541.90936 325.8ZM550.84686 323.8L551.9406 323.925Q551.6906 324.8781 550.9875 325.40936Q550.28436 325.9406 549.20624 325.9406Q547.84686 325.9406 547.03436 325.09686Q546.2375 324.2531 546.2375 322.7375Q546.2375 321.175 547.05 320.3156Q547.8625 319.4406 549.14374 319.4406Q550.39374 319.4406 551.175 320.28436Q551.97186 321.1281 551.97186 322.675Q551.97186 322.76874 551.97186 322.95624L547.33124 322.95624Q547.39374 323.9875 547.90936 324.53436Q548.425 325.0656 549.20624 325.0656Q549.78436 325.0656 550.1906 324.76874Q550.6125 324.45624 550.84686 323.8ZM547.39374 322.09686L550.8625 322.09686Q550.8 321.3 550.47186 320.90936Q549.95624 320.3 549.15936 320.3Q548.425 320.3 547.925 320.78436Q547.4406 321.26874 547.39374 322.09686ZM557.65936 325.03436Q557.0656 325.53436 556.51874 325.7375Q555.9875 325.9406 555.3625 325.9406Q554.33124 325.9406 553.78436 325.4406Q553.2375 324.9406 553.2375 324.15936Q553.2375 323.70624 553.4406 323.33124Q553.64374 322.9406 553.9875 322.72186Q554.33124 322.4875 554.7531 322.3781Q555.05 322.28436 555.6906 322.20624Q556.95624 322.0656 557.5656 321.84686Q557.5656 321.6281 557.5656 321.58124Q557.5656 320.925 557.26874 320.65936Q556.8625 320.3156 556.0656 320.3156Q555.33124 320.3156 554.97186 320.58124Q554.6125 320.83124 554.4406 321.4875L553.40936 321.34686Q553.55 320.6906 553.8781 320.28436Q554.20624 319.8781 554.8156 319.65936Q555.425 319.4406 556.22186 319.4406Q557.01874 319.4406 557.51874 319.6281Q558.01874 319.8156 558.2531 320.09686Q558.4875 320.3781 558.58124 320.8156Q558.6281 321.08124 558.6281 321.78436L558.6281 323.1906Q558.6281 324.65936 558.6906 325.05Q558.76874 325.4406 558.97186 325.8L557.8625 325.8Q557.70624 325.47186 557.65936 325.03436ZM557.5656 322.675Q556.9875 322.90936 555.84686 323.08124Q555.1906 323.175 554.925 323.3Q554.65936 323.40936 554.5031 323.6281Q554.3625 323.84686 554.3625 324.1281Q554.3625 324.55 554.675 324.83124Q555.0031 325.1125 555.6125 325.1125Q556.22186 325.1125 556.6906 324.84686Q557.175 324.58124 557.39374 324.1125Q557.5656 323.7531 557.5656 323.0656L557.5656 322.675ZM560.59686 325.8L560.59686 319.58124L561.53436 319.58124L561.53436 320.45624Q561.83124 319.9875 562.3156 319.72186Q562.8 319.4406 563.425 319.4406Q564.1125 319.4406 564.55 319.72186Q565.0031 320.0031 565.175 320.51874Q565.925 319.4406 567.09686 319.4406Q568.03436 319.4406 568.51874 319.95624Q569.01874 320.45624 569.01874 321.53436L569.01874 325.8L567.97186 325.8L567.97186 321.8781Q567.97186 321.2531 567.8625 320.97186Q567.76874 320.6906 567.5031 320.51874Q567.2375 320.34686 566.8625 320.34686Q566.20624 320.34686 565.76874 320.78436Q565.34686 321.22186 565.34686 322.1906L565.34686 325.8L564.28436 325.8L564.28436 321.7531Q564.28436 321.05 564.01874 320.70624Q563.76874 320.34686 563.1906 320.34686Q562.7375 320.34686 562.3625 320.58124Q561.9875 320.8156 561.8156 321.26874Q561.64374 321.72186 561.64374 322.5656L561.64374 325.8L560.59686 325.8Z" fill-rule="nonzero"/><path fill="#9e9e9e" d="M541.84686 341.78436L541.84686 342.8L536.15936 342.8Q536.15936 342.425 536.28436 342.0656Q536.5031 341.4875 536.97186 340.925Q537.45624 340.3625 538.3625 339.6281Q539.76874 338.47186 540.2531 337.8Q540.7531 337.1281 540.7531 336.53436Q540.7531 335.90936 540.3 335.4875Q539.84686 335.05 539.1281 335.05Q538.3625 335.05 537.90936 335.5031Q537.45624 335.95624 537.4406 336.76874L536.3625 336.65936Q536.47186 335.4406 537.1906 334.8156Q537.925 334.175 539.15936 334.175Q540.39374 334.175 541.1125 334.8625Q541.83124 335.55 541.83124 336.5656Q541.83124 337.08124 541.6125 337.58124Q541.40936 338.0656 540.90936 338.6281Q540.425 339.175 539.3 340.1281Q538.34686 340.925 538.0656 341.22186Q537.8 341.5031 537.6281 341.78436L541.84686 341.78436ZM543.3 338.5656Q543.3 337.03436 543.6125 336.1125Q543.925 335.175 544.53436 334.675Q545.15936 334.175 546.09686 334.175Q546.78436 334.175 547.3 334.45624Q547.83124 334.7375 548.175 335.26874Q548.51874 335.78436 548.70624 336.53436Q548.89374 337.28436 548.89374 338.5656Q548.89374 340.08124 548.58124 341.0031Q548.28436 341.925 547.65936 342.4406Q547.05 342.9406 546.09686 342.9406Q544.8625 342.9406 544.14374 342.05Q543.3 340.9875 543.3 338.5656ZM544.3781 338.5656Q544.3781 340.675 544.8781 341.3781Q545.3781 342.08124 546.09686 342.08124Q546.83124 342.08124 547.3156 341.3781Q547.8156 340.675 547.8156 338.5656Q547.8156 336.4406 547.3156 335.7531Q546.83124 335.05 546.08124 335.05Q545.3625 335.05 544.925 335.65936Q544.3781 336.4406 544.3781 338.5656ZM550.89374 342.8L550.89374 341.59686L552.09686 341.59686L552.09686 342.8L550.89374 342.8ZM553.3 338.5656Q553.3 337.03436 553.6125 336.1125Q553.925 335.175 554.53436 334.675Q555.15936 334.175 556.09686 334.175Q556.78436 334.175 557.3 334.45624Q557.83124 334.7375 558.175 335.26874Q558.51874 335.78436 558.70624 336.53436Q558.89374 337.28436 558.89374 338.5656Q558.89374 340.08124 558.58124 341.0031Q558.28436 341.925 557.65936 342.4406Q557.05 342.9406 556.09686 342.9406Q554.8625 342.9406 554.14374 342.05Q553.3 340.9875 553.3 338.5656ZM554.3781 338.5656Q554.3781 340.675 554.8781 341.3781Q555.3781 342.08124 556.09686 342.08124Q556.83124 342.08124 557.3156 341.3781Q557.8156 340.675 557.8156 338.5656Q557.8156 336.4406 557.3156 335.7531Q556.83124 335.05 556.08124 335.05Q555.3625 335.05 554.925 335.65936Q554.3781 336.4406 554.3781 338.5656ZM560.5031 336.26874Q560.5031 335.34686 560.95624 334.70624Q561.425 334.0656 562.3 334.0656Q563.1125 334.0656 563.64374 334.64374Q564.175 335.22186 564.175 336.33124Q564.175 337.425 563.6281 338.01874Q563.09686 338.59686 562.3156 338.59686Q561.53436 338.59686 561.01874 338.01874Q560.5031 337.4406 560.5031 336.26874ZM562.33124 334.78436Q561.9406 334.78436 561.675 335.1281Q561.425 335.47186 561.425 336.3781Q561.425 337.20624 561.675 337.55Q561.9406 337.8781 562.33124 337.8781Q562.7375 337.8781 562.9875 337.53436Q563.2531 337.1906 563.2531 336.3Q563.2531 335.45624 562.9875 335.1281Q562.72186 334.78436 562.33124 334.78436ZM562.33124 343.1125L567.03436 334.0656L567.89374 334.0656L563.20624 343.1125L562.33124 343.1125ZM566.05 340.78436Q566.05 339.8625 566.5031 339.22186Q566.97186 338.58124 567.8625 338.58124Q568.675 338.58124 569.20624 339.15936Q569.7375 339.72186 569.7375 340.84686Q569.7375 341.9406 569.1906 342.53436Q568.65936 343.1125 567.8625 343.1125Q567.09686 343.1125 566.5656 342.53436Q566.05 341.95624 566.05 340.78436ZM567.89374 339.3Q567.4875 339.3 567.22186 339.64374Q566.97186 339.9875 566.97186 340.89374Q566.97186 341.70624 567.2375 342.05Q567.5031 342.39374 567.89374 342.39374Q568.28436 342.39374 568.55 342.05Q568.8156 341.70624 568.8156 340.8Q568.8156 339.97186 568.55 339.64374Q568.28436 339.3 567.89374 339.3Z" fill-rule="nonzero"/><path stroke="#757575" stroke-width="1.0" stroke-linecap="butt" d="M570.8 330.3L464.3 330.3L318.84277 335.69418" fill-rule="nonzero"/><path fill="#9e9e9e" d="M320.84277 335.69418C320.84277 334.5896 319.94733 333.69418 318.84277 333.69418C317.7382 333.69418 316.84277 334.5896 316.84277 335.69418C316.84277 336.79877 317.7382 337.69418 318.84277 337.69418C319.94733 337.69418 320.84277 336.79877 320.84277 335.69418" fill-rule="nonzero"/></svg>