<svg xmlns="http://www.w3.org/2000/svg" xmlns:xlink="http://www.w3.org/1999/xlink" xmlns:lucid="lucid" width="864" height="702.11"><g transform="translate(-918 240.11388300841898)" lucid:page-tab-id="3rbXgDarBnPt"><path d="M920 276a6 6 0 0 1 6-6h848a6 6 0 0 1 6 6v178a6 6 0 0 1-6 6H926a6 6 0 0 1-6-6z" fill-opacity="0"/><path d="M966.38 270h40.38m20.2 0h40.37m20.2 0h40.38m20.2 0h40.38m20.2 0h40.37m20.2 0h40.37m20.2 0h40.37m20.18 0h40.38m20.2 0h40.37m20.2 0h40.38m20.2 0h40.38m20.2 0h40.37m20.2 0h40.37m20.2 0H1774a6 6 0 0 1 6 6v19.78m0 19.78v39.55m0 19.8v39.54m0 19.78V454a6 6 0 0 1-6 6h-20.2m-20.18 0h-40.38m-20.2 0h-40.37m-20.2 0h-40.38m-20.2 0h-40.38m-20.2 0h-40.37m-20.2 0h-40.37m-20.2 0h-40.37m-20.18 0h-40.38m-20.2 0h-40.37m-20.2 0h-40.38m-20.2 0h-40.38m-20.2 0h-40.37m-20.2 0H966.4m-20.2 0H926a6 6 0 0 1-6-6v-19.78m0-19.78V374.9m0-19.8v-39.54m0-19.78V276a6 6 0 0 1 6-6h20.2" stroke="#3a414a" stroke-width="4" fill="none"/><path d="M1385.98 22.4l-2.08.65-3.4 1.23-1.34-3.72 3.47-1.25 2.16-.68zm18.68-4.82l-.88.16-7.52 1.7-2.86.77-1.03-3.8 2.94-.8 7.7-1.73.95-.18zm19.14-3h-.06l-11.06 1.54-.33.06-.7-3.9.4-.06 11.23-1.56.15-.02zm8.93-.86l-1.14.1-.4-3.92 1.53-.15zm125.7-20.48l-1.53 1.15-1.83 1.24-1.98 1.24-2.16 1.22-1.15.58v-1.45H1547l-.6-1.28.43-.2 2.2-1.13 2.02-1.14 1.84-1.15 1.7-1.16 1.47-1.1zm12.98-15.6l-.36.72-.96 1.73-1.02 1.64-1.07 1.6-1.14 1.5-1.2 1.5-1.17 1.34-2.98-2.6 1.13-1.3 1.08-1.34 1.03-1.4.98-1.44.93-1.5.9-1.6.3-.64zm4.7-13.34l-.32 1.4-.65 2.46-.6 1.95-3.78-1.16.58-1.87.6-2.3.3-1.33z" stroke="#3a414a" stroke-width=".05" fill="#3a414a"/><path d="M1380.56 24.26l-2 .73-.46-1.5-.85-2.24 1.96-.7z" fill="#3a414a"/><path stroke="#3a414a" stroke-width=".05" fill="#3a414a"/><path d="M1578.14-37.62l-7.44-.96 4.55-5.96z" fill="#3a414a"/><path d="M1581.27-35.22l-14.22-1.84 8.7-11.4zm-6.93-4.88l.66.1-.26-.62z" stroke="#3a414a" stroke-width=".05" fill="#3a414a"/><use xlink:href="#a" transform="matrix(1,0,0,1,1432.7257842659815,-2.765398096868898) translate(0.005000000000002558 17.22222222222222)"/><use xlink:href="#b" transform="matrix(1,0,0,1,1432.7257842659815,-2.765398096868898) translate(20.56055555555556 17.22222222222222)"/><use xlink:href="#c" transform="matrix(1,0,0,1,1432.7257842659815,-2.765398096868898) translate(86.41125000000002 17.22222222222222)"/><path d="M1000 311a6 6 0 0 1 6-6h148a6 6 0 0 1 6 6v108a6 6 0 0 1-6 6h-148a6 6 0 0 1-6-6z" stroke="#000" stroke-width="4" fill="#4c535d"/><use xlink:href="#d" transform="matrix(1,0,0,1,1012,317) translate(27.949544270833336 41.68055555555556)"/><use xlink:href="#e" transform="matrix(1,0,0,1,1012,317) translate(35.809244791666664 71.25737847222223)"/><path d="M920 196a6 6 0 0 1 6-6h148a6 6 0 0 1 6 6v68a6 6 0 0 1-6 6H926a6 6 0 0 1-6-6z" fill="none"/><use xlink:href="#f" transform="matrix(1,0,0,1,920,190) translate(40.67165798611111 34.103732638888886)"/><use xlink:href="#g" transform="matrix(1,0,0,1,920,190) translate(17.04481336805555 63.68055555555556)"/><path d="M1380.1 47.6c0 40.04-32.47 72.5-72.5 72.5-40.05 0-72.5-32.46-72.5-72.5s32.45-72.5 72.5-72.5c40.03 0 72.5 32.46 72.5 72.5z" stroke="#003d87" stroke-width="4" fill="#f2f3f5"/><use xlink:href="#h" transform="matrix(1,0,0,1,1240.0897246843817,-19.90259072504014) translate(39.45095486111111 74.30555555555556)"/><path d="M1197.7 217.66l-10.76 9.24-6.57 6.16-4.95 5.05-4 4.44-3.34 4.05-2.87 3.76-2.5 3.6-2.18 3.45-1.95 3.38-1.73 3.3-1.54 3.27-1.37 3.26-1.2 3.28-1.1 3.3-.92 3.36-.8 3.42-.67 3.52-.53 3.64-.4 3.78-.25 3.95-.04 2.2-3.94-.1.04-2.27.26-4.1.42-3.96.56-3.8.7-3.68.84-3.58.98-3.52 1.13-3.46 1.26-3.42 1.43-3.42 1.6-3.42 1.8-3.45 2.04-3.5 2.28-3.6 2.6-3.73 2.96-3.9 3.46-4.18 4.1-4.56 5.07-5.16 6.7-6.28 10.86-9.32 12.8-10.56h6.2zm74.05-92.5l-.12.8-.7 3.7-.84 3.57-1 3.5-1.1 3.47-1.3 3.42-1.42 3.4-1.6 3.42-1.8 3.45-2.04 3.5-2.28 3.6-.04.06h-4.82l1.57-2.26 2.2-3.45 1.94-3.36 1.73-3.3 1.54-3.28 1.37-3.25 1.22-3.27 1.07-3.3.93-3.35.8-3.42.67-3.5.1-.76z" stroke="#3a414a" stroke-width=".05" fill="#3a414a"/><path d="M1148 301l-.04 2H1144l.06-2.1z" fill="#3a414a"/><path stroke="#3a414a" stroke-width=".05" fill="#3a414a"/><path d="M1273.7 123.22l-7.45-.7 4.33-6.1z" fill="#3a414a"/><path d="M1276.94 125.5l-14.28-1.3 8.28-11.72zm-7.1-4.62l.65.06-.3-.6z" stroke="#3a414a" stroke-width=".05" fill="#3a414a"/><use xlink:href="#i" transform="matrix(1,0,0,1,1191.6096397993088,161.0591056239537) translate(0.005000000000002558 17.22222222222222)"/><use xlink:href="#j" transform="matrix(1,0,0,1,1191.6096397993088,161.0591056239537) translate(20.803611111111117 17.22222222222222)"/><use xlink:href="#k" transform="matrix(1,0,0,1,1191.6096397993088,161.0591056239537) translate(26.10309027777778 38.732638888888886)"/><path d="M1110.1 194.63l-4.12 7.46-3.8 7.64-3.5 7.84-3.17 8.02-2.86 8.23-2.54 8.44-2.23 8.65-1.88 8.88-1.56 9.12-1.18 9.37-.8 9.64-.13 2.65-3.94-.17.1-2.74.83-9.82 1.2-9.54 1.58-9.28 1.93-9.04 2.26-8.82 2.6-8.6 2.9-8.37 3.25-8.2 3.56-7.97 3.88-7.8 4.18-7.6 2.07-3.42h4.62zM1246 93.86l-8.2 2.28-9.76 3.18-9.47 3.52-9.17 3.85-8.86 4.15-8.54 4.47-8.22 4.74-7.9 5-7.58 5.28-7.25 5.5-6.93 5.73-6.6 5.95-3.75 3.66v-4.96h-.58l1.6-1.58 6.74-6.06 7.06-5.84 7.38-5.6 7.7-5.36 8.05-5.1 8.37-4.83 8.7-4.54 9-4.22 9.32-3.92 9.62-3.58 9.93-3.22 8.26-2.3z" stroke="#3a414a" stroke-width=".05" fill="#3a414a"/><path d="M1246.28 89.94l2.37 3.18-2.7.76-1.07-3.8 1.26-.36z" fill="#3a414a"/><path stroke="#3a414a" stroke-width=".05" fill="#3a414a"/><path d="M1084.05 292.62l-3.93 6.38-3.56-6.6z" fill="#3a414a"/><path d="M1087.53 290.74l-7.53 12.2-6.8-12.6zm-7.3 4.3l.35-.55-.66-.03z" stroke="#3a414a" stroke-width=".05" fill="#3a414a"/><use xlink:href="#l" transform="matrix(1,0,0,1,1108.5566439466975,146.21881144554925) translate(0 17.22222222222222)"/><use xlink:href="#m" transform="matrix(1,0,0,1,1108.5566439466975,146.21881144554925) translate(17.77777777777778 17.22222222222222)"/><use xlink:href="#n" transform="matrix(1,0,0,1,1108.5566439466975,146.21881144554925) translate(17.77777777777778 38.732638888888886)"/><path d="M1545 308.5a6 6 0 0 1 6-6h148a6 6 0 0 1 6 6v113a6 6 0 0 1-6 6h-148a6 6 0 0 1-6-6z" stroke="#000" stroke-width="4" fill="#4c535d"/><use xlink:href="#o" transform="matrix(1,0,0,1,1557,314.5) translate(22.864908854166664 45.77430555555556)"/><use xlink:href="#p" transform="matrix(1,0,0,1,1557,314.5) translate(4.370442708333329 75.35112847222223)"/><path d="M1527.77 199.04l9.12 5.06 7.18 4.4 5.95 3.98 5.08 3.72 4.43 3.53 3.9 3.4 3.5 3.3 3.15 3.26 2.87 3.2 2.6 3.2 2.42 3.2 2.2 3.2 2.05 3.25 1.9 3.3 1.74 3.38 1.6 3.46 1.5 3.56 1.34 3.7 1.24 3.86 1.1 4.03.97 4.24.85 4.48.68 4.78.33 3.27-3.93.4-.32-3.2-.65-4.6-.8-4.33-.94-4.1-1.05-3.86-1.18-3.7-1.3-3.54-1.42-3.42-1.54-3.3-1.66-3.24-1.8-3.16-1.96-3.1-2.12-3.1-2.3-3.05-2.52-3.06-2.75-3.1-3.05-3.12-3.37-3.2-3.78-3.28-4.3-3.43-4.93-3.63-5.82-3.88-7.05-4.3-7.73-4.3v-4.48zM1363.87 107l5.17 5.34 5.6 5.3 6.1 5.3 6.68 5.36 7.45 5.45 8.43 5.66 9.8 6 11.86 6.58 5.73 2.87v4.4l-7.58-3.78-12-6.66-9.95-6.06-8.57-5.75-7.58-5.57-6.82-5.45-6.22-5.42-5.7-5.4-5.3-5.47-3.6-4.03 2.95-2.63z" stroke="#3a414a" stroke-width=".05" fill="#3a414a"/><path d="M1360.37 103.08l-2.95 2.63-1.4-1.55 1.97-1.68.96-.96z" fill="#3a414a"/><path stroke="#3a414a" stroke-width=".05" fill="#3a414a"/><path d="M1593.9 296.5l-4.06-6.3 7.5-.36z" fill="#3a414a"/><path d="M1594.1 300.45l-7.77-12.06 14.33-.7zm-.75-8.44l.36.56.3-.6z" stroke="#3a414a" stroke-width=".05" fill="#3a414a"/><use xlink:href="#q" transform="matrix(1,0,0,1,1430.6952323193716,146.7136932716832) translate(8.950312500000017 17.22222222222222)"/><use xlink:href="#r" transform="matrix(1,0,0,1,1430.6952323193716,146.7136932716832) translate(29.56663194444446 17.22222222222222)"/><use xlink:href="#s" transform="matrix(1,0,0,1,1430.6952323193716,146.7136932716832) translate(14.23243055555556 38.732638888888886)"/><use xlink:href="#t" transform="matrix(1,0,0,1,1430.6952323193716,146.7136932716832) translate(0.005000000000002558 60.24305555555555)"/><path d="M1525-100c-24.85 0-45-17.9-45-40 0-17.67 12.18-32.58 31.1-38.04C1510-230 1585-240 1615-220c15-30 90-20 90 10 45-10 90 30 60 80 30 40 0 90-60 70-15 26-75 26-90 0-30 20-90 10-90-40z" stroke="#000" stroke-width="4" fill="#4c535d"/><use xlink:href="#u" transform="matrix(1,0,0,1,1485,-235) translate(109.41797743055555 88.99305555555556)"/><use xlink:href="#v" transform="matrix(1,0,0,1,1485,-235) translate(58.83475260416666 118.56987847222223)"/><use xlink:href="#w" transform="matrix(1,0,0,1,1485,-235) translate(155.97993489583334 118.56987847222223)"/><path d="M1716.7 128.92l-28.2 69.76-4.4 13.68-3.45 12.6-2.8 12.17-2.26 12.13-1.78 12.35-1.28 12.78-.78 13.4v.26l-3.96-.07v-.34l.8-13.56 1.3-12.94 1.8-12.5 2.28-12.3 2.84-12.34 3.5-12.77 4.46-13.9L1713 127.5l.17-.44h4.2zM1705.4-33.35l6.25 13.12 4.88 11.47 3.85 10.18 3.03 9.2 2.4 8.4 1.86 7.78 1.4 7.3 1.06 6.88.72 6.6.43 6.37.17 6.22-.04 2.36h-3.95l.04-2.34-.15-6.07-.42-6.2-.7-6.44-1.03-6.74-1.4-7.12-1.82-7.62-2.34-8.25-3-9.03-3.77-10.03-4.83-11.3-6.18-12.97-7.13-13.45 3.5-1.85z" stroke="#3a414a" stroke-width=".05" fill="#3a414a"/><path d="M1698.3-46.82l-3.5 1.85-.9-1.7.77-.46 2-1.3.56-.4z" fill="#3a414a"/><path stroke="#3a414a" stroke-width=".05" fill="#3a414a"/><path d="M1673.5 290.08l-3.88 6.42-3.63-6.56z" fill="#3a414a"/><path d="M1676.95 288.17l-7.4 12.28-6.94-12.55zm-7.26 4.38l.33-.56-.66-.02z" stroke="#3a414a" stroke-width=".05" fill="#3a414a"/><use xlink:href="#x" transform="matrix(1,0,0,1,1677.2497785634296,62.52872480652796) translate(20.005000000000006 17.22222222222222)"/><use xlink:href="#y" transform="matrix(1,0,0,1,1677.2497785634296,62.52872480652796) translate(37.722013888888895 17.22222222222222)"/><use xlink:href="#s" transform="matrix(1,0,0,1,1677.2497785634296,62.52872480652796) translate(14.23243055555556 38.732638888888886)"/><use xlink:href="#t" transform="matrix(1,0,0,1,1677.2497785634296,62.52872480652796) translate(0.005000000000002558 60.24305555555555)"/><path d="M1272.5 311a6 6 0 0 1 6-6h148a6 6 0 0 1 6 6v108a6 6 0 0 1-6 6h-148a6 6 0 0 1-6-6z" stroke="#000" stroke-width="4" fill="#ced4db"/><use xlink:href="#z" transform="matrix(1,0,0,1,1284.5,317) translate(26.76790364583333 41.68055555555556)"/><use xlink:href="#A" transform="matrix(1,0,0,1,1284.5,317) translate(7.318576388888886 71.25737847222223)"/><path d="M1355.96 228.9l-1.24 61.65-3.94-.08 1.23-61.58-.2-18.4h3.95zm-14.62-99.62l3.74 11.8 2.98 10.98 2.4 10.55.88 4.88h-4.02l-.74-4.08-2.36-10.38-2.93-10.83-3.7-11.64-4.02-11.06 3.7-1.35z" stroke="#3a414a" stroke-width=".05" fill="#3a414a"/><path d="M1337.3 118.2l-3.7 1.35-.7-1.9 3.57-1.36.13-.06z" fill="#3a414a"/><path stroke="#3a414a" stroke-width=".05" fill="#3a414a"/><path d="M1356.46 292.58l-3.88 6.42-3.62-6.57z" fill="#3a414a"/><path d="M1359.92 290.68l-7.42 12.27-6.92-12.56zm-7.26 4.37l.34-.56-.66-.02z" stroke="#3a414a" stroke-width=".05" fill="#3a414a"/><g><use xlink:href="#B" transform="matrix(1,0,0,1,1305.7947025432775,167.4818098247067) translate(7.092673611111124 17.22222222222222)"/><use xlink:href="#r" transform="matrix(1,0,0,1,1305.7947025432775,167.4818098247067) translate(28.11697916666668 17.22222222222222)"/><use xlink:href="#C" transform="matrix(1,0,0,1,1305.7947025432775,167.4818098247067) translate(0.005000000000002558 38.732638888888886)"/></g><path d="M1231.1 47.53l-3.5-.1-4.28-.44-3.45-.6-2.83-.66-2.35-.73-2-.76-1.7-.8-1.5-.8-1.28-.84-1.14-.84-1.02-.87-.9-.9-.83-.9-.73-.94-.66-.97-.6-1.03-.53-1.07-.47-1.13-.4-1.2-.36-1.3-.27-1.4-.2-1.53-.1-1.7v-1.87l.17-2.12.34-2.4.6-2.76.9-3.2 1.34-3.75 1.92-4.42 2.7-5.2 3.7-6.1 4.9-7 6.17-7.68 7.28-7.88 7.85-7.45 7.77-6.45 7.17-5.17 6.28-3.94 5.4-2.9 4.57-2.05 3.88-1.44 3.3-1 2.86-.64 2.46-.4 2.17-.18 1.92-.04 1.73.08 1.56.18 1.43.26 1.32.33 1.2.4 1.16.46 1.08.53 1.02.58 1 .66.93.72.9.8.9.88.86 1 .85 1.1.85 1.27.8 1.44.8 1.65.8 1.92.73 2.27.7 2.73.25 1.44" stroke="#3a414a" stroke-width="4" stroke-linejoin="round" fill="none"/><path d="M1233.16 45.62l-.07 1.97.04 1.98-2.17-.07.13-3.94z" stroke="#3a414a" stroke-width=".05" fill="#3a414a"/><path d="M1307.25-30.9l-4.3-6.14 7.48-.64z" stroke="#3a414a" stroke-width="4" fill="#3a414a"/><g><use xlink:href="#D" transform="matrix(1,0,0,1,1137.2106204793988,-59.562613745102) translate(0.005000000000002558 17.22222222222222)"/><use xlink:href="#E" transform="matrix(1,0,0,1,1137.2106204793988,-59.562613745102) translate(20.708125000000003 17.22222222222222)"/><use xlink:href="#F" transform="matrix(1,0,0,1,1137.2106204793988,-59.562613745102) translate(29.03277777777778 38.732638888888886)"/></g><path d="M1164 365h94" stroke="#3a414a" stroke-width="4" stroke-linejoin="round" fill="none"/><path d="M1164.05 366.98H1162v-3.96h2.05z" stroke="#3a414a" stroke-width=".05" fill="#3a414a"/><path d="M1266.5 365l-6.5 3.75v-7.5z" stroke="#3a414a" stroke-width="4" fill="#3a414a"/><path d="M1436.5 365h94" stroke="#3a414a" stroke-width="4" stroke-linejoin="round" fill="none"/><path d="M1436.55 366.98h-2.05v-3.96h2.05z" stroke="#3a414a" stroke-width=".05" fill="#3a414a"/><path d="M1539 365l-6.5 3.75v-7.5z" stroke="#3a414a" stroke-width="4" fill="#3a414a"/><defs><path fill="#333" d="M664 20c-306 0-529-183-535-438h297c6 117 110 196 238 196 149 0 255-108 255-266 0-159-108-270-261-270-89 0-178 39-224 98l-274-48 72-782h901v252H485l-39 377h8c53-72 165-124 294-124 269 0 467 204 467 490 0 300-224 515-551 515" id="G"/><path fill="#333" d="M342 19c-98 0-173-75-173-172s75-172 173-172 173 75 173 172S440 19 342 19" id="H"/><g id="a"><use transform="matrix(0.008680555555555556,0,0,0.008680555555555556,0,0)" xlink:href="#G"/><use transform="matrix(0.008680555555555556,0,0,0.008680555555555556,10.95486111111111,0)" xlink:href="#H"/></g><path fill="#333" d="M750 21c-371 0-615-218-615-544v-967h305v942c0 174 123 299 310 299s309-125 309-299v-942h306v967c0 326-247 544-615 544" id="I"/><path fill="#333" d="M128 418v-1536h295v188h14c41-89 129-202 319-202 248 0 453 193 453 575 0 372-197 576-455 576-183 0-275-108-317-198h-9v597H128zm534-640c156 0 240-139 240-336 0-196-83-334-240-334-154 0-241 131-241 334 0 202 88 336 241 336" id="J"/><path fill="#333" d="M428-1490V0H128v-1490h300" id="K"/><path fill="#333" d="M628 22C291 22 81-210 81-554c0-346 210-578 547-578 336 0 547 232 547 578 0 344-211 576-547 576zm0-236c160 0 242-146 242-341 0-197-82-341-242-341S387-753 387-555c0 195 81 341 241 341" id="L"/><path fill="#333" d="M440 22C227 22 68-92 68-313c0-250 202-322 422-343 195-21 271-24 271-105 0-95-63-149-175-149-116 0-187 57-211 129l-275-46c57-194 237-305 487-305 240 0 474 108 474 379V0H777v-155h-10C713-51 605 22 440 22zm85-211c140 0 238-93 238-211v-121c-37 26-156 42-222 51-111 16-185 59-185 149 0 87 70 132 169 132" id="M"/><path fill="#333" d="M537 19C279 19 81-185 81-557c0-382 206-575 454-575 190 0 278 113 318 202h10v-560h300V0H868v-179h-15C812-89 719 19 537 19zm92-241c153 0 240-134 240-336 0-203-86-334-240-334-158 0-240 138-240 334 0 197 84 336 240 336" id="N"/><g id="b"><use transform="matrix(0.008680555555555556,0,0,0.008680555555555556,0,0)" xlink:href="#I"/><use transform="matrix(0.008680555555555556,0,0,0.008680555555555556,13.012152777777779,0)" xlink:href="#J"/><use transform="matrix(0.008680555555555556,0,0,0.008680555555555556,24.21875,0)" xlink:href="#K"/><use transform="matrix(0.008680555555555556,0,0,0.008680555555555556,29.036458333333336,0)" xlink:href="#L"/><use transform="matrix(0.008680555555555556,0,0,0.008680555555555556,40.11284722222223,0)" xlink:href="#M"/><use transform="matrix(0.008680555555555556,0,0,0.008680555555555556,50.434027777777786,0)" xlink:href="#N"/></g><path fill="#333" d="M135 0v-1490h980v253H440v416h609v249H440V0H135" id="O"/><path fill="#333" d="M128 0v-1118h300V0H128zm150-1264c-91 0-165-68-165-154 0-85 74-154 165-154 90 0 165 69 165 154 0 86-75 154-165 154" id="P"/><path fill="#333" d="M633 22C291 22 81-200 81-553c0-345 210-579 537-579 292 0 525 185 525 567v84H378c7 183 109 277 260 277 105 0 184-46 216-132l272 51C1071-99 893 22 633 22zM380-669h474c-15-146-94-237-233-237-143 0-229 99-241 237" id="Q"/><g id="c"><use transform="matrix(0.008680555555555556,0,0,0.008680555555555556,0,0)" xlink:href="#O"/><use transform="matrix(0.008680555555555556,0,0,0.008680555555555556,10.434027777777779,0)" xlink:href="#P"/><use transform="matrix(0.008680555555555556,0,0,0.008680555555555556,15.251736111111112,0)" xlink:href="#K"/><use transform="matrix(0.008680555555555556,0,0,0.008680555555555556,20.069444444444446,0)" xlink:href="#Q"/></g><path fill="#fff" d="M52 0l541-1490h220L1361 0h-200l-149-416H398L254 0H52zm404-582h497c-103-290-145-390-251-756-108 377-145 460-246 756" id="R"/><path fill="#fff" d="M598-1118v154H368v674c0 100 37 144 132 144 23 0 62-6 92-12L629-6c-37 13-88 20-134 20-193 0-307-107-307-290v-688H20v-154h168v-266h180v266h230" id="S"/><path fill="#fff" d="M613 24c-304 0-509-231-509-576 0-350 205-580 509-580 305 0 511 230 511 580 0 345-206 576-511 576zm0-161c226 0 329-195 329-415 0-222-103-419-329-419-223 0-326 196-326 419 0 220 103 415 326 415" id="T"/><path fill="#fff" d="M158 0v-1118h175l1 205c55-151 181-225 313-225 147 0 245 90 285 228 53-141 190-228 352-228 194 0 352 125 352 384V0h-181v-749c0-161-105-225-225-225-151 0-243 103-243 244V0H807v-767c0-124-93-207-219-207-131 0-250 92-250 270V0H158" id="U"/><path fill="#fff" d="M158 0v-1118h180V0H158zm91-1301c-68 0-125-53-125-119s57-119 125-119c69 0 126 53 126 119s-57 119-126 119" id="V"/><path fill="#fff" d="M613 24c-304 0-509-231-509-576 0-350 205-580 509-580 216 0 392 114 453 309l-173 49c-33-115-133-197-280-197-223 0-326 196-326 419 0 220 103 415 326 415 150 0 252-85 285-206l172 49C1010-95 832 24 613 24" id="W"/><g id="d"><use transform="matrix(0.01193576388888889,0,0,0.01193576388888889,0,0)" xlink:href="#R"/><use transform="matrix(0.01193576388888889,0,0,0.01193576388888889,16.387803819444443,0)" xlink:href="#S"/><use transform="matrix(0.01193576388888889,0,0,0.01193576388888889,24.14605034722222,0)" xlink:href="#T"/><use transform="matrix(0.01193576388888889,0,0,0.01193576388888889,38.80316840277778,0)" xlink:href="#U"/><use transform="matrix(0.01193576388888889,0,0,0.01193576388888889,60.215928819444436,0)" xlink:href="#V"/><use transform="matrix(0.01193576388888889,0,0,0.01193576388888889,66.13606770833333,0)" xlink:href="#W"/></g><path fill="#fff" d="M657 26c-323 0-524-166-541-416h195c15 169 171 246 346 246 202 0 356-106 356-265 5-203-294-238-475-293-239-73-380-191-380-389 0-252 224-419 512-419 294 0 499 171 508 396H992c-17-145-151-228-328-228-193 0-321 102-321 242 0 156 175 211 284 241l149 41c160 44 422 134 422 412 0 244-197 432-541 432" id="X"/><path fill="#fff" d="M409 0L70-1118h191c89 329 165 560 243 925 75-353 154-601 240-925h192c85 325 161 564 235 922 77-354 157-598 244-922h191L1267 0h-179c-86-307-176-590-250-913C763-588 675-308 588 0H409" id="Y"/><path fill="#fff" d="M471 26C259 26 90-98 90-318c0-256 228-303 435-329 202-27 287-16 287-108 0-139-79-219-234-219-161 0-248 86-283 164l-173-57c86-203 278-265 451-265 150 0 419 46 419 395V0H815v-152h-12C765-73 660 26 471 26zm31-159c199 0 310-134 310-271v-155c-30 35-226 55-295 64-131 17-246 59-246 186 0 116 97 176 231 176" id="Z"/><path fill="#fff" d="M158 418v-1536h174v179h20c37-59 106-193 324-193 279 0 474 222 474 576 0 356-194 580-473 580-213 0-288-135-325-197h-14v591H158zm492-555c209 0 317-186 317-421 0-232-105-413-317-413-206 0-314 166-314 413 0 249 111 421 314 421" id="aa"/><g id="e"><use transform="matrix(0.01193576388888889,0,0,0.01193576388888889,0,0)" xlink:href="#X"/><use transform="matrix(0.01193576388888889,0,0,0.01193576388888889,15.683593750000002,0)" xlink:href="#Y"/><use transform="matrix(0.01193576388888889,0,0,0.01193576388888889,35.68793402777778,0)" xlink:href="#Z"/><use transform="matrix(0.01193576388888889,0,0,0.01193576388888889,49.41406250000001,0)" xlink:href="#aa"/></g><path d="M180 0v-1490h528c311 0 458 177 458 395 0 191-114 278-244 313v14c139 9 302 137 302 371 0 225-148 397-499 397H180zm190-168h350c232 0 321-102 321-231 0-149-120-277-311-277H370v508zm0-668h328c160 0 286-101 286-255 0-129-87-231-280-231H370v486" id="ab"/><path d="M158 0v-1118h180V0H158zm91-1301c-68 0-125-53-125-119s57-119 125-119c69 0 126 53 126 119s-57 119-126 119" id="ac"/><path d="M598-1118v154H368v674c0 100 37 144 132 144 23 0 62-6 92-12L629-6c-37 13-88 20-134 20-193 0-307-107-307-290v-688H20v-154h168v-266h180v266h230" id="ad"/><path d="M613 24c-304 0-509-231-509-576 0-350 205-580 509-580 216 0 392 114 453 309l-173 49c-33-115-133-197-280-197-223 0-326 196-326 419 0 220 103 415 326 415 150 0 252-85 285-206l172 49C1010-95 832 24 613 24" id="ae"/><path d="M613 24c-304 0-509-231-509-576 0-350 205-580 509-580 305 0 511 230 511 580 0 345-206 576-511 576zm0-161c226 0 329-195 329-415 0-222-103-419-329-419-223 0-326 196-326 419 0 220 103 415 326 415" id="af"/><path d="M338-670V0H158v-1118h173l1 207c72-158 192-221 342-221 226 0 378 139 378 422V0H872v-695c0-172-96-275-252-275-161 0-282 109-282 300" id="ag"/><g id="f"><use transform="matrix(0.01193576388888889,0,0,0.01193576388888889,0,0)" xlink:href="#ab"/><use transform="matrix(0.01193576388888889,0,0,0.01193576388888889,15.993923611111112,0)" xlink:href="#ac"/><use transform="matrix(0.01193576388888889,0,0,0.01193576388888889,21.9140625,0)" xlink:href="#ad"/><use transform="matrix(0.01193576388888889,0,0,0.01193576388888889,29.67230902777778,0)" xlink:href="#ae"/><use transform="matrix(0.01193576388888889,0,0,0.01193576388888889,43.63715277777778,0)" xlink:href="#af"/><use transform="matrix(0.01193576388888889,0,0,0.01193576388888889,58.294270833333336,0)" xlink:href="#ac"/><use transform="matrix(0.01193576388888889,0,0,0.01193576388888889,64.21440972222223,0)" xlink:href="#ag"/></g><path d="M338-1490V0H158v-1490h180" id="ah"/><path d="M158 0v-1490h180v865h22l478-493h223L593-638 1096 0H865L456-523 338-412V0H158" id="ai"/><path d="M338-670V0H158v-1490h180v566c73-149 190-208 336-208 226 0 379 139 379 422V0H872v-695c0-172-96-275-252-275-161 0-282 109-282 300" id="aj"/><path d="M471 26C259 26 90-98 90-318c0-256 228-303 435-329 202-27 287-16 287-108 0-139-79-219-234-219-161 0-248 86-283 164l-173-57c86-203 278-265 451-265 150 0 419 46 419 395V0H815v-152h-12C765-73 660 26 471 26zm31-159c199 0 310-134 310-271v-155c-30 35-226 55-295 64-131 17-246 59-246 186 0 116 97 176 231 176" id="ak"/><g id="g"><use transform="matrix(0.01193576388888889,0,0,0.01193576388888889,0,0)" xlink:href="#ab"/><use transform="matrix(0.01193576388888889,0,0,0.01193576388888889,15.993923611111112,0)" xlink:href="#ah"/><use transform="matrix(0.01193576388888889,0,0,0.01193576388888889,21.9140625,0)" xlink:href="#af"/><use transform="matrix(0.01193576388888889,0,0,0.01193576388888889,36.57118055555556,0)" xlink:href="#ae"/><use transform="matrix(0.01193576388888889,0,0,0.01193576388888889,50.53602430555556,0)" xlink:href="#ai"/><use transform="matrix(0.01193576388888889,0,0,0.01193576388888889,63.402777777777786,0)" xlink:href="#ae"/><use transform="matrix(0.01193576388888889,0,0,0.01193576388888889,77.36762152777779,0)" xlink:href="#aj"/><use transform="matrix(0.01193576388888889,0,0,0.01193576388888889,91.82183159722223,0)" xlink:href="#ak"/><use transform="matrix(0.01193576388888889,0,0,0.01193576388888889,105.54796006944446,0)" xlink:href="#ac"/><use transform="matrix(0.01193576388888889,0,0,0.01193576388888889,111.46809895833334,0)" xlink:href="#ag"/></g><path d="M750 21c-371 0-615-218-615-544v-967h305v942c0 174 123 299 310 299s309-125 309-299v-942h306v967c0 326-247 544-615 544" id="al"/><path d="M572 22C302 22 117-98 78-306l279-48c29 105 101 156 224 156 114 0 185-48 185-115 0-118-228-130-337-155-215-49-322-150-322-317 0-215 187-347 470-347 265 0 424 116 466 298l-266 47c-24-76-87-130-196-130-98 0-174 46-174 113 0 56 38 95 144 117l201 40c216 44 320 143 320 302 0 220-207 367-500 367" id="am"/><path d="M633 22C291 22 81-200 81-553c0-345 210-579 537-579 292 0 525 185 525 567v84H378c7 183 109 277 260 277 105 0 184-46 216-132l272 51C1071-99 893 22 633 22zM380-669h474c-15-146-94-237-233-237-143 0-229 99-241 237" id="an"/><path d="M128 0v-1118h290v195h12c54-169 184-238 367-200v268c-27-8-86-15-130-15-138 0-239 95-239 234V0H128" id="ao"/><g id="h"><use transform="matrix(0.01193576388888889,0,0,0.01193576388888889,0,0)" xlink:href="#al"/><use transform="matrix(0.01193576388888889,0,0,0.01193576388888889,17.891710069444446,0)" xlink:href="#am"/><use transform="matrix(0.01193576388888889,0,0,0.01193576388888889,31.582031250000004,0)" xlink:href="#an"/><use transform="matrix(0.01193576388888889,0,0,0.01193576388888889,46.14366319444445,0)" xlink:href="#ao"/></g><path fill="#333" d="M124 0v-220l528-495c135-132 210-216 210-336 0-133-98-215-231-215-139 0-229 88-229 233H110c0-290 214-477 523-477 315 0 525 182 525 440 0 167-80 305-385 586L548-262v11h630V0H124" id="ap"/><g id="i"><use transform="matrix(0.008680555555555556,0,0,0.008680555555555556,0,0)" xlink:href="#ap"/><use transform="matrix(0.008680555555555556,0,0,0.008680555555555556,11.197916666666668,0)" xlink:href="#H"/></g><path fill="#333" d="M135 0v-1490h581c339 0 533 192 533 485 0 204-94 351-264 424L1302 0H964L680-532H440V0H135zm305-779h220c186 0 274-77 274-226 0-150-88-233-275-233H440v459" id="aq"/><path fill="#333" d="M628 22C291 22 81-210 81-554c0-346 210-578 547-578 265 0 455 142 497 372l-279 52c-25-116-99-188-215-188-160 0-244 139-244 341 0 200 84 341 244 341 116 0 193-74 217-195l279 51C1085-123 896 22 628 22" id="ar"/><path fill="#333" d="M443 0L31-1118h319c90 293 199 572 268 885 66-313 175-593 264-885h315L784 0H443" id="as"/><g id="j"><use transform="matrix(0.008680555555555556,0,0,0.008680555555555556,0,0)" xlink:href="#aq"/><use transform="matrix(0.008680555555555556,0,0,0.008680555555555556,11.458333333333334,0)" xlink:href="#Q"/><use transform="matrix(0.008680555555555556,0,0,0.008680555555555556,22.048611111111114,0)" xlink:href="#ar"/><use transform="matrix(0.008680555555555556,0,0,0.008680555555555556,32.50868055555556,0)" xlink:href="#Q"/><use transform="matrix(0.008680555555555556,0,0,0.008680555555555556,43.098958333333336,0)" xlink:href="#P"/><use transform="matrix(0.008680555555555556,0,0,0.008680555555555556,47.91666666666667,0)" xlink:href="#as"/><use transform="matrix(0.008680555555555556,0,0,0.008680555555555556,58.255208333333336,0)" xlink:href="#Q"/></g><path fill="#333" d="M135 0v-1490h305c1 251 0 501-5 746 157-254 405-512 598-746h373L849-845 1422 0h-361L638-644 440-426V0H135" id="at"/><path fill="#333" d="M789 20C394 20 94-260 94-744c0-487 300-766 695-766s695 279 695 766c0 485-300 764-695 764zm0-271c231 0 385-174 385-493 0-321-154-495-385-495s-385 175-385 495c0 319 154 493 385 493" id="au"/><g id="k"><use transform="matrix(0.008680555555555556,0,0,0.008680555555555556,0,0)" xlink:href="#at"/><use transform="matrix(0.008680555555555556,0,0,0.008680555555555556,12.074652777777779,0)" xlink:href="#au"/><use transform="matrix(0.008680555555555556,0,0,0.008680555555555556,25.772569444444446,0)" xlink:href="#aq"/></g><path fill="#333" d="M749-1490V0H444v-1221h-10L93-980v-279l329-231h327" id="av"/><g id="l"><use transform="matrix(0.008680555555555556,0,0,0.008680555555555556,0,0)" xlink:href="#av"/><use transform="matrix(0.008680555555555556,0,0,0.008680555555555556,7.664930555555556,0)" xlink:href="#H"/></g><path fill="#333" d="M681 22C323 22 94-145 85-462h297c10 151 131 226 296 226 163 0 271-77 271-190 0-102-95-149-257-189l-164-41c-252-61-403-188-403-405 0-269 236-449 560-449 330 0 546 183 551 445H941c-11-119-106-188-259-188-156 0-244 72-244 172-3 156 226 185 373 221 250 61 445 186 445 436 0 271-213 446-575 446" id="aw"/><g id="m"><use transform="matrix(0.008680555555555556,0,0,0.008680555555555556,0,0)" xlink:href="#aw"/><use transform="matrix(0.008680555555555556,0,0,0.008680555555555556,11.640625,0)" xlink:href="#Q"/><use transform="matrix(0.008680555555555556,0,0,0.008680555555555556,22.23090277777778,0)" xlink:href="#K"/><use transform="matrix(0.008680555555555556,0,0,0.008680555555555556,27.04861111111111,0)" xlink:href="#K"/></g><path fill="#333" d="M135 0v-1490h591c327 0 492 160 492 383 0 177-115 286-268 320v15c168 8 326 140 326 361 0 236-176 411-512 411H135zm305-251h264c179 0 258-76 258-189 0-125-97-215-250-215H440v404zm0-613h241c131 0 228-74 228-194 0-109-79-183-222-183H440v377" id="ax"/><path fill="#333" d="M75-1237v-253h1217v253H837V0H531v-1237H75" id="ay"/><path fill="#333" d="M786 20C389 20 94-260 94-744c0-487 299-766 692-766 339 0 597 194 641 529h-309c-28-162-156-258-326-258-233 0-388 179-388 495 0 323 157 493 387 493 170 0 298-97 328-259h309c-34 277-266 530-642 530" id="az"/><g id="n"><use transform="matrix(0.008680555555555556,0,0,0.008680555555555556,0,0)" xlink:href="#ax"/><use transform="matrix(0.008680555555555556,0,0,0.008680555555555556,10.755208333333334,0)" xlink:href="#ay"/><use transform="matrix(0.008680555555555556,0,0,0.008680555555555556,22.057291666666668,0)" xlink:href="#az"/></g><path fill="#fff" d="M158 0v-1118h174v172h12c41-113 157-188 290-188 26 0 70 2 91 3v181c-11-2-60-10-108-10-161 0-279 109-279 260V0H158" id="aA"/><path fill="#fff" d="M611 442c-248 0-391-105-460-228l146-94c47 65 117 165 314 165 178 0 307-82 307-266v-224h-17C863-141 792-18 576-18c-268 0-472-195-472-546 0-346 197-568 476-568 216 0 288 133 326 193h17v-179h175V29c0 289-215 413-487 413zm-5-620c203 0 314-146 314-390 0-237-108-403-314-403-213 0-319 180-319 403 0 230 109 390 319 390" id="aB"/><path fill="#fff" d="M628 24c-324 0-524-230-524-574 0-343 198-582 503-582 237 0 487 146 487 559v75H286c9 234 145 362 343 362 132 0 231-58 273-172l174 48C1024-91 857 24 628 24zM287-650h624c-17-190-120-322-304-322-192 0-309 151-320 322" id="aC"/><g id="o"><use transform="matrix(0.01193576388888889,0,0,0.01193576388888889,0,0)" xlink:href="#X"/><use transform="matrix(0.01193576388888889,0,0,0.01193576388888889,15.683593750000002,0)" xlink:href="#S"/><use transform="matrix(0.01193576388888889,0,0,0.01193576388888889,23.44184027777778,0)" xlink:href="#T"/><use transform="matrix(0.01193576388888889,0,0,0.01193576388888889,38.098958333333336,0)" xlink:href="#aA"/><use transform="matrix(0.01193576388888889,0,0,0.01193576388888889,47.30143229166667,0)" xlink:href="#Z"/><use transform="matrix(0.01193576388888889,0,0,0.01193576388888889,61.02756076388889,0)" xlink:href="#aB"/><use transform="matrix(0.01193576388888889,0,0,0.01193576388888889,76.01888020833334,0)" xlink:href="#aC"/></g><path fill="#fff" d="M338-670V0H158v-1118h173l1 207c72-158 192-221 342-221 226 0 378 139 378 422V0H872v-695c0-172-96-275-252-275-161 0-282 109-282 300" id="aD"/><g id="p"><use transform="matrix(0.01193576388888889,0,0,0.01193576388888889,0,0)" xlink:href="#R"/><use transform="matrix(0.01193576388888889,0,0,0.01193576388888889,16.865234375,0)" xlink:href="#aB"/><use transform="matrix(0.01193576388888889,0,0,0.01193576388888889,31.856553819444446,0)" xlink:href="#aA"/><use transform="matrix(0.01193576388888889,0,0,0.01193576388888889,40.65321180555556,0)" xlink:href="#aC"/><use transform="matrix(0.01193576388888889,0,0,0.01193576388888889,54.90451388888889,0)" xlink:href="#aC"/><use transform="matrix(0.01193576388888889,0,0,0.01193576388888889,69.15581597222223,0)" xlink:href="#U"/><use transform="matrix(0.01193576388888889,0,0,0.01193576388888889,90.5685763888889,0)" xlink:href="#aC"/><use transform="matrix(0.01193576388888889,0,0,0.01193576388888889,104.81987847222223,0)" xlink:href="#aD"/><use transform="matrix(0.01193576388888889,0,0,0.01193576388888889,119.26215277777779,0)" xlink:href="#S"/></g><path fill="#333" d="M684 20C381 20 94-164 94-710c0-501 235-800 601-800 293 0 496 188 526 433H921c-25-105-108-170-226-170-197 0-301 182-301 476h10c67-130 211-208 374-208 263 0 459 201 459 481 0 301-224 518-553 518zm-2-242c147 0 258-116 258-268 0-150-108-266-256-266-146 0-259 121-259 267 0 147 109 267 257 267" id="aE"/><g id="q"><use transform="matrix(0.008680555555555556,0,0,0.008680555555555556,0,0)" xlink:href="#aE"/><use transform="matrix(0.008680555555555556,0,0,0.008680555555555556,11.015625,0)" xlink:href="#H"/></g><path fill="#333" d="M128 0v-1118h290v195h12c54-169 184-238 367-200v268c-27-8-86-15-130-15-138 0-239 95-239 234V0H128" id="aF"/><path fill="#333" d="M683-1118v229H474v562c0 71 29 104 102 104 23 0 73-7 95-13l43 225C647 9 580 16 520 16 296 16 174-96 174-301v-588H20v-229h154v-266h300v266h209" id="aG"/><g id="r"><use transform="matrix(0.008680555555555556,0,0,0.008680555555555556,0,0)" xlink:href="#az"/><use transform="matrix(0.008680555555555556,0,0,0.008680555555555556,13.151041666666668,0)" xlink:href="#aF"/><use transform="matrix(0.008680555555555556,0,0,0.008680555555555556,19.95659722222222,0)" xlink:href="#Q"/><use transform="matrix(0.008680555555555556,0,0,0.008680555555555556,30.72048611111111,0)" xlink:href="#M"/><use transform="matrix(0.008680555555555556,0,0,0.008680555555555556,41.04166666666666,0)" xlink:href="#aG"/><use transform="matrix(0.008680555555555556,0,0,0.008680555555555556,47.378472222222214,0)" xlink:href="#Q"/></g><path fill="#333" d="M625 442c-280 0-454-114-503-274l258-72c28 63 97 128 243 128 153 0 246-69 246-216v-206h-23C805-108 717-16 536-16 284-16 81-191 81-561c0-378 208-571 456-571 188 0 280 113 321 202h13v-188h295V-9c0 303-226 451-541 451zm5-686c153 0 240-119 240-319 0-198-86-329-240-329-158 0-241 137-241 329 0 195 85 319 241 319" id="aH"/><g id="s"><use transform="matrix(0.008680555555555556,0,0,0.008680555555555556,0,0)" xlink:href="#aw"/><use transform="matrix(0.008680555555555556,0,0,0.008680555555555556,11.640625,0)" xlink:href="#aG"/><use transform="matrix(0.008680555555555556,0,0,0.008680555555555556,17.977430555555557,0)" xlink:href="#L"/><use transform="matrix(0.008680555555555556,0,0,0.008680555555555556,28.880208333333336,0)" xlink:href="#aF"/><use transform="matrix(0.008680555555555556,0,0,0.008680555555555556,35.876736111111114,0)" xlink:href="#M"/><use transform="matrix(0.008680555555555556,0,0,0.008680555555555556,46.19791666666667,0)" xlink:href="#aH"/><use transform="matrix(0.008680555555555556,0,0,0.008680555555555556,57.43055555555556,0)" xlink:href="#Q"/></g><path fill="#333" d="M49 0l509-1490h400L1480 0h-339l-115-346H497L386 0H49zm524-585h374c-75-213-124-402-192-666-66 268-110 453-182 666" id="aI"/><path fill="#333" d="M128 0v-1118h278l12 217c60-163 185-234 319-234 143 0 236 81 288 251 63-172 205-251 359-251 205 0 357 138 357 381V0h-301v-697c0-126-76-187-177-187-114 0-184 79-184 196V0H789v-705c0-109-72-179-174-179-106 0-187 74-187 208V0H128" id="aJ"/><path fill="#333" d="M428-647V0H128v-1118h283l4 231c63-156 176-245 348-245 232 0 384 159 384 421V0H847v-659c0-139-76-222-202-222-128 0-217 86-217 234" id="aK"/><g id="t"><use transform="matrix(0.008680555555555556,0,0,0.008680555555555556,0,0)" xlink:href="#aI"/><use transform="matrix(0.008680555555555556,0,0,0.008680555555555556,12.864583333333334,0)" xlink:href="#aH"/><use transform="matrix(0.008680555555555556,0,0,0.008680555555555556,24.097222222222225,0)" xlink:href="#aF"/><use transform="matrix(0.008680555555555556,0,0,0.008680555555555556,30.90277777777778,0)" xlink:href="#Q"/><use transform="matrix(0.008680555555555556,0,0,0.008680555555555556,41.49305555555556,0)" xlink:href="#Q"/><use transform="matrix(0.008680555555555556,0,0,0.008680555555555556,52.083333333333336,0)" xlink:href="#aJ"/><use transform="matrix(0.008680555555555556,0,0,0.008680555555555556,68.30729166666667,0)" xlink:href="#Q"/><use transform="matrix(0.008680555555555556,0,0,0.008680555555555556,78.89756944444446,0)" xlink:href="#aK"/><use transform="matrix(0.008680555555555556,0,0,0.008680555555555556,89.96527777777779,0)" xlink:href="#aG"/></g><path fill="#fff" d="M180 0v-1490h190c0 262 1 526-3 784 217-279 467-523 702-784h249L716-845 1319 0h-225L585-716 370-489V0H180" id="aL"/><g id="u"><use transform="matrix(0.01193576388888889,0,0,0.01193576388888889,0,0)" xlink:href="#aL"/><use transform="matrix(0.01193576388888889,0,0,0.01193576388888889,15.456814236111109,0)" xlink:href="#T"/><use transform="matrix(0.01193576388888889,0,0,0.01193576388888889,30.113932291666668,0)" xlink:href="#aD"/><use transform="matrix(0.01193576388888889,0,0,0.01193576388888889,44.55620659722223,0)" xlink:href="#S"/><use transform="matrix(0.01193576388888889,0,0,0.01193576388888889,52.31445312500001,0)" xlink:href="#T"/><use transform="matrix(0.01193576388888889,0,0,0.01193576388888889,66.97157118055557,0)" xlink:href="#aA"/></g><g id="v"><use transform="matrix(0.01193576388888889,0,0,0.01193576388888889,0,0)" xlink:href="#X"/><use transform="matrix(0.01193576388888889,0,0,0.01193576388888889,15.683593750000002,0)" xlink:href="#S"/><use transform="matrix(0.01193576388888889,0,0,0.01193576388888889,23.44184027777778,0)" xlink:href="#T"/><use transform="matrix(0.01193576388888889,0,0,0.01193576388888889,38.098958333333336,0)" xlink:href="#aA"/><use transform="matrix(0.01193576388888889,0,0,0.01193576388888889,47.30143229166667,0)" xlink:href="#Z"/><use transform="matrix(0.01193576388888889,0,0,0.01193576388888889,61.02756076388889,0)" xlink:href="#aB"/><use transform="matrix(0.01193576388888889,0,0,0.01193576388888889,76.01888020833334,0)" xlink:href="#aC"/></g><path fill="#fff" d="M180 0v-1490h224l606 953c40 63 108 177 176 312-27-437-7-821-13-1265h190V0h-226C860-448 622-778 356-1262c27 476 11 792 15 1262H180" id="aM"/><path fill="#fff" d="M577 24c-279 0-473-224-473-580 0-354 195-576 474-576 218 0 287 134 324 193h14v-551h180V0H922v-173h-20C865-111 790 24 577 24zm27-161c203 0 314-172 314-421 0-247-108-413-314-413-212 0-317 181-317 413 0 235 108 421 317 421" id="aN"/><path fill="#fff" d="M538 24C308 24 148-78 108-271l171-41c32 123 123 178 257 178 156 0 256-77 256-169 0-77-54-128-164-154l-186-44c-203-48-300-148-300-305 0-192 176-326 414-326 230 0 351 112 402 269l-163 42c-31-80-94-158-238-158-133 0-233 69-233 162 0 83 57 129 188 160l169 40c203 48 298 149 298 302 0 196-179 339-441 339" id="aO"/><g id="w"><use transform="matrix(0.01193576388888889,0,0,0.01193576388888889,0,0)" xlink:href="#aM"/><use transform="matrix(0.01193576388888889,0,0,0.01193576388888889,18.416883680555557,0)" xlink:href="#T"/><use transform="matrix(0.01193576388888889,0,0,0.01193576388888889,33.074001736111114,0)" xlink:href="#aN"/><use transform="matrix(0.01193576388888889,0,0,0.01193576388888889,48.041449652777786,0)" xlink:href="#aC"/><use transform="matrix(0.01193576388888889,0,0,0.01193576388888889,62.292751736111114,0)" xlink:href="#aO"/></g><path fill="#333" d="M177 0l620-1228v-10H75v-252h1041v256L494 0H177" id="aP"/><g id="x"><use transform="matrix(0.008680555555555556,0,0,0.008680555555555556,0,0)" xlink:href="#aP"/><use transform="matrix(0.008680555555555556,0,0,0.008680555555555556,8.116319444444446,0)" xlink:href="#H"/></g><g id="y"><use transform="matrix(0.008680555555555556,0,0,0.008680555555555556,0,0)" xlink:href="#aw"/><use transform="matrix(0.008680555555555556,0,0,0.008680555555555556,11.640625,0)" xlink:href="#P"/><use transform="matrix(0.008680555555555556,0,0,0.008680555555555556,16.458333333333336,0)" xlink:href="#aH"/><use transform="matrix(0.008680555555555556,0,0,0.008680555555555556,27.690972222222225,0)" xlink:href="#aK"/></g><path d="M784 20c-382 0-662-292-662-764 0-473 280-766 662-766s660 293 660 766c0 472-278 764-660 764zm0-176c266 0 475-207 475-588 0-383-209-590-475-590-268 0-477 208-477 590 0 380 209 588 477 588" id="aQ"/><path d="M158 0v-1118h174v172h12c41-113 157-188 290-188 26 0 70 2 91 3v181c-11-2-60-10-108-10-161 0-279 109-279 260V0H158" id="aR"/><path d="M577 24c-279 0-473-224-473-580 0-354 195-576 474-576 218 0 287 134 324 193h14v-551h180V0H922v-173h-20C865-111 790 24 577 24zm27-161c203 0 314-172 314-421 0-247-108-413-314-413-212 0-317 181-317 413 0 235 108 421 317 421" id="aS"/><g id="z"><use transform="matrix(0.01193576388888889,0,0,0.01193576388888889,0,0)" xlink:href="#aQ"/><use transform="matrix(0.01193576388888889,0,0,0.01193576388888889,18.69140625,0)" xlink:href="#aR"/><use transform="matrix(0.01193576388888889,0,0,0.01193576388888889,27.488064236111114,0)" xlink:href="#aS"/><use transform="matrix(0.01193576388888889,0,0,0.01193576388888889,42.455512152777786,0)" xlink:href="#ac"/><use transform="matrix(0.01193576388888889,0,0,0.01193576388888889,48.37565104166667,0)" xlink:href="#ag"/><use transform="matrix(0.01193576388888889,0,0,0.01193576388888889,62.81792534722223,0)" xlink:href="#ak"/><use transform="matrix(0.01193576388888889,0,0,0.01193576388888889,76.54405381944446,0)" xlink:href="#ah"/></g><path d="M370-1490V0H180v-1490h190" id="aT"/><path d="M538 24C308 24 148-78 108-271l171-41c32 123 123 178 257 178 156 0 256-77 256-169 0-77-54-128-164-154l-186-44c-203-48-300-148-300-305 0-192 176-326 414-326 230 0 351 112 402 269l-163 42c-31-80-94-158-238-158-133 0-233 69-233 162 0 83 57 129 188 160l169 40c203 48 298 149 298 302 0 196-179 339-441 339" id="aU"/><path d="M158 418v-1536h174v179h20c37-59 106-193 324-193 279 0 474 222 474 576 0 356-194 580-473 580-213 0-288-135-325-197h-14v591H158zm492-555c209 0 317-186 317-421 0-232-105-413-317-413-206 0-314 166-314 413 0 249 111 421 314 421" id="aV"/><g id="A"><use transform="matrix(0.01193576388888889,0,0,0.01193576388888889,0,0)" xlink:href="#aT"/><use transform="matrix(0.01193576388888889,0,0,0.01193576388888889,6.564670138888889,0)" xlink:href="#ag"/><use transform="matrix(0.01193576388888889,0,0,0.01193576388888889,21.006944444444446,0)" xlink:href="#aU"/><use transform="matrix(0.01193576388888889,0,0,0.01193576388888889,33.909505208333336,0)" xlink:href="#ae"/><use transform="matrix(0.01193576388888889,0,0,0.01193576388888889,47.874348958333336,0)" xlink:href="#aR"/><use transform="matrix(0.01193576388888889,0,0,0.01193576388888889,57.458767361111114,0)" xlink:href="#ac"/><use transform="matrix(0.01193576388888889,0,0,0.01193576388888889,63.37890625000001,0)" xlink:href="#aV"/><use transform="matrix(0.01193576388888889,0,0,0.01193576388888889,78.34635416666667,0)" xlink:href="#ad"/><use transform="matrix(0.01193576388888889,0,0,0.01193576388888889,86.34331597222223,0)" xlink:href="#ac"/><use transform="matrix(0.01193576388888889,0,0,0.01193576388888889,92.26345486111111,0)" xlink:href="#af"/><use transform="matrix(0.01193576388888889,0,0,0.01193576388888889,106.92057291666667,0)" xlink:href="#ag"/></g><path fill="#333" d="M101-265v-241l623-984h383v979h186v246h-186V0H814v-265H101zm719-246v-643h-12L409-523v12h411" id="aW"/><g id="B"><use transform="matrix(0.008680555555555556,0,0,0.008680555555555556,0,0)" xlink:href="#aW"/><use transform="matrix(0.008680555555555556,0,0,0.008680555555555556,11.423611111111112,0)" xlink:href="#H"/></g><path fill="#333" d="M440-1490V0H135v-1490h305" id="aX"/><path fill="#333" d="M572 22C302 22 117-98 78-306l279-48c29 105 101 156 224 156 114 0 185-48 185-115 0-118-228-130-337-155-215-49-322-150-322-317 0-215 187-347 470-347 265 0 424 116 466 298l-266 47c-24-76-87-130-196-130-98 0-174 46-174 113 0 56 38 95 144 117l201 40c216 44 320 143 320 302 0 220-207 367-500 367" id="aY"/><g id="C"><use transform="matrix(0.008680555555555556,0,0,0.008680555555555556,0,0)" xlink:href="#aX"/><use transform="matrix(0.008680555555555556,0,0,0.008680555555555556,4.991319444444445,0)" xlink:href="#aK"/><use transform="matrix(0.008680555555555556,0,0,0.008680555555555556,16.05902777777778,0)" xlink:href="#aY"/><use transform="matrix(0.008680555555555556,0,0,0.008680555555555556,26.015625,0)" xlink:href="#ar"/><use transform="matrix(0.008680555555555556,0,0,0.008680555555555556,36.47569444444444,0)" xlink:href="#aF"/><use transform="matrix(0.008680555555555556,0,0,0.008680555555555556,43.845486111111114,0)" xlink:href="#P"/><use transform="matrix(0.008680555555555556,0,0,0.008680555555555556,48.66319444444445,0)" xlink:href="#J"/><use transform="matrix(0.008680555555555556,0,0,0.008680555555555556,59.86979166666667,0)" xlink:href="#aG"/><use transform="matrix(0.008680555555555556,0,0,0.008680555555555556,66.38020833333334,0)" xlink:href="#P"/><use transform="matrix(0.008680555555555556,0,0,0.008680555555555556,71.19791666666667,0)" xlink:href="#L"/><use transform="matrix(0.008680555555555556,0,0,0.008680555555555556,82.10069444444446,0)" xlink:href="#aK"/></g><path fill="#333" d="M659 20C335 20 103-159 99-418h307c5 112 113 185 254 185 147 0 250-83 250-204 0-123-105-209-278-209H494v-227h138c145 0 246-81 246-200 0-115-87-193-216-193-130 0-237 73-240 189H128c4-255 233-433 536-433 306 0 510 185 510 418 0 167-114 285-279 317v11c217 29 333 162 333 347 0 254-237 437-569 437" id="aZ"/><g id="D"><use transform="matrix(0.008680555555555556,0,0,0.008680555555555556,0,0)" xlink:href="#aZ"/><use transform="matrix(0.008680555555555556,0,0,0.008680555555555556,11.102430555555555,0)" xlink:href="#H"/></g><path fill="#333" d="M135 0v-1490h581c339 0 533 210 533 503 0 295-197 500-540 500H440V0H135zm305-733h220c186 0 274-104 274-254s-88-251-275-251H440v505" id="ba"/><g id="E"><use transform="matrix(0.008680555555555556,0,0,0.008680555555555556,0,0)" xlink:href="#ba"/><use transform="matrix(0.008680555555555556,0,0,0.008680555555555556,11.519097222222223,0)" xlink:href="#aF"/><use transform="matrix(0.008680555555555556,0,0,0.008680555555555556,18.32465277777778,0)" xlink:href="#Q"/><use transform="matrix(0.008680555555555556,0,0,0.008680555555555556,28.914930555555557,0)" xlink:href="#J"/><use transform="matrix(0.008680555555555556,0,0,0.008680555555555556,40.29513888888889,0)" xlink:href="#M"/><use transform="matrix(0.008680555555555556,0,0,0.008680555555555556,50.61631944444445,0)" xlink:href="#aF"/><use transform="matrix(0.008680555555555556,0,0,0.008680555555555556,57.42187500000001,0)" xlink:href="#Q"/></g><g id="F"><use transform="matrix(0.008680555555555556,0,0,0.008680555555555556,0,0)" xlink:href="#O"/><use transform="matrix(0.008680555555555556,0,0,0.008680555555555556,10.434027777777779,0)" xlink:href="#P"/><use transform="matrix(0.008680555555555556,0,0,0.008680555555555556,15.251736111111112,0)" xlink:href="#K"/><use transform="matrix(0.008680555555555556,0,0,0.008680555555555556,20.069444444444446,0)" xlink:href="#Q"/></g></defs></g></svg>