<svg xmlns="http://www.w3.org/2000/svg" xmlns:xlink="http://www.w3.org/1999/xlink" xmlns:lucid="lucid" width="2880" height="1380.5"><g transform="translate(-720.0000000000005 100)" lucid:page-tab-id="L1ajvD7hoPq8"><path d="M500-500h3500v2000H500z" fill="#fff"/><path d="M2771.5 60h600v319.1h-600z" fill-opacity="0"/><path d="M2781.5 60h10m5 0h10m5 0h10m5 0h10m5 0h10m5 0h10m5 0h10m5 0h10m5 0h10m5 0h10m5 0h10m5 0h10m5 0h10m5 0h10m5 0h10m5 0h10m5 0h10m5 0h10m5 0h10m5 0h10m5 0h10m5 0h10m5 0h10m5 0h10m5 0h10m5 0h10m5 0h10m5 0h10m5 0h10m5 0h10m5 0h10m5 0h10m5 0h10m5 0h10m5 0h10m5 0h10m5 0h10m5 0h10m5 0h10m5 0h5v5.06m0 5.07v10.13m0 5.07v10.13m0 5.06v10.13m0 5.07v10.13m0 5.06v10.14m0 5.07v10.14m0 5.07v10.14m0 5.06v10.13m0 5.07v10.13m0 5.06V217m0 5.07v10.12m0 5.06v10.14m0 5.06v10.13m0 5.08v10.13m0 5.07V293m0 5.07v10.13m0 5.06v10.13m0 5.06v10.13m0 5.06v10.13m0 5.05v10.13m0 5.07v5.06h-5m-5 0h-10m-5 0h-10m-5 0h-10m-5 0h-10m-5 0h-10m-5 0h-10m-5 0h-10m-5 0h-10m-5 0h-10m-5 0h-10m-5 0h-10m-5 0h-10m-5 0h-10m-5 0h-10m-5 0h-10m-5 0h-10m-5 0h-10m-5 0h-10m-5 0h-10m-5 0h-10m-5 0h-10m-5 0h-10m-5 0h-10m-5 0h-10m-5 0h-10m-5 0h-10m-5 0h-10m-5 0h-10m-5 0h-10m-5 0h-10m-5 0h-10m-5 0h-10m-5 0h-10m-5 0h-10m-5 0h-10m-5 0h-10m-5 0h-10m-5 0h-10m-5 0h-10m-5 0h-5v-5.05m0-5.07v-10.13m0-5.06v-10.14m0-5.07v-10.14m0-5.06v-10.13m0-5.07v-10.13m0-5.07v-10.13m0-5.06V267.7m0-5.07V252.5m0-5.06V237.3m0-5.08V222.1m0-5.08V206.9m0-5.07V191.7m0-5.07V176.5m0-5.06V161.3m0-5.06V146.1m0-5.06V130.9m0-5.05v-10.13m0-5.07v-10.13m0-5.06V85.33m0-5.07V70.13m0-5.06V60h5" stroke="#000" fill="none"/><path d="M3071.5 59.6v5.06m0 5.05v10.1m0 5.06v10.1m0 5.05v10.1m0 5.06v10.1m0 5.05v10.1m0 5.05v10.1m0 5.05v10.1m0 5.05v10.1m0 5.05V201m0 5.05v10.1m0 5.05v10.1m0 5.04v10.1m0 5.05v10.1m0 5.04v10.1m0 5.05v10.1m0 5.04v10.1m0 5.04v10.1m0 5.05v10.1m0 5.05v10.1m0 5.05v10.1m0 5.05v5.05" stroke="#000" stroke-linecap="round" fill="none"/><path d="M2772 26a6 6 0 0 1 6-6h288a6 6 0 0 1 6 6v28a6 6 0 0 1-6 6h-288a6 6 0 0 1-6-6z" fill="none"/><use xlink:href="#a" transform="matrix(1,0,0,1,2772.0000499999987,20) translate(106.61333333333332 28.16)"/><path d="M1700.5 530h600v319.1h-600z" fill-opacity="0"/><path d="M1710.5 530h10m5 0h10m5 0h10m5 0h10m5 0h10m5 0h10m5 0h10m5 0h10m5 0h10m5 0h10m5 0h10m5 0h10m5 0h10m5 0h10m5 0h10m5 0h10m5 0h10m5 0h10m5 0h10m5 0h10m5 0h10m5 0h10m5 0h10m5 0h10m5 0h10m5 0h10m5 0h10m5 0h10m5 0h10m5 0h10m5 0h10m5 0h10m5 0h10m5 0h10m5 0h10m5 0h10m5 0h10m5 0h10m5 0h10m5 0h5v5.07m0 5.06v10.13m0 5.07v10.13m0 5.06v10.13m0 5.07v10.13m0 5.06v10.14m0 5.07v10.14m0 5.07v10.14m0 5.06v10.13m0 5.07v10.13m0 5.06V687m0 5.07v10.12m0 5.06v10.14m0 5.06v10.13m0 5.08v10.13m0 5.07V763m0 5.07v10.13m0 5.06v10.13m0 5.06v10.13m0 5.06v10.13m0 5.05v10.13m0 5.07v5.06h-5m-5 0h-10m-5 0h-10m-5 0h-10m-5 0h-10m-5 0h-10m-5 0h-10m-5 0h-10m-5 0h-10m-5 0h-10m-5 0h-10m-5 0h-10m-5 0h-10m-5 0h-10m-5 0h-10m-5 0h-10m-5 0h-10m-5 0h-10m-5 0h-10m-5 0h-10m-5 0h-10m-5 0h-10m-5 0h-10m-5 0h-10m-5 0h-10m-5 0h-10m-5 0h-10m-5 0h-10m-5 0h-10m-5 0h-10m-5 0h-10m-5 0h-10m-5 0h-10m-5 0h-10m-5 0h-10m-5 0h-10m-5 0h-10m-5 0h-10m-5 0h-10m-5 0h-10m-5 0h-5v-5.05m0-5.07v-10.13m0-5.06v-10.14m0-5.07v-10.14m0-5.07v-10.13m0-5.07v-10.13m0-5.07v-10.13m0-5.06V737.7m0-5.07V722.5m0-5.06V707.3m0-5.08V692.1m0-5.08V676.9m0-5.07V661.7m0-5.07V646.5m0-5.06V631.3m0-5.06V616.1m0-5.06V600.9m0-5.05v-10.13m0-5.07v-10.13m0-5.06v-10.13m0-5.07v-10.13m0-5.06V530h5" stroke="#000" fill="none"/><path d="M3072 26a6 6 0 0 1 6-6h288a6 6 0 0 1 6 6v28a6 6 0 0 1-6 6h-288a6 6 0 0 1-6-6z" fill="none"/><use xlink:href="#b" transform="matrix(1,0,0,1,3072.0000499999987,20) translate(94.94666666666666 28.16)"/><path d="M2000.5 529.6v5.06m0 5.05v10.1m0 5.06v10.1m0 5.05v10.1m0 5.06v10.1m0 5.05v10.1m0 5.05v10.1m0 5.05v10.1m0 5.05v10.1m0 5.05V671m0 5.05v10.1m0 5.05v10.1m0 5.04v10.1m0 5.05v10.1m0 5.04v10.1m0 5.05v10.1m0 5.04v10.1m0 5.04v10.1m0 5.05v10.1m0 5.05v10.1m0 5.05v10.1m0 5.05v5.05" stroke="#000" stroke-linecap="round" fill="none"/><path d="M780 436a6 6 0 0 1 6-6h588a6 6 0 0 1 6 6v48a6 6 0 0 1-6 6H786a6 6 0 0 1-6-6z" fill="none"/><use xlink:href="#c" transform="matrix(1,0,0,1,779.9999999999995,429.9999999999999) translate(127.48333333333332 40.2)"/><use xlink:href="#d" transform="matrix(1,0,0,1,779.9999999999995,429.9999999999999) translate(276.51666666666665 40.2)"/><path d="M779.5 530h600v319.1h-600z" fill-opacity="0"/><path d="M789.5 530h10m5 0h10m5 0h10m5 0h10m5 0h10m5 0h10m5 0h10m5 0h10m5 0h10m5 0h10m5 0h10m5 0h10m5 0h10m5 0h10m5 0h10m5 0h10m5 0h10m5 0h10m5 0h10m5 0h10m5 0h10m5 0h10m5 0h10m5 0h10m5 0h10m5 0h10m5 0h10m5 0h10m5 0h10m5 0h10m5 0h10m5 0h10m5 0h10m5 0h10m5 0h10m5 0h10m5 0h10m5 0h10m5 0h10m5 0h5v5.07m0 5.06v10.13m0 5.07v10.13m0 5.06v10.13m0 5.07v10.13m0 5.06v10.14m0 5.07v10.14m0 5.07v10.14m0 5.06v10.13m0 5.07v10.13m0 5.06V687m0 5.07v10.12m0 5.06v10.14m0 5.06v10.13m0 5.08v10.13m0 5.07V763m0 5.07v10.13m0 5.06v10.13m0 5.06v10.13m0 5.06v10.13m0 5.05v10.13m0 5.07v5.06h-5m-5 0h-10m-5 0h-10m-5 0h-10m-5 0h-10m-5 0h-10m-5 0h-10m-5 0h-10m-5 0h-10m-5 0h-10m-5 0h-10m-5 0h-10m-5 0h-10m-5 0h-10m-5 0h-10m-5 0h-10m-5 0h-10m-5 0h-10m-5 0h-10m-5 0h-10m-5 0h-10m-5 0h-10m-5 0h-10m-5 0h-10m-5 0h-10m-5 0h-10m-5 0h-10m-5 0h-10m-5 0h-10m-5 0h-10m-5 0h-10m-5 0h-10m-5 0h-10m-5 0h-10m-5 0h-10m-5 0h-10m-5 0h-10m-5 0h-10m-5 0h-10m-5 0h-10m-5 0h-5v-5.05m0-5.07v-10.13m0-5.06v-10.14m0-5.07v-10.14m0-5.07v-10.13m0-5.07v-10.13m0-5.07v-10.13m0-5.06V737.7m0-5.07V722.5m0-5.06V707.3m0-5.08V692.1m0-5.08V676.9m0-5.07V661.7m0-5.07V646.5m0-5.06V631.3m0-5.06V616.1m0-5.06V600.9m0-5.05v-10.13m0-5.07v-10.13m0-5.06v-10.13m0-5.07v-10.13m0-5.06V530h5" stroke="#000" fill="none"/><path d="M1079.5 529.6v5.06m0 5.05v10.1m0 5.06v10.1m0 5.05v10.1m0 5.06v10.1m0 5.05v10.1m0 5.05v10.1m0 5.05v10.1m0 5.05v10.1m0 5.05V671m0 5.05v10.1m0 5.05v10.1m0 5.04v10.1m0 5.05v10.1m0 5.04v10.1m0 5.05v10.1m0 5.04v10.1m0 5.04v10.1m0 5.05v10.1m0 5.05v10.1m0 5.05v10.1m0 5.05v5.05" stroke="#000" stroke-linecap="round" fill="none"/><path d="M780 496a6 6 0 0 1 6-6h288a6 6 0 0 1 6 6v28a6 6 0 0 1-6 6H786a6 6 0 0 1-6-6z" fill="none"/><use xlink:href="#a" transform="matrix(1,0,0,1,779.9999999999995,489.9999999999999) translate(106.61333333333332 28.16)"/><path d="M1701 496a6 6 0 0 1 6-6h288a6 6 0 0 1 6 6v28a6 6 0 0 1-6 6h-288a6 6 0 0 1-6-6z" fill="none"/><use xlink:href="#a" transform="matrix(1,0,0,1,1700.9999999999995,489.9999999999999) translate(106.61333333333332 28.16)"/><path d="M1080 496a6 6 0 0 1 6-6h288a6 6 0 0 1 6 6v28a6 6 0 0 1-6 6h-288a6 6 0 0 1-6-6z" fill="none"/><use xlink:href="#b" transform="matrix(1,0,0,1,1079.9999999999995,489.9999999999999) translate(94.94666666666666 28.16)"/><path d="M2772.5 826a6 6 0 0 1 6-6h588a6 6 0 0 1 6 6v48a6 6 0 0 1-6 6h-588a6 6 0 0 1-6-6z" fill="none"/><use xlink:href="#e" transform="matrix(1,0,0,1,2772.5000499999983,820) translate(139.45000000000002 40.2)"/><use xlink:href="#d" transform="matrix(1,0,0,1,2772.5000499999983,820) translate(264.55 40.2)"/><path d="M2001 496a6 6 0 0 1 6-6h288a6 6 0 0 1 6 6v28a6 6 0 0 1-6 6h-288a6 6 0 0 1-6-6z" fill="none"/><use xlink:href="#b" transform="matrix(1,0,0,1,2000.9999999999995,489.9999999999999) translate(94.94666666666666 28.16)"/><path d="M2772 920.1h600V1280h-600z" fill-opacity="0"/><path d="M2782 920.1h10m5 0h10m5 0h10m5 0h10m5 0h10m5 0h10m5 0h10m5 0h10m5 0h10m5 0h10m5 0h10m5 0h10m5 0h10m5 0h10m5 0h10m5 0h10m5 0h10m5 0h10m5 0h10m5 0h10m5 0h10m5 0h10m5 0h10m5 0h10m5 0h10m5 0h10m5 0h10m5 0h10m5 0h10m5 0h10m5 0h10m5 0h10m5 0h10m5 0h10m5 0h10m5 0h10m5 0h10m5 0h10m5 0h10m5 0h5v5m0 5v10m0 5v10m0 5v10m0 5v10m0 5v10m0 5v9.98m0 5v10m0 5v10m0 5v10m0 5v9.98m0 5v10m0 5v10m0 5v10m0 5v10m0 4.98v10m0 5v10m0 5v10m0 5v10m0 5v9.98m0 5v10m0 5v10m0 5v10m0 5v9.98m0 5v5h-5m-5 0h-10m-5 0h-10m-5 0h-10m-5 0h-10m-5 0h-10m-5 0h-10m-5 0h-10m-5 0h-10m-5 0h-10m-5 0h-10m-5 0h-10m-5 0h-10m-5 0h-10m-5 0h-10m-5 0h-10m-5 0h-10m-5 0h-10m-5 0h-10m-5 0h-10m-5 0h-10m-5 0h-10m-5 0h-10m-5 0h-10m-5 0h-10m-5 0h-10m-5 0h-10m-5 0h-10m-5 0h-10m-5 0h-10m-5 0h-10m-5 0h-10m-5 0h-10m-5 0h-10m-5 0h-10m-5 0h-10m-5 0h-10m-5 0h-10m-5 0h-10m-5 0h-10m-5 0h-5v-5m0-5v-10m0-5v-10m0-5v-9.98m0-5v-10m0-5v-10m0-5v-10m0-5v-9.98m0-5v-10m0-5v-10m0-5v-10m0-5v-10m0-4.98v-10m0-5v-10m0-5v-10m0-5v-10m0-5v-9.98m0-5v-10m0-5v-10m0-5v-10m0-5v-9.98m0-5v-10m0-5v-10m0-5v-10m0-5v-5h5" stroke="#000" fill="none"/><path d="M3072 919.6v5m0 4.98v9.97m0 5v9.95m0 5v9.96m0 4.98v9.97m0 5v9.97m0 4.98v9.97m0 4.98v9.97m0 5v9.96m0 4.98v9.98m0 4.98v9.97m0 5v9.96m0 4.97v9.97m0 5v9.95m0 4.98v9.97m0 4.98v9.97m0 5v9.96m0 4.98v9.97m0 5v9.96m0 5v9.96m0 4.98v9.97m0 4.98v9.97m0 5v9.96m0 4.98v9.97m0 5v4.97" stroke="#000" stroke-linecap="round" fill="none"/><path d="M2772.5 886a6 6 0 0 1 6-6h288a6 6 0 0 1 6 6v28a6 6 0 0 1-6 6h-288a6 6 0 0 1-6-6z" fill="none"/><use xlink:href="#a" transform="matrix(1,0,0,1,2772.5000499999983,880) translate(106.61333333333332 28.16)"/><path d="M2771.5 379.1h600v319.13h-600z" fill-opacity="0"/><path d="M2781.5 379.1h10m5 0h10m5 0h10m5 0h10m5 0h10m5 0h10m5 0h10m5 0h10m5 0h10m5 0h10m5 0h10m5 0h10m5 0h10m5 0h10m5 0h10m5 0h10m5 0h10m5 0h10m5 0h10m5 0h10m5 0h10m5 0h10m5 0h10m5 0h10m5 0h10m5 0h10m5 0h10m5 0h10m5 0h10m5 0h10m5 0h10m5 0h10m5 0h10m5 0h10m5 0h10m5 0h10m5 0h10m5 0h10m5 0h10m5 0h5v5.08m0 5.06v10.13m0 5.07v10.13m0 5.07v10.13m0 5.06v10.13m0 5.07v10.13m0 5.06v10.13m0 5.07v10.13m0 5.06v10.15m0 5.06v10.14m0 5.07v10.14m0 5.06v10.13m0 5.07v10.13m0 5.07v10.13m0 5.06v10.12m0 5.07v10.12m0 5.06v10.13m0 5.08v10.13m0 5.07v10.13m0 5.07v10.13m0 5.07v10.13m0 5.06v5.07h-5m-5 0h-10m-5 0h-10m-5 0h-10m-5 0h-10m-5 0h-10m-5 0h-10m-5 0h-10m-5 0h-10m-5 0h-10m-5 0h-10m-5 0h-10m-5 0h-10m-5 0h-10m-5 0h-10m-5 0h-10m-5 0h-10m-5 0h-10m-5 0h-10m-5 0h-10m-5 0h-10m-5 0h-10m-5 0h-10m-5 0h-10m-5 0h-10m-5 0h-10m-5 0h-10m-5 0h-10m-5 0h-10m-5 0h-10m-5 0h-10m-5 0h-10m-5 0h-10m-5 0h-10m-5 0h-10m-5 0h-10m-5 0h-10m-5 0h-10m-5 0h-10m-5 0h-10m-5 0h-5v-5.07m0-5.06v-10.13m0-5.07v-10.13m0-5.06v-10.13m0-5.06V632.4m0-5.07V617.2m0-5.06V602m0-5.08V586.8m0-5.07V571.6m0-5.07V556.4m0-5.07V541.2m0-5.06V526m0-5.06V510.8m0-5.05v-10.13m0-5.07v-10.13m0-5.07v-10.13m0-5.06v-10.13m0-5.07v-10.13m0-5.06v-10.13m0-5.07v-10.13m0-5.06v-10.14m0-5.06v-5.07h5" stroke="#000" fill="none"/><path d="M3071.5 378.73v5.05m0 5.05v10.1m0 5.04v10.1m0 5.05v10.1m0 5.05v10.1m0 5.05v10.1m0 5.05v10.1m0 5.05v10.1m0 5.04v10.1m0 5.05v10.1m0 5.06v10.1m0 5.05v10.1m0 5.06v10.1m0 5.04v10.1m0 5.05v10.1m0 5.05V611m0 5.05v10.1m0 5.05v10.1m0 5.05v10.1m0 5.04v10.1m0 5.04v10.1m0 5.05v5.04" stroke="#000" stroke-linecap="round" fill="none"/><path d="M3072.5 886a6 6 0 0 1 6-6h288a6 6 0 0 1 6 6v28a6 6 0 0 1-6 6h-288a6 6 0 0 1-6-6z" fill="none"/><use xlink:href="#b" transform="matrix(1,0,0,1,3072.5000499999983,880) translate(94.94666666666666 28.16)"/><path d="M1123.5 654.07a1 1 0 0 1 1-1h213a1 1 0 0 1 1 1v78a1 1 0 0 1-1 1h-213a1 1 0 0 1-1-1z" stroke="#000" stroke-width="2" fill="#8ea6d7" fill-opacity=".5"/><use xlink:href="#f" transform="matrix(1,0,0,1,1128.4999999999986,658.0729166666667) translate(15.379999999999995 41.577222222222225)"/><path d="M1743.5 594.07a1 1 0 0 1 1-1h213a1 1 0 0 1 1 1v198a1 1 0 0 1-1 1h-213a1 1 0 0 1-1-1z" stroke="#000" stroke-width="2" fill-opacity="0"/><path d="M2043.5 594.07a1 1 0 0 1 1-1h213a1 1 0 0 1 1 1v78a1 1 0 0 1-1 1h-213a1 1 0 0 1-1-1z" stroke="#000" stroke-width="2" fill="#8ea6d7" fill-opacity=".5"/><use xlink:href="#f" transform="matrix(1,0,0,1,2048.4999999999995,598.0729166666667) translate(15.379999999999995 41.577222222222225)"/><path d="M1701 436a6 6 0 0 1 6-6h588a6 6 0 0 1 6 6v48a6 6 0 0 1-6 6h-588a6 6 0 0 1-6-6z" fill="none"/><use xlink:href="#e" transform="matrix(1,0,0,1,1700.9999999999995,429.9999999999999) translate(139.45000000000002 40.2)"/><use xlink:href="#d" transform="matrix(1,0,0,1,1700.9999999999995,429.9999999999999) translate(264.55 40.2)"/><path d="M1341 693.07h380.88" stroke="#000" stroke-width="3" fill="none"/><path d="M1341.04 694.55h-1.54v-2.95h1.54z" stroke="#000" stroke-width=".05"/><path d="M1737.65 693.07l-14.27 4.64v-9.26z" stroke="#000" stroke-width="3"/><use xlink:href="#g" transform="matrix(1,0,0,1,1427.2233333333324,664.6284722222224) translate(0.0049999999999954525 19.702222222222225)"/><use xlink:href="#h" transform="matrix(1,0,0,1,1427.2233333333324,664.6284722222224) translate(83.40944444444443 19.702222222222225)"/><use xlink:href="#i" transform="matrix(1,0,0,1,1427.2233333333324,664.6284722222224) translate(151.4138888888889 19.702222222222225)"/><path d="M823.5 654.07a1 1 0 0 1 1-1h213a1 1 0 0 1 1 1v78a1 1 0 0 1-1 1h-213a1 1 0 0 1-1-1z" stroke="#000" stroke-width="2" fill-opacity=".07"/><use xlink:href="#j" transform="matrix(1,0,0,1,828.4999999999986,658.0729166666667) translate(13.754444444444431 41.577222222222225)"/><use xlink:href="#k" transform="matrix(1,0,0,1,828.4999999999986,658.0729166666667) translate(122.80111111111111 41.577222222222225)"/><path d="M1761 634.07a1 1 0 0 1 1-1h178a1 1 0 0 1 1 1v67.45a1 1 0 0 1-1 1h-178a1 1 0 0 1-1-1z" stroke="#000" stroke-width="2" fill="#fff7a1" fill-opacity=".25"/><use xlink:href="#l" transform="matrix(1,0,0,1,1765.9999999999995,638.0729166666666) translate(46.74444444444444 23.452222222222225)"/><use xlink:href="#m" transform="matrix(1,0,0,1,1765.9999999999995,638.0729166666666) translate(21.957777777777764 47.896666666666675)"/><use xlink:href="#n" transform="matrix(1,0,0,1,1765.9999999999995,638.0729166666666) translate(106.26666666666667 47.896666666666675)"/><path d="M1761 703.52a1 1 0 0 1 1-1h178a1 1 0 0 1 1 1v68.55a1 1 0 0 1-1 1h-178a1 1 0 0 1-1-1z" stroke="#000" stroke-width="2" fill="#a3e784" fill-opacity=".5"/><use xlink:href="#o" transform="matrix(1,0,0,1,1765.9999999999986,707.5173611111111) translate(25.78333333333333 27.327222222222225)"/><use xlink:href="#p" transform="matrix(1,0,0,1,1765.9999999999986,707.5173611111111) translate(16.47 51.771666666666675)"/><path d="M1743.5 599.07a6 6 0 0 1 6-6h203a6 6 0 0 1 6 6v21.34a6 6 0 0 1-6 6h-203a6 6 0 0 1-6-6z" fill="none"/><use xlink:href="#q" transform="matrix(1,0,0,1,1743.4999999999986,593.0729166666667) translate(70.47888888888889 24.48)"/><path d="M1041 693.07h60.88" stroke="#000" stroke-width="3" fill="none"/><path d="M1041.04 694.55h-1.54v-2.95h1.54z" stroke="#000" stroke-width=".05"/><path d="M1117.65 693.07l-14.27 4.64v-9.26z" stroke="#000" stroke-width="3"/><path d="M2814 951.06a1 1 0 0 1 1-1h213a1 1 0 0 1 1 1v198a1 1 0 0 1-1 1h-213a1 1 0 0 1-1-1z" stroke="#000" stroke-width="2" fill-opacity="0"/><path d="M2831.5 991.06a1 1 0 0 1 1-1h178a1 1 0 0 1 1 1v67.44a1 1 0 0 1-1 1h-178a1 1 0 0 1-1-1z" stroke="#000" stroke-width="2" fill="#fff7a1" fill-opacity=".25"/><use xlink:href="#l" transform="matrix(1,0,0,1,2836.500049999999,995.0566293997131) translate(46.74444444444444 23.452222222222225)"/><use xlink:href="#m" transform="matrix(1,0,0,1,2836.500049999999,995.0566293997131) translate(21.957777777777764 47.896666666666675)"/><use xlink:href="#n" transform="matrix(1,0,0,1,2836.500049999999,995.0566293997131) translate(106.26666666666667 47.896666666666675)"/><path d="M2831.5 1060.5a1 1 0 0 1 1-1h178a1 1 0 0 1 1 1v68.56a1 1 0 0 1-1 1h-178a1 1 0 0 1-1-1z" stroke="#000" stroke-width="2" fill="#a3e784" fill-opacity=".5"/><use xlink:href="#r" transform="matrix(1,0,0,1,2836.500049999999,1064.5010738441576) translate(24.98888888888888 27.327222222222225)"/><use xlink:href="#p" transform="matrix(1,0,0,1,2836.500049999999,1064.5010738441576) translate(16.47 51.771666666666675)"/><path d="M2814 956.06a6 6 0 0 1 6-6h203a6 6 0 0 1 6 6v21.33a6 6 0 0 1-6 6h-203a6 6 0 0 1-6-6z" fill="none"/><use xlink:href="#q" transform="matrix(1,0,0,1,2814.000049999999,950.0566293997131) translate(70.47888888888889 24.48)"/><path d="M2261 633.07h363a6 6 0 0 1 6 6v405a6 6 0 0 0 6 6h156.38" stroke="#000" stroke-width="3" fill="none"/><path d="M2261.04 634.55h-1.54v-2.95h1.54z" stroke="#000" stroke-width=".05"/><path d="M2808.15 1050.06l-14.27 4.63v-9.28z" stroke="#000" stroke-width="3"/><path d="M720 366a6 6 0 0 1 6-6h1628a6 6 0 0 1 6 6v48a6 6 0 0 1-6 6H726a6 6 0 0 1-6-6z" fill="none"/><use xlink:href="#s" transform="matrix(1,0,0,1,720.0000000000005,360) translate(744.2666666666667 43.6)"/><path d="M2711.5 766a6 6 0 0 1 6-6h708a6 6 0 0 1 6 6v48a6 6 0 0 1-6 6h-708a6 6 0 0 1-6-6z" fill="none"/><use xlink:href="#t" transform="matrix(1,0,0,1,2711.5000499999987,760) translate(281.4888888888889 43.6)"/><path d="M2042.5 714.07a1 1 0 0 1 1-1h213a1 1 0 0 1 1 1v78a1 1 0 0 1-1 1h-213a1 1 0 0 1-1-1z" stroke="#000" stroke-width="2" fill-opacity=".07"/><use xlink:href="#u" transform="matrix(1,0,0,1,2047.5000000000005,718.0729166666667) translate(56.42222222222222 41.577222222222225)"/><path d="M2814 1171.06a1 1 0 0 1 1-1h213a1 1 0 0 1 1 1v78a1 1 0 0 1-1 1h-213a1 1 0 0 1-1-1z" stroke="#000" stroke-width="2" fill-opacity=".07"/><use xlink:href="#j" transform="matrix(1,0,0,1,2819.000049999999,1175.056629399713) translate(13.754444444444431 41.577222222222225)"/><use xlink:href="#k" transform="matrix(1,0,0,1,2819.000049999999,1175.056629399713) translate(122.80111111111111 41.577222222222225)"/><path d="M2260 753.07h265.5a6 6 0 0 1 6 6v445a6 6 0 0 0 6 6h254.88" stroke="#000" stroke-width="3" fill="none"/><path d="M2260.04 754.55h-1.54v-2.95h1.54z" stroke="#000" stroke-width=".05"/><path d="M2808.15 1210.06l-14.27 4.63v-9.28z" stroke="#000" stroke-width="3"/><use xlink:href="#v" transform="matrix(1,0,0,1,2326.861482093099,724.6284722222223) translate(0.0049999999999954525 19.702222222222225)"/><use xlink:href="#h" transform="matrix(1,0,0,1,2326.861482093099,724.6284722222223) translate(59.111666666666665 19.702222222222225)"/><use xlink:href="#i" transform="matrix(1,0,0,1,2326.861482093099,724.6284722222223) translate(127.11611111111112 19.702222222222225)"/><path d="M2814 118.75a1 1 0 0 1 1-1h213a1 1 0 0 1 1 1v198a1 1 0 0 1-1 1h-213a1 1 0 0 1-1-1z" stroke="#000" stroke-width="2" fill-opacity="0"/><path d="M3114 178.75a1 1 0 0 1 1-1h213a1 1 0 0 1 1 1v78a1 1 0 0 1-1 1h-213a1 1 0 0 1-1-1z" stroke="#000" stroke-width="2" fill-opacity=".07"/><use xlink:href="#w" transform="matrix(1,0,0,1,3119.000049999999,182.74488015430757) translate(20.916666666666657 41.577222222222225)"/><use xlink:href="#x" transform="matrix(1,0,0,1,3119.000049999999,182.74488015430757) translate(94.25 41.577222222222225)"/><path d="M2831.5 158.75a1 1 0 0 1 1-1h178a1 1 0 0 1 1 1v67.44a1 1 0 0 1-1 1h-178a1 1 0 0 1-1-1z" stroke="#000" stroke-width="2" fill="#fff7a1" fill-opacity=".25"/><use xlink:href="#l" transform="matrix(1,0,0,1,2836.500049999999,162.74488015430757) translate(46.74444444444444 23.452222222222225)"/><use xlink:href="#m" transform="matrix(1,0,0,1,2836.500049999999,162.74488015430757) translate(21.957777777777764 47.896666666666675)"/><use xlink:href="#n" transform="matrix(1,0,0,1,2836.500049999999,162.74488015430757) translate(106.26666666666667 47.896666666666675)"/><path d="M2831.5 228.2a1 1 0 0 1 1-1h178a1 1 0 0 1 1 1v68.55a1 1 0 0 1-1 1h-178a1 1 0 0 1-1-1z" stroke="#000" stroke-width="2" fill="#a3e784" fill-opacity=".5"/><use xlink:href="#y" transform="matrix(1,0,0,1,2836.500049999999,232.1893245987522) translate(43.99444444444444 38.764722222222225)"/><path d="M2814 123.75a6 6 0 0 1 6-6h203a6 6 0 0 1 6 6v21.33a6 6 0 0 1-6 6h-203a6 6 0 0 1-6-6z" fill="none"/><use xlink:href="#q" transform="matrix(1,0,0,1,2814.000049999999,117.74488015430774) translate(70.47888888888889 24.48)"/><path d="M2261 633.07h363a6 6 0 0 0 6-6V223.74a6 6 0 0 1 6-6h156.38" stroke="#000" stroke-width="3" fill="none"/><path d="M2261.04 634.55h-1.54v-2.95h1.54z" stroke="#000" stroke-width=".05"/><path d="M2808.15 217.75l-14.27 4.63v-9.27z" stroke="#000" stroke-width="3"/><use xlink:href="#g" transform="matrix(1,0,0,1,2317.5457928687474,604.6284722222224) translate(0.0049999999999954525 19.702222222222225)"/><use xlink:href="#h" transform="matrix(1,0,0,1,2317.5457928687474,604.6284722222224) translate(83.40944444444443 19.702222222222225)"/><use xlink:href="#i" transform="matrix(1,0,0,1,2317.5457928687474,604.6284722222224) translate(151.4138888888889 19.702222222222225)"/><path d="M3114 418.05a1 1 0 0 1 1-1h213a1 1 0 0 1 1 1v100.88a1 1 0 0 1-1 1h-213a1 1 0 0 1-1-1z" stroke="#000" stroke-width="2" fill="#fff7a1" fill-opacity=".25"/><g><use xlink:href="#z" transform="matrix(1,0,0,1,3119.000049999999,422.0453913704217) translate(9.782222222222217 22.608472222222225)"/><use xlink:href="#A" transform="matrix(1,0,0,1,3119.000049999999,422.0453913704217) translate(22.090000000000003 56.830694444444454)"/><use xlink:href="#B" transform="matrix(1,0,0,1,3119.000049999999,422.0453913704217) translate(107.96333333333334 56.830694444444454)"/><use xlink:href="#C" transform="matrix(1,0,0,1,3119.000049999999,422.0453913704217) translate(81.61222222222221 91.05291666666668)"/></g><path d="M2771.5-94a6 6 0 0 1 6-6h589a6 6 0 0 1 6 6v48a6 6 0 0 1-6 6h-589a6 6 0 0 1-6-6z" fill="none"/><g><use xlink:href="#D" transform="matrix(1,0,0,1,2771.5000499999983,-100) translate(241.92222222222222 43.6)"/></g><path d="M2815 501a1 1 0 0 1 1-1h213a1 1 0 0 1 1 1v78a1 1 0 0 1-1 1h-213a1 1 0 0 1-1-1z" stroke="#000" stroke-width="2" fill-opacity=".07"/><g><use xlink:href="#j" transform="matrix(1,0,0,1,2820.0000499999983,505) translate(13.754444444444431 41.577222222222225)"/><use xlink:href="#k" transform="matrix(1,0,0,1,2820.0000499999983,505) translate(122.80111111111111 41.577222222222225)"/></g><path d="M3114 559.05a1 1 0 0 1 1-1h213a1 1 0 0 1 1 1v78a1 1 0 0 1-1 1h-213a1 1 0 0 1-1-1z" stroke="#000" stroke-width="2" fill-opacity=".07"/><g><use xlink:href="#u" transform="matrix(1,0,0,1,3119.000049999999,563.0466225184672) translate(56.42222222222222 41.577222222222225)"/></g><path d="M2771.5-34a6 6 0 0 1 6-6h588a6 6 0 0 1 6 6v48a6 6 0 0 1-6 6h-588a6 6 0 0 1-6-6z" fill="none"/><g><use xlink:href="#e" transform="matrix(1,0,0,1,2771.500049999999,-40.000000000000014) translate(139.45000000000002 40.2)"/><use xlink:href="#d" transform="matrix(1,0,0,1,2771.500049999999,-40.000000000000014) translate(264.55 40.2)"/></g><path d="M3420 65.1a6 6 0 0 1 6-6h168a6 6 0 0 1 6 6v306.24a6 6 0 0 1-6 6h-168a6 6 0 0 1-6-6z" fill="none"/><path d="M3420 377.34c5.52 0 10-4.48 10-10v-139.1c0-5.54 4.48-10 10-10-5.52 0-10-4.5-10-10V69.1c0-5.5-4.48-10-10-10" stroke="#000" stroke-width="2" fill="none"/><g><use xlink:href="#E" transform="matrix(1,0,0,1,3455,64.11357340720224) translate(35.71666666666666 149.75777777777776)"/><use xlink:href="#F" transform="matrix(1,0,0,1,3455,64.11357340720224) translate(32.80777777777777 174.20222222222222)"/></g><path d="M3420 383.34a6 6 0 0 1 6-6h168a6 6 0 0 1 6 6v306.23a6 6 0 0 1-6 6h-168a6 6 0 0 1-6-6z" fill="none"/><path d="M3420 695.57c5.52 0 10-4.48 10-10V546.45c0-5.52 4.48-10 10-10-5.52 0-10-4.47-10-10v-139.1c0-5.53-4.48-10-10-10" stroke="#000" stroke-width="2" fill="none"/><g><use xlink:href="#G" transform="matrix(1,0,0,1,3455,382.3407202216067) translate(32.92999999999999 137.53555555555553)"/><use xlink:href="#H" transform="matrix(1,0,0,1,3455,382.3407202216067) translate(3.0955555555555634 161.98)"/><use xlink:href="#I" transform="matrix(1,0,0,1,3455,382.3407202216067) translate(92 161.98)"/><use xlink:href="#J" transform="matrix(1,0,0,1,3455,382.3407202216067) translate(19.53444444444444 186.42444444444445)"/></g><path d="M3115 988.1a1 1 0 0 1 1-1h213a1 1 0 0 1 1 1V1089a1 1 0 0 1-1 1h-213a1 1 0 0 1-1-1z" stroke="#000" stroke-width="2" fill="#fff7a1" fill-opacity=".25"/><g><use xlink:href="#z" transform="matrix(1,0,0,1,3120.0000499999983,992.1020207701348) translate(9.782222222222217 22.608472222222225)"/><use xlink:href="#A" transform="matrix(1,0,0,1,3120.0000499999983,992.1020207701348) translate(22.090000000000003 56.830694444444454)"/><use xlink:href="#B" transform="matrix(1,0,0,1,3120.0000499999983,992.1020207701348) translate(107.96333333333334 56.830694444444454)"/><use xlink:href="#C" transform="matrix(1,0,0,1,3120.0000499999983,992.1020207701348) translate(81.61222222222221 91.05291666666668)"/></g><path d="M3115 1129.1a1 1 0 0 1 1-1h213a1 1 0 0 1 1 1v78a1 1 0 0 1-1 1h-213a1 1 0 0 1-1-1z" stroke="#000" stroke-width="2" fill-opacity=".07"/><g><use xlink:href="#u" transform="matrix(1,0,0,1,3120.0000499999983,1133.1032519181804) translate(56.42222222222222 41.577222222222225)"/></g><defs><path d="M403 0C288-4 148-4 33 0v-47h114v-592H33v-47c115 4 255 4 370 0v47H289v592h114V0" id="K"/><path d="M615 0c-84-3-168-3-252 0v-47h69v-270c0-76-21-97-55-97-63 0-149 49-149 158v209h69V0C213-3 129-3 45 0v-47h69v-309c0-39-7-39-69-39v-47l172-8v108c26-51 79-108 175-108 100 0 154 39 154 144v259h69V0" id="L"/><path d="M600-223C600-84 498 6 348 6c-41 0-85-10-128-45v186h69v47c-84-3-168-3-252 0v-47h69v-504c0-38-7-38-69-38v-47l177-8v49c23-18 76-49 151-49 144 0 235 94 235 227zm-128 0c0-126-56-187-123-187-22 0-74 6-114 47-14 14-15 15-15 34v212c0 19 0 20 11 33 45 54 92 54 106 54 65 0 135-52 135-193" id="M"/><path d="M615 0L438 6v-78C392 6 320 6 294 6c-99 0-180-22-180-129v-233c0-39-7-39-69-39v-47l183-8v341c0 54 3 79 80 79 73 0 124-53 124-135v-191c0-39-7-39-69-39v-47l183-8v364c0 39 7 39 69 39V0" id="N"/><path d="M382-177C393-73 356 6 261 6c-71 0-158-22-158-129v-274H21v-36c99-3 148-102 149-202h47v191h146v47H217v276c0 23 0 87 58 87 28 0 60-24 60-92v-51h47" id="O"/><path d="M415-140C415 6 261 6 230 6c-20 0-72 0-118-32-12 6-48 36-56 32-18 0-18-9-18-28v-109c0-23 0-29 24-29 14 0 20 0 24 14 13 43 38 116 144 116 22 0 114 0 114-75 0-59-75-72-111-78-77-14-115-20-155-55-20-17-40-44-40-84 0-131 154-131 184-131 40 0 75 6 101 19 39-19 41-19 45-19 18 0 18 9 18 28v80c0 23 0 28-24 28-21 0-22-5-23-20-5-55-43-84-118-84-19 0-112 0-112 62 0 47 65 58 102 65 78 13 111 18 149 48 36 27 55 63 55 106" id="P"/><g id="a"><use transform="matrix(0.02666666666666667,0,0,0.02666666666666667,0,0)" xlink:href="#K"/><use transform="matrix(0.02666666666666667,0,0,0.02666666666666667,11.626666666666667,0)" xlink:href="#L"/><use transform="matrix(0.02666666666666667,0,0,0.02666666666666667,28.666666666666668,0)" xlink:href="#M"/><use transform="matrix(0.02666666666666667,0,0,0.02666666666666667,45.70666666666668,0)" xlink:href="#N"/><use transform="matrix(0.02666666666666667,0,0,0.02666666666666667,62.746666666666684,0)" xlink:href="#O"/><use transform="matrix(0.02666666666666667,0,0,0.02666666666666667,74.66666666666669,0)" xlink:href="#P"/></g><path d="M799-339c0 205-138 350-368 350C204 11 64-132 64-339c0-210 139-358 368-358 222 0 367 142 367 358zm-153-15c0-68-2-146-42-209-80-124-254-129-340-8-47 66-47 153-47 217 0 86 8 157 41 219C299-59 372-31 431-31c54 0 124-22 169-95 42-69 46-158 46-228" id="Q"/><g id="b"><use transform="matrix(0.02666666666666667,0,0,0.02666666666666667,0,0)" xlink:href="#Q"/><use transform="matrix(0.02666666666666667,0,0,0.02666666666666667,23.040000000000003,0)" xlink:href="#N"/><use transform="matrix(0.02666666666666667,0,0,0.02666666666666667,40.080000000000005,0)" xlink:href="#O"/><use transform="matrix(0.02666666666666667,0,0,0.02666666666666667,52.00000000000001,0)" xlink:href="#M"/><use transform="matrix(0.02666666666666667,0,0,0.02666666666666667,69.04,0)" xlink:href="#N"/><use transform="matrix(0.02666666666666667,0,0,0.02666666666666667,86.08000000000001,0)" xlink:href="#O"/><use transform="matrix(0.02666666666666667,0,0,0.02666666666666667,98.00000000000001,0)" xlink:href="#P"/></g><path d="M766-227c0 115-113 238-300 238C217 11 64-138 64-343s153-354 402-354c68 0 135 18 197 68l66-59c14-16 44-11 37 19v215c0 26-1 28-27 28-23 0-24-2-27-21-22-127-117-203-225-203-52 0-140 11-204 77s-66 174-66 230c0 90 12 165 59 222 52 61 136 85 214 85 101 0 222-61 229-195 1-17 10-17 23-17 17 0 24 1 24 21" id="R"/><path d="M542-218C542-95 455 6 287 6 120 6 32-94 32-218c0-133 91-235 255-235 163 0 255 101 255 235zm-128-11c0-48 0-103-21-137-43-72-182-66-216 7-17 34-17 85-17 130 0 87 0 195 127 195s127-108 127-195" id="S"/><path d="M935 0c-84-3-168-3-252 0v-47h69v-270c0-77-22-97-56-97-62 0-149 49-149 158v209h69V0c-84-3-168-3-252 0v-47h69v-270c0-77-22-97-56-97-62 0-149 49-149 158v209h69V0C213-3 129-3 45 0v-47h69v-309c0-39-7-39-69-39v-47l172-8v108c32-63 89-108 176-108 38 0 130 3 150 96 26-46 78-96 169-96 103 0 154 41 154 144v259h69V0" id="T"/><path d="M286 0C206-3 127-3 47 0v-47h69v-309c0-39-7-39-66-39v-47l174-8v403h62V0zm-48-607c0 43-35 78-78 78s-78-35-78-78 35-78 78-78 78 35 78 78" id="U"/><g id="c"><use transform="matrix(0.03333333333333333,0,0,0.03333333333333333,0,0)" xlink:href="#R"/><use transform="matrix(0.03333333333333333,0,0,0.03333333333333333,27.7,0)" xlink:href="#S"/><use transform="matrix(0.03333333333333333,0,0,0.03333333333333333,46.86666666666667,0)" xlink:href="#T"/><use transform="matrix(0.03333333333333333,0,0,0.03333333333333333,78.8,0)" xlink:href="#T"/><use transform="matrix(0.03333333333333333,0,0,0.03333333333333333,110.73333333333333,0)" xlink:href="#U"/><use transform="matrix(0.03333333333333333,0,0,0.03333333333333333,121.36666666666667,0)" xlink:href="#O"/></g><path d="M757-434h-47c-10-114-20-194-163-194h-76v581h153V0C483-4 317-4 176 0v-47h153v-581h-77c-144 0-154 81-163 194H42l21-241h673" id="V"/><path d="M442-368c0 81-120 82-122 0 0-29 19-46 19-46-100 0-125 122-125 192v175h87V0C215-6 123-2 37 0v-47h69v-309c0-39-7-39-69-39v-47l166-8v113c23-63 63-113 133-113 52 0 106 29 106 82" id="W"/><path d="M558-24c1 40-48 24-80 24-104 0-104-46-104-77-22 42-69 83-149 83C156 6 32-12 32-108c0-145 254-154 325-157 14-126-58-175-182-145 3 2 22 19 22 49 0 42-32 63-63 63-27 0-62-19-62-63 0-88 122-92 179-92 149 0 220 65 220 154v215c0 23 0 36 61 37 13 0 26 0 26 23zM357-139v-95c-50 3-208 17-208 125 0 44 40 79 91 79 25 0 117-13 117-109" id="X"/><path d="M478-117c0 7-30 123-192 123C132 6 38-89 38-222c0-116 74-231 253-231 58 0 174 6 174 92 0 42-32 63-63 63-46 0-90-67-42-109-13-3-30-6-65-6-129 0-129 130-129 186 0 46 0 193 139 193 51 0 99-19 125-82 0-20 46-22 48-1" id="Y"/><g id="d"><use transform="matrix(0.03333333333333333,0,0,0.03333333333333333,0,0)" xlink:href="#V"/><use transform="matrix(0.03333333333333333,0,0,0.03333333333333333,23.46666666666667,0)" xlink:href="#W"/><use transform="matrix(0.03333333333333333,0,0,0.03333333333333333,39.266666666666666,0)" xlink:href="#X"/><use transform="matrix(0.03333333333333333,0,0,0.03333333333333333,57.9,0)" xlink:href="#L"/><use transform="matrix(0.03333333333333333,0,0,0.03333333333333333,79.2,0)" xlink:href="#P"/><use transform="matrix(0.03333333333333333,0,0,0.03333333333333333,94.33333333333334,0)" xlink:href="#X"/><use transform="matrix(0.03333333333333333,0,0,0.03333333333333333,112.96666666666667,0)" xlink:href="#Y"/><use transform="matrix(0.03333333333333333,0,0,0.03333333333333333,130,0)" xlink:href="#O"/><use transform="matrix(0.03333333333333333,0,0,0.03333333333333333,144.9,0)" xlink:href="#U"/><use transform="matrix(0.03333333333333333,0,0,0.03333333333333333,155.53333333333333,0)" xlink:href="#S"/><use transform="matrix(0.03333333333333333,0,0,0.03333333333333333,174.7,0)" xlink:href="#L"/></g><path d="M858-95c0 16-13 106-120 106-41 0-103-4-147-26-70-34-70-83-70-149 0-73 3-95-32-127-65-61-113-25-206-34v278h108V0C284-4 147-4 39 0v-47h108v-592H39v-47h380c188 0 298 84 298 185 0 66-51 131-167 161 43 16 98 47 112 117 1 5 9 74 11 85 5 42 14 113 74 113 30 0 59-22 64-69-7-25 48-38 47-1zM564-500c0-61-2-139-163-139H283v278h116c165 0 165-83 165-139" id="Z"/><path d="M494-117c0 17-43 123-201 123C132 6 32-91 32-225c0-125 87-228 247-228 69 0 122 18 159 54 50 50 56 123 56 154 0 27-10 27-32 27H160c0 51 1 184 142 184 65 0 122-32 143-80 6-16 8-21 25-21 5 0 24 0 24 18zm-95-134c-1-35-3-166-120-166-29 0-69 12-95 52-21 33-22 75-24 114h239" id="aa"/><path d="M580-397c-64 0-68 7-74 21L340-20c-19 33-57 38-75-1L90-397H26v-47c79 3 159 3 238 0v47h-54l127 273c40-87 81-174 121-262 0-8-29-11-48-11v-47c57 2 113 5 170 0v47" id="ab"/><path d="M293 0C211-3 129-3 47 0v-47h69v-553c0-39-7-39-69-39v-47l177-8v647h69V0" id="ac"/><g id="e"><use transform="matrix(0.03333333333333333,0,0,0.03333333333333333,0,0)" xlink:href="#Z"/><use transform="matrix(0.03333333333333333,0,0,0.03333333333333333,28.766666666666666,0)" xlink:href="#aa"/><use transform="matrix(0.03333333333333333,0,0,0.03333333333333333,46.33333333333333,0)" xlink:href="#ab"/><use transform="matrix(0.03333333333333333,0,0,0.03333333333333333,65.5,0)" xlink:href="#aa"/><use transform="matrix(0.03333333333333333,0,0,0.03333333333333333,83.06666666666666,0)" xlink:href="#X"/><use transform="matrix(0.03333333333333333,0,0,0.03333333333333333,101.69999999999999,0)" xlink:href="#ac"/></g><path d="M574-203c0 101-62 214-227 214-41 0-134-6-200-55-22 17-36 47-65 55-18 0-18-9-18-28v-182c0-23 0-29 24-29 22 0 22 5 23 23C119-56 271-36 347-36c104 0 130-69 130-117 0-46-25-72-40-87-22-21-39-24-127-43-109-24-143-31-192-80-21-22-54-68-54-133 0-105 72-201 224-201 48 0 113 9 171 55l45-44c15-20 38-14 38 17v183c0 23 0 28-24 28-21 0-21-2-25-26-23-136-124-170-204-170-100 0-128 62-128 105 0 122 141 109 241 135 90 23 172 100 172 211" id="ad"/><path d="M721-491c0 117-116 189-255 189H289v255h108V0C286-4 150-4 39 0v-47h108v-592H39v-47h417c166 0 265 85 265 195zm-153 0c0-72 0-148-150-148H283v296h134c151 0 151-77 151-148" id="ae"/><path d="M600-223C600-84 497 6 348 6c-89 0-138-54-146-62-16 19-33 37-49 56h-47v-600c0-39-7-39-69-39v-47l177-8v293c24-20 74-49 147-49 145 0 239 94 239 227zm-128 0c0-70 0-191-122-191-55 0-103 29-130 64v251c10 15 49 69 119 69 32 0 79-11 107-52 27-39 26-94 26-141" id="af"/><path d="M659-628c3-6-57-13-71-11v-47c94 4 144 5 248 0v47c-39 0-84-4-111 18L485-421 755-67c12 16 15 20 68 20h29V0C751-5 631-4 530 0v-47c35 0 55 0 73-8-68-98-143-189-214-285l-100 83v210h108V0C286-4 150-4 39 0v-47h108v-592H39v-47c111 4 247 4 358 0v47H289v320" id="ag"/><path d="M580-397c-64 0-67 7-74 21L291 81c-27 57-85 119-162 119-60 0-107-41-107-92 0-39 29-58 57-58 34 0 58 24 58 57 0 35-23 49-32 53C214 180 241 70 277 0L90-397H26v-47c79 3 159 3 238 0v47h-54l127 270c40-86 81-171 120-258 0-12-47-12-47-12v-47c56 2 114 5 170 0v47" id="ah"/><g id="f"><use transform="matrix(0.024444444444444446,0,0,0.024444444444444446,0,0)" xlink:href="#ad"/><use transform="matrix(0.024444444444444446,0,0,0.024444444444444446,15.620000000000001,0)" xlink:href="#Y"/><use transform="matrix(0.024444444444444446,0,0,0.024444444444444446,28.111111111111114,0)" xlink:href="#W"/><use transform="matrix(0.024444444444444446,0,0,0.024444444444444446,39.69777777777778,0)" xlink:href="#U"/><use transform="matrix(0.024444444444444446,0,0,0.024444444444444446,47.495555555555555,0)" xlink:href="#M"/><use transform="matrix(0.024444444444444446,0,0,0.024444444444444446,63.11555555555556,0)" xlink:href="#O"/><use transform="matrix(0.024444444444444446,0,0,0.024444444444444446,74.04222222222222,0)" xlink:href="#ae"/><use transform="matrix(0.024444444444444446,0,0,0.024444444444444446,93.25555555555556,0)" xlink:href="#N"/><use transform="matrix(0.024444444444444446,0,0,0.024444444444444446,108.87555555555556,0)" xlink:href="#af"/><use transform="matrix(0.024444444444444446,0,0,0.024444444444444446,124.49555555555557,0)" xlink:href="#ag"/><use transform="matrix(0.024444444444444446,0,0,0.024444444444444446,146.52,0)" xlink:href="#aa"/><use transform="matrix(0.024444444444444446,0,0,0.024444444444444446,159.40222222222224,0)" xlink:href="#ah"/></g><g id="g"><use transform="matrix(0.024444444444444446,0,0,0.024444444444444446,0,0)" xlink:href="#ad"/><use transform="matrix(0.024444444444444446,0,0,0.024444444444444446,15.620000000000001,0)" xlink:href="#Y"/><use transform="matrix(0.024444444444444446,0,0,0.024444444444444446,28.111111111111114,0)" xlink:href="#W"/><use transform="matrix(0.024444444444444446,0,0,0.024444444444444446,39.69777777777778,0)" xlink:href="#U"/><use transform="matrix(0.024444444444444446,0,0,0.024444444444444446,47.495555555555555,0)" xlink:href="#M"/><use transform="matrix(0.024444444444444446,0,0,0.024444444444444446,63.11555555555556,0)" xlink:href="#O"/></g><path d="M615 0c-84-3-168-3-252 0v-47h69v-270c0-76-21-97-55-97-63 0-149 49-149 158v209h69V0C213-3 129-3 45 0v-47h69v-553c0-39-7-39-69-39v-47l177-8c1 113-1 229 1 340 22-38 73-96 169-96 100 0 154 39 154 144v259h69V0" id="ai"/><g id="h"><use transform="matrix(0.024444444444444446,0,0,0.024444444444444446,0,0)" xlink:href="#ae"/><use transform="matrix(0.024444444444444446,0,0,0.024444444444444446,18.43111111111111,0)" xlink:href="#X"/><use transform="matrix(0.024444444444444446,0,0,0.024444444444444446,32.095555555555556,0)" xlink:href="#O"/><use transform="matrix(0.024444444444444446,0,0,0.024444444444444446,43.022222222222226,0)" xlink:href="#ai"/></g><path d="M601 0L418 6v-49C387-18 339 6 278 6 130 6 38-89 38-221c0-190 225-296 386-184v-195c0-39-7-39-69-39v-47l177-8v608c0 39 7 39 69 39V0zM418-103v-250c-41-62-166-95-226-9-26 39-26 93-26 141 0 70 0 191 122 191 76 0 117-55 130-73" id="aj"/><g id="i"><use transform="matrix(0.024444444444444446,0,0,0.024444444444444446,0,0)" xlink:href="#ad"/><use transform="matrix(0.024444444444444446,0,0,0.024444444444444446,15.620000000000001,0)" xlink:href="#M"/><use transform="matrix(0.024444444444444446,0,0,0.024444444444444446,32.022222222222226,0)" xlink:href="#aa"/><use transform="matrix(0.024444444444444446,0,0,0.024444444444444446,44.90444444444445,0)" xlink:href="#L"/><use transform="matrix(0.024444444444444446,0,0,0.024444444444444446,60.524444444444455,0)" xlink:href="#aj"/></g><path d="M675-439h-47c-15-117-38-194-199-194H289v269h50c97 0 105-43 105-117h47v281h-47c0-74-9-117-105-117h-50v270h135V0C305-4 158-5 39 0v-47h108v-586H39v-47h605" id="ak"/><path d="M558-397c0 24-17 43-43 43-33 1-52-32-39-63-11 1-32 3-62 19 15 16 40 49 40 96 0 70-55 148-199 148-25 0-76-2-122-26-20 38-12 79 45 96 100 4 229-5 289 29 65 37 75 97 75 127 0 70-78 129-255 129C87 201 32 126 32 75c0-63 73-84 86-87-40-32-44-81-44-96 0-21 6-54 34-89-32-23-52-64-52-105 0-70 55-148 199-148 74 0 116 21 134 33 44-35 91-38 106-38 46 0 63 35 63 58zm-215 95c0-45 0-112-88-112s-88 67-88 112 0 112 88 112 88-67 88-112zM456 75c0-62-113-62-144-62H195c-14 0-77 0-77 60 0 46 49 92 169 92 130 0 169-54 169-90" id="al"/><g id="j"><use transform="matrix(0.024444444444444446,0,0,0.024444444444444446,0,0)" xlink:href="#ak"/><use transform="matrix(0.024444444444444446,0,0,0.024444444444444446,15.351111111111113,0)" xlink:href="#N"/><use transform="matrix(0.024444444444444446,0,0,0.024444444444444446,30.971111111111114,0)" xlink:href="#L"/><use transform="matrix(0.024444444444444446,0,0,0.024444444444444446,46.59111111111112,0)" xlink:href="#aj"/><use transform="matrix(0.024444444444444446,0,0,0.024444444444444446,62.21111111111112,0)" xlink:href="#U"/><use transform="matrix(0.024444444444444446,0,0,0.024444444444444446,70.0088888888889,0)" xlink:href="#L"/><use transform="matrix(0.024444444444444446,0,0,0.024444444444444446,85.62888888888891,0)" xlink:href="#al"/></g><g id="k"><use transform="matrix(0.024444444444444446,0,0,0.024444444444444446,0,0)" xlink:href="#K"/><use transform="matrix(0.024444444444444446,0,0,0.024444444444444446,10.657777777777778,0)" xlink:href="#L"/><use transform="matrix(0.024444444444444446,0,0,0.024444444444444446,26.27777777777778,0)" xlink:href="#M"/><use transform="matrix(0.024444444444444446,0,0,0.024444444444444446,41.897777777777776,0)" xlink:href="#N"/><use transform="matrix(0.024444444444444446,0,0,0.024444444444444446,57.51777777777778,0)" xlink:href="#O"/></g><path d="M585 0c-77-3-153-3-230 0v-47h39L284-177c-34 40-71 77-104 119 0 6 19 11 37 11V0C152-3 87-4 22 0v-47c48 0 84 0 101-19l131-147L98-397H27v-47c77 3 154 3 231 0v47h-40l98 115c30-36 64-68 92-106-12-7-24-9-38-9v-47c65 3 130 4 195 0v47c-83 0-89 7-102 21L346-246 514-47h71V0" id="am"/><path d="M318-174H13v-97h305v97" id="an"/><g id="l"><use transform="matrix(0.024444444444444446,0,0,0.024444444444444446,0,0)" xlink:href="#am"/><use transform="matrix(0.024444444444444446,0,0,0.024444444444444446,14.837777777777779,0)" xlink:href="#an"/><use transform="matrix(0.024444444444444446,0,0,0.024444444444444446,24.200000000000003,0)" xlink:href="#S"/><use transform="matrix(0.024444444444444446,0,0,0.024444444444444446,38.25555555555556,0)" xlink:href="#L"/><use transform="matrix(0.024444444444444446,0,0,0.024444444444444446,53.87555555555557,0)" xlink:href="#ac"/><use transform="matrix(0.024444444444444446,0,0,0.024444444444444446,61.673333333333346,0)" xlink:href="#ah"/></g><g id="m"><use transform="matrix(0.024444444444444446,0,0,0.024444444444444446,0,0)" xlink:href="#M"/><use transform="matrix(0.024444444444444446,0,0,0.024444444444444446,15.620000000000001,0)" xlink:href="#N"/><use transform="matrix(0.024444444444444446,0,0,0.024444444444444446,31.240000000000002,0)" xlink:href="#af"/><use transform="matrix(0.024444444444444446,0,0,0.024444444444444446,46.86,0)" xlink:href="#ac"/><use transform="matrix(0.024444444444444446,0,0,0.024444444444444446,54.65777777777778,0)" xlink:href="#U"/><use transform="matrix(0.024444444444444446,0,0,0.024444444444444446,62.455555555555556,0)" xlink:href="#Y"/></g><path d="M587 0c-80-4-129-4-226 0v-47c51 2 25-20 6-44L266-217c-20 14-28 20-57 43v127h69V0C198-3 117-3 37 0v-47h69v-553c0-39-7-39-69-39v-47l177-8v457l189-149c-8-8-11-11-34-11v-47c65 1 129 6 193 0v47c-67 0-76 7-90 18L342-278 511-67c8 20 35 21 76 20V0" id="ao"/><g id="n"><use transform="matrix(0.024444444444444446,0,0,0.024444444444444446,0,0)" xlink:href="#ao"/><use transform="matrix(0.024444444444444446,0,0,0.024444444444444446,14.055555555555557,0)" xlink:href="#aa"/><use transform="matrix(0.024444444444444446,0,0,0.024444444444444446,26.937777777777786,0)" xlink:href="#ah"/></g><path d="M827 0C722-5 593-4 488 0v-47h95l-60-146H255c-18 45-37 87-54 133 0 13 89 13 89 13V0C209-5 122-2 41 0v-47h21c76 0 79-8 85-23l248-602c5-31 63-40 79 0L730-47h97V0zM503-240L389-518 275-240h228" id="ap"/><path d="M860 0C749-4 613-4 502 0v-47h108v-286H289v286h108V0C286-4 150-4 39 0v-47h108v-592H39v-47c111 4 247 4 358 0v47H289v259h321v-259H502v-47c111 4 247 4 358 0v47H752v592h108V0" id="aq"/><g id="o"><use transform="matrix(0.024444444444444446,0,0,0.024444444444444446,0,0)" xlink:href="#ap"/><use transform="matrix(0.024444444444444446,0,0,0.024444444444444446,18.895555555555557,0)" xlink:href="#V"/><use transform="matrix(0.024444444444444446,0,0,0.024444444444444446,38.45111111111112,0)" xlink:href="#V"/><use transform="matrix(0.024444444444444446,0,0,0.024444444444444446,55.66000000000001,0)" xlink:href="#ap"/><use transform="matrix(0.024444444444444446,0,0,0.024444444444444446,76.12,0)" xlink:href="#R"/><use transform="matrix(0.024444444444444446,0,0,0.024444444444444446,96.43333333333334,0)" xlink:href="#aq"/></g><path d="M849-639c-40 2-95-5-112 20L502-274v227h109V0C502-4 367-4 258 0v-47h108v-227L117-639H19v-47c108 5 239 4 348 0v47h-85l203 297c64-96 131-190 194-287-26-10-53-10-76-10v-47c80 5 166 2 246 0v47" id="ar"/><path d="M643-274L612 0H39v-47h108v-592H39v-47c119 5 266 4 385 0v47H289v592h103c179 0 196-158 204-227h47" id="as"/><path d="M817-337C817-123 667 0 470 0H39v-47h108v-592H39v-47h430c198 0 348 129 348 349zM626-131c57-66 61-343 1-419-85-108-188-87-344-89v592c153-3 253 20 343-84" id="at"/><g id="p"><use transform="matrix(0.024444444444444446,0,0,0.024444444444444446,0,0)" xlink:href="#ae"/><use transform="matrix(0.024444444444444446,0,0,0.024444444444444446,16.866666666666667,0)" xlink:href="#ap"/><use transform="matrix(0.024444444444444446,0,0,0.024444444444444446,35.76222222222222,0)" xlink:href="#ar"/><use transform="matrix(0.024444444444444446,0,0,0.024444444444444446,57.004444444444445,0)" xlink:href="#as"/><use transform="matrix(0.024444444444444446,0,0,0.024444444444444446,73.92,0)" xlink:href="#Q"/><use transform="matrix(0.024444444444444446,0,0,0.024444444444444446,94.25777777777779,0)" xlink:href="#ap"/><use transform="matrix(0.024444444444444446,0,0,0.024444444444444446,115.5,0)" xlink:href="#at"/></g><g id="q"><use transform="matrix(0.024444444444444446,0,0,0.024444444444444446,0,0)" xlink:href="#ad"/><use transform="matrix(0.024444444444444446,0,0,0.024444444444444446,15.620000000000001,0)" xlink:href="#Y"/><use transform="matrix(0.024444444444444446,0,0,0.024444444444444446,28.111111111111114,0)" xlink:href="#W"/><use transform="matrix(0.024444444444444446,0,0,0.024444444444444446,39.69777777777778,0)" xlink:href="#U"/><use transform="matrix(0.024444444444444446,0,0,0.024444444444444446,47.495555555555555,0)" xlink:href="#M"/><use transform="matrix(0.024444444444444446,0,0,0.024444444444444446,63.11555555555556,0)" xlink:href="#O"/></g><path d="M723-274L677 0H39v-47h108v-586H39v-47h621l31 241h-47c-16-121-42-194-203-194H289v257h55c97 0 106-43 106-117h47v281h-47c0-74-10-117-106-117h-55v282h152c185 0 213-89 235-227h47" id="au"/><g id="r"><use transform="matrix(0.024444444444444446,0,0,0.024444444444444446,0,0)" xlink:href="#at"/><use transform="matrix(0.024444444444444446,0,0,0.024444444444444446,21.560000000000002,0)" xlink:href="#au"/><use transform="matrix(0.024444444444444446,0,0,0.024444444444444446,40.040000000000006,0)" xlink:href="#V"/><use transform="matrix(0.024444444444444446,0,0,0.024444444444444446,57.24888888888891,0)" xlink:href="#ap"/><use transform="matrix(0.024444444444444446,0,0,0.024444444444444446,77.70888888888891,0)" xlink:href="#R"/><use transform="matrix(0.024444444444444446,0,0,0.024444444444444446,98.02222222222224,0)" xlink:href="#aq"/></g><g id="s"><use transform="matrix(0.044444444444444446,0,0,0.044444444444444446,0,0)" xlink:href="#ap"/><use transform="matrix(0.044444444444444446,0,0,0.044444444444444446,37.2,0)" xlink:href="#O"/><use transform="matrix(0.044444444444444446,0,0,0.044444444444444446,57.06666666666667,0)" xlink:href="#O"/><use transform="matrix(0.044444444444444446,0,0,0.044444444444444446,76.93333333333334,0)" xlink:href="#X"/><use transform="matrix(0.044444444444444446,0,0,0.044444444444444446,101.77777777777779,0)" xlink:href="#Y"/><use transform="matrix(0.044444444444444446,0,0,0.044444444444444446,123.06666666666668,0)" xlink:href="#ai"/><path d="M-2.22 3.82h155.9V6.5H-2.2z"/></g><g id="t"><use transform="matrix(0.044444444444444446,0,0,0.044444444444444446,0,0)" xlink:href="#at"/><use transform="matrix(0.044444444444444446,0,0,0.044444444444444446,39.2,0)" xlink:href="#aa"/><use transform="matrix(0.044444444444444446,0,0,0.044444444444444446,62.62222222222223,0)" xlink:href="#O"/><use transform="matrix(0.044444444444444446,0,0,0.044444444444444446,82.4888888888889,0)" xlink:href="#X"/><use transform="matrix(0.044444444444444446,0,0,0.044444444444444446,107.33333333333334,0)" xlink:href="#Y"/><use transform="matrix(0.044444444444444446,0,0,0.044444444444444446,128.62222222222223,0)" xlink:href="#ai"/><path d="M-2.22 3.82h161.47V6.5H-2.22z"/></g><g id="u"><use transform="matrix(0.024444444444444446,0,0,0.024444444444444446,0,0)" xlink:href="#R"/><use transform="matrix(0.024444444444444446,0,0,0.024444444444444446,20.313333333333336,0)" xlink:href="#ai"/><use transform="matrix(0.024444444444444446,0,0,0.024444444444444446,35.93333333333334,0)" xlink:href="#X"/><use transform="matrix(0.024444444444444446,0,0,0.024444444444444446,49.59777777777778,0)" xlink:href="#L"/><use transform="matrix(0.024444444444444446,0,0,0.024444444444444446,65.21777777777778,0)" xlink:href="#al"/><use transform="matrix(0.024444444444444446,0,0,0.024444444444444446,79.27333333333334,0)" xlink:href="#aa"/></g><g id="v"><use transform="matrix(0.024444444444444446,0,0,0.024444444444444446,0,0)" xlink:href="#ag"/><use transform="matrix(0.024444444444444446,0,0,0.024444444444444446,22.024444444444445,0)" xlink:href="#aa"/><use transform="matrix(0.024444444444444446,0,0,0.024444444444444446,34.906666666666666,0)" xlink:href="#ah"/></g><g id="w"><use transform="matrix(0.024444444444444446,0,0,0.024444444444444446,0,0)" xlink:href="#ae"/><use transform="matrix(0.024444444444444446,0,0,0.024444444444444446,19.213333333333335,0)" xlink:href="#W"/><use transform="matrix(0.024444444444444446,0,0,0.024444444444444446,30.8,0)" xlink:href="#U"/><use transform="matrix(0.024444444444444446,0,0,0.024444444444444446,38.59777777777778,0)" xlink:href="#Y"/><use transform="matrix(0.024444444444444446,0,0,0.024444444444444446,51.08888888888889,0)" xlink:href="#aa"/></g><g id="x"><use transform="matrix(0.024444444444444446,0,0,0.024444444444444446,0,0)" xlink:href="#Q"/><use transform="matrix(0.024444444444444446,0,0,0.024444444444444446,21.12,0)" xlink:href="#N"/><use transform="matrix(0.024444444444444446,0,0,0.024444444444444446,36.74,0)" xlink:href="#O"/><use transform="matrix(0.024444444444444446,0,0,0.024444444444444446,47.66666666666667,0)" xlink:href="#M"/><use transform="matrix(0.024444444444444446,0,0,0.024444444444444446,63.28666666666668,0)" xlink:href="#N"/><use transform="matrix(0.024444444444444446,0,0,0.024444444444444446,78.90666666666668,0)" xlink:href="#O"/></g><path d="M1164-639c-28 2-98-6-95 24L838-18c-6 16-10 26-35 26s-29-10-35-26L594-468 420-18c-6 16-10 26-35 26s-29-10-35-26L110-639H24v-47c101 5 226 4 328 0v47h-96l177 458 136-352-41-106h-86v-47c101 5 226 4 328 0v47h-96l177 458 172-447c-29-11-77-11-102-11v-47c71 5 179 3 243 0v47" id="av"/><g id="y"><use transform="matrix(0.024444444444444446,0,0,0.024444444444444446,0,0)" xlink:href="#ad"/><use transform="matrix(0.024444444444444446,0,0,0.024444444444444446,15.620000000000001,0)" xlink:href="#av"/><use transform="matrix(0.024444444444444446,0,0,0.024444444444444446,41.55555555555556,0)" xlink:href="#ap"/><use transform="matrix(0.024444444444444446,0,0,0.024444444444444446,62.79777777777778,0)" xlink:href="#ae"/></g><path d="M869 149H0v-48h869v48" id="aw"/><path d="M684-610c4-42-67-23-108-29v-47c88 4 181 4 269 0v47c-31 0-54 0-79 3-28 4-29 4-29 26v381c0 123-85 240-275 240-207 0-315-109-315-242v-408H39v-47c111 4 247 4 358 0v47H289v416c0 56 2 187 177 187 109 0 218-49 218-197v-377" id="ax"/><path d="M699-610c4-42-67-23-108-29v-47c88 4 181 4 269 0v47c-31 0-54 0-79 3-28 4-29 4-29 26v578c0 23 0 32-27 32-16 0-17-1-27-13L200-599v523c-4 42 67 23 108 29V0C220-4 127-4 39 0v-47c31 0 54 0 79-3 28-4 29-4 29-26v-563H39v-47h229c21 0 22 1 33 13l398 468v-405" id="ay"/><g id="z"><use transform="matrix(0.024444444444444446,0,0,0.024444444444444446,0,0)" xlink:href="#Q"/><use transform="matrix(0.024444444444444446,0,0,0.024444444444444446,21.12,0)" xlink:href="#ae"/><use transform="matrix(0.024444444444444446,0,0,0.024444444444444446,40.333333333333336,0)" xlink:href="#aw"/><use transform="matrix(0.024444444444444446,0,0,0.024444444444444446,61.57555555555556,0)" xlink:href="#Z"/><use transform="matrix(0.024444444444444446,0,0,0.024444444444444446,82.67111111111112,0)" xlink:href="#au"/><use transform="matrix(0.024444444444444446,0,0,0.024444444444444446,101.15111111111112,0)" xlink:href="#V"/><use transform="matrix(0.024444444444444446,0,0,0.024444444444444446,120.70666666666668,0)" xlink:href="#ax"/><use transform="matrix(0.024444444444444446,0,0,0.024444444444444446,142.34,0)" xlink:href="#Z"/><use transform="matrix(0.024444444444444446,0,0,0.024444444444444446,163.43555555555557,0)" xlink:href="#ay"/></g><g id="A"><use transform="matrix(0.024444444444444446,0,0,0.024444444444444446,0,0)" xlink:href="#am"/><use transform="matrix(0.024444444444444446,0,0,0.024444444444444446,14.837777777777779,0)" xlink:href="#an"/><use transform="matrix(0.024444444444444446,0,0,0.024444444444444446,24.200000000000003,0)" xlink:href="#S"/><use transform="matrix(0.024444444444444446,0,0,0.024444444444444446,38.25555555555556,0)" xlink:href="#L"/><use transform="matrix(0.024444444444444446,0,0,0.024444444444444446,53.87555555555557,0)" xlink:href="#ac"/><use transform="matrix(0.024444444444444446,0,0,0.024444444444444446,61.673333333333346,0)" xlink:href="#ah"/></g><g id="B"><use transform="matrix(0.024444444444444446,0,0,0.024444444444444446,0,0)" xlink:href="#M"/><use transform="matrix(0.024444444444444446,0,0,0.024444444444444446,15.620000000000001,0)" xlink:href="#N"/><use transform="matrix(0.024444444444444446,0,0,0.024444444444444446,31.240000000000002,0)" xlink:href="#af"/><use transform="matrix(0.024444444444444446,0,0,0.024444444444444446,46.86,0)" xlink:href="#ac"/><use transform="matrix(0.024444444444444446,0,0,0.024444444444444446,54.65777777777778,0)" xlink:href="#U"/><use transform="matrix(0.024444444444444446,0,0,0.024444444444444446,62.455555555555556,0)" xlink:href="#Y"/></g><g id="C"><use transform="matrix(0.024444444444444446,0,0,0.024444444444444446,0,0)" xlink:href="#ao"/><use transform="matrix(0.024444444444444446,0,0,0.024444444444444446,14.055555555555557,0)" xlink:href="#aa"/><use transform="matrix(0.024444444444444446,0,0,0.024444444444444446,26.937777777777786,0)" xlink:href="#ah"/></g><path d="M805-397c-59 0-63 8-68 21L593-23c-7 17-11 27-36 27s-29-10-36-27L415-282 309-23c-7 17-11 27-36 27s-29-10-36-27L84-397H25v-47c77 4 155 3 232 0v47h-56l105 258c27-69 57-135 83-205 0 0 0-3-21-53h-59v-47c50 4 154 2 214 0v47h-56l114 280c36-90 74-177 109-268 0-11-49-12-58-12v-47c57 2 116 5 173 0v47" id="az"/><g id="D"><use transform="matrix(0.044444444444444446,0,0,0.044444444444444446,0,0)" xlink:href="#ad"/><use transform="matrix(0.044444444444444446,0,0,0.044444444444444446,28.400000000000002,0)" xlink:href="#az"/><use transform="matrix(0.044444444444444446,0,0,0.044444444444444446,63.91111111111111,0)" xlink:href="#X"/><use transform="matrix(0.044444444444444446,0,0,0.044444444444444446,88.75555555555556,0)" xlink:href="#M"/><path d="M-2.22 3.82h121.6V6.5H-2.22z"/></g><g id="E"><use transform="matrix(0.024444444444444446,0,0,0.024444444444444446,0,0)" xlink:href="#ad"/><use transform="matrix(0.024444444444444446,0,0,0.024444444444444446,15.620000000000001,0)" xlink:href="#aa"/><use transform="matrix(0.024444444444444446,0,0,0.024444444444444446,28.502222222222223,0)" xlink:href="#ac"/><use transform="matrix(0.024444444444444446,0,0,0.024444444444444446,36.3,0)" xlink:href="#ac"/><use transform="matrix(0.024444444444444446,0,0,0.024444444444444446,44.09777777777778,0)" xlink:href="#aa"/><use transform="matrix(0.024444444444444446,0,0,0.024444444444444446,56.980000000000004,0)" xlink:href="#W"/></g><path d="M753-186C753-88 669 0 503 0H39v-47h108v-592H39v-47h434c161 0 248 80 248 172 0 77-65 137-173 156 119 9 205 76 205 172zM579-514c0-46-18-125-119-125H278v264h156c97 0 145-62 145-139zm27 327c0-11 0-67-33-109-34-43-81-43-101-43H278v292h184c144 0 144-128 144-140" id="aA"/><g id="F"><use transform="matrix(0.024444444444444446,0,0,0.024444444444444446,0,0)" xlink:href="#ae"/><use transform="matrix(0.024444444444444446,0,0,0.024444444444444446,19.213333333333335,0)" xlink:href="#ad"/><use transform="matrix(0.024444444444444446,0,0,0.024444444444444446,34.833333333333336,0)" xlink:href="#aA"/><use transform="matrix(0.024444444444444446,0,0,0.024444444444444446,54.82888888888889,0)" xlink:href="#V"/></g><g id="G"><use transform="matrix(0.024444444444444446,0,0,0.024444444444444446,0,0)" xlink:href="#aA"/><use transform="matrix(0.024444444444444446,0,0,0.024444444444444446,19.995555555555555,0)" xlink:href="#N"/><use transform="matrix(0.024444444444444446,0,0,0.024444444444444446,35.61555555555556,0)" xlink:href="#ah"/><use transform="matrix(0.024444444444444446,0,0,0.024444444444444446,49.67111111111112,0)" xlink:href="#aa"/><use transform="matrix(0.024444444444444446,0,0,0.024444444444444446,62.553333333333335,0)" xlink:href="#W"/></g><g id="H"><use transform="matrix(0.024444444444444446,0,0,0.024444444444444446,0,0)" xlink:href="#K"/><use transform="matrix(0.024444444444444446,0,0,0.024444444444444446,10.657777777777778,0)" xlink:href="#L"/><use transform="matrix(0.024444444444444446,0,0,0.024444444444444446,26.27777777777778,0)" xlink:href="#M"/><use transform="matrix(0.024444444444444446,0,0,0.024444444444444446,41.897777777777776,0)" xlink:href="#N"/><use transform="matrix(0.024444444444444446,0,0,0.024444444444444446,57.51777777777778,0)" xlink:href="#O"/><use transform="matrix(0.024444444444444446,0,0,0.024444444444444446,68.44444444444444,0)" xlink:href="#P"/></g><g id="I"><use transform="matrix(0.024444444444444446,0,0,0.024444444444444446,0,0)" xlink:href="#X"/><use transform="matrix(0.024444444444444446,0,0,0.024444444444444446,13.664444444444445,0)" xlink:href="#L"/><use transform="matrix(0.024444444444444446,0,0,0.024444444444444446,29.284444444444446,0)" xlink:href="#aj"/></g><g id="J"><use transform="matrix(0.024444444444444446,0,0,0.024444444444444446,0,0)" xlink:href="#Q"/><use transform="matrix(0.024444444444444446,0,0,0.024444444444444446,21.12,0)" xlink:href="#N"/><use transform="matrix(0.024444444444444446,0,0,0.024444444444444446,36.74,0)" xlink:href="#O"/><use transform="matrix(0.024444444444444446,0,0,0.024444444444444446,47.66666666666667,0)" xlink:href="#M"/><use transform="matrix(0.024444444444444446,0,0,0.024444444444444446,63.28666666666668,0)" xlink:href="#N"/><use transform="matrix(0.024444444444444446,0,0,0.024444444444444446,78.90666666666668,0)" xlink:href="#O"/><use transform="matrix(0.024444444444444446,0,0,0.024444444444444446,89.83333333333334,0)" xlink:href="#P"/></g></defs></g></svg>