<svg xmlns="http://www.w3.org/2000/svg" xmlns:xlink="http://www.w3.org/1999/xlink" xmlns:lucid="lucid" width="1042" height="1382"><g transform="translate(-699 261)" lucid:page-tab-id="_E~fHwNRh4G9"><path d="M700-54a6 6 0 0 1 6-6h1028a6 6 0 0 1 6 6v988a6 6 0 0 1-6 6H706a6 6 0 0 1-6-6z" stroke="#282c33" stroke-width="2" fill-opacity=".07"/><path d="M875 318c0 6.63-26.86 12-60 12s-60-5.37-60-12v-96c0-6.63 26.86-12 60-12s60 5.37 60 12z" stroke="#3a414a" stroke-width="3" fill="#fff7a1" fill-opacity=".25"/><path d="M875 222c0 6.63-26.86 12-60 12s-60-5.37-60-12" stroke="#3a414a" stroke-width="3" fill="none"/><use xlink:href="#a" transform="matrix(1,0,0,1,760,239) translate(14.898888888888884 38.514722222222225)"/><use xlink:href="#b" transform="matrix(1,0,0,1,760,239) translate(37.00888888888889 62.959166666666675)"/><path d="M815 187.88v-46.26" stroke="#3a414a" stroke-width="3" fill="none"/><path d="M815 203.65l-4.63-14.27h9.26zM815 125.85l4.63 14.27h-9.26z" stroke="#3a414a" stroke-width="3" fill="#3a414a"/><path d="M896.62 60h241.76" stroke="#3a414a" stroke-width="3" fill="none"/><path d="M880.85 60l14.27-4.63v9.27zM1154.15 60l-14.27 4.64v-9.27z" stroke="#3a414a" stroke-width="3" fill="#3a414a"/><path d="M1280 318c0 6.63-26.86 12-60 12s-60-5.37-60-12v-96c0-6.63 26.86-12 60-12s60 5.37 60 12z" stroke="#3a414a" stroke-width="3" fill="#fff7a1" fill-opacity=".25"/><path d="M1280 222c0 6.63-26.86 12-60 12s-60-5.37-60-12" stroke="#3a414a" stroke-width="3" fill="none"/><use xlink:href="#c" transform="matrix(1,0,0,1,1165,239) translate(27.157777777777778 38.514722222222225)"/><use xlink:href="#b" transform="matrix(1,0,0,1,1165,239) translate(37.00888888888889 62.959166666666675)"/><path d="M1220 207v-65.38" stroke="#3a414a" stroke-width="3" fill="none"/><path d="M1221.47 208.56l-1.47-.06-1.47.05v-1.6h2.94z" stroke="#3a414a" stroke-width=".05" fill="#3a414a"/><path d="M1220 125.85l4.63 14.27h-9.27z" stroke="#3a414a" stroke-width="3" fill="#3a414a"/><path d="M1310 530c0 49.7-40.3 90-90 90s-90-40.3-90-90 40.3-90 90-90 90 40.3 90 90z" stroke="#282c33" stroke-width="3" fill="#333"/><use xlink:href="#d" transform="matrix(1,0,0,1,1135,445) translate(43.383333333333326 94.07722222222222)"/><path d="M1220 437v-84.88" stroke="#3a414a" stroke-width="3" fill="none"/><path d="M1221.47 438.54l-1.45-.04h-1.49v-1.54h2.94z" stroke="#3a414a" stroke-width=".05" fill="#3a414a"/><path d="M1220 336.36l4.63 14.26h-9.27z" stroke="#3a414a" stroke-width="3" fill="#3a414a"/><path d="M1080 426a6 6 0 0 1 6-6h108a6 6 0 0 1 6 6v68a6 6 0 0 1-6 6h-108a6 6 0 0 1-6-6z" stroke="#282c33" stroke-width="2" fill="#333"/><use xlink:href="#e" transform="matrix(1,0,0,1,1092,432) translate(0.7733333333333263 23.202222222222225)"/><use xlink:href="#f" transform="matrix(1,0,0,1,1092,432) translate(8.742222222222217 47.646666666666675)"/><path d="M1140 417.5V385a6 6 0 0 0-6-6h-43a6 6 0 0 1-6-6v-97a6 6 0 0 1 6-6h46.88" stroke="#3a414a" stroke-width="3" fill="none"/><path d="M1141.47 419h-2.94v-1.54h2.94z" stroke="#3a414a" stroke-width=".05" fill="#3a414a"/><path d="M1153.65 270l-14.27 4.63v-9.26z" stroke="#3a414a" stroke-width="3" fill="#3a414a"/><path d="M1020 686a6 6 0 0 1 6-6h388a6 6 0 0 1 6 6v68a6 6 0 0 1-6 6h-388a6 6 0 0 1-6-6z" stroke="#282c33" stroke-width="2" fill="#a3e784" fill-opacity=".5"/><use xlink:href="#g" transform="matrix(1,0,0,1,1032,692) translate(90.1611111111111 23.202222222222225)"/><use xlink:href="#h" transform="matrix(1,0,0,1,1032,692) translate(176.79222222222222 23.202222222222225)"/><use xlink:href="#i" transform="matrix(1,0,0,1,1032,692) translate(197.15444444444444 23.202222222222225)"/><use xlink:href="#j" transform="matrix(1,0,0,1,1032,692) translate(132.80444444444444 47.646666666666675)"/><path d="M1220 677.5v-35.38" stroke="#3a414a" stroke-width="3" fill="none"/><path d="M1221.47 679h-2.94v-1.54h2.94z" stroke="#3a414a" stroke-width=".05" fill="#3a414a"/><path d="M1220 626.35l4.63 14.27h-9.27z" stroke="#3a414a" stroke-width="3" fill="#3a414a"/><path d="M740-254a6 6 0 0 1 6-6h138a6 6 0 0 1 6 6v68a6 6 0 0 1-6 6H746a6 6 0 0 1-6-6z" stroke="#282c33" stroke-width="2" fill="#003d87"/><use xlink:href="#k" transform="matrix(1,0,0,1,745,-255) translate(41.55888888888889 41.577222222222225)"/><path d="M815-2.5v-155.88" stroke="#3a414a" stroke-width="3" fill="none"/><path d="M816.48-1h-2.96v-1.54h2.96z" stroke="#3a414a" stroke-width=".05" fill="#3a414a"/><path d="M815-174.15l4.63 14.27h-9.26z" stroke="#3a414a" stroke-width="3" fill="#3a414a"/><path d="M1010-254a6 6 0 0 1 6-6h138a6 6 0 0 1 6 6v68a6 6 0 0 1-6 6h-138a6 6 0 0 1-6-6z" stroke="#282c33" stroke-width="2" fill="#8ea6d7" fill-opacity=".5"/><use xlink:href="#l" transform="matrix(1,0,0,1,1015,-255) translate(37.745555555555555 41.577222222222225)"/><path d="M1220-2.5V-94a6 6 0 0 0-6-6h-123a6 6 0 0 1-6-6v-52.38" stroke="#3a414a" stroke-width="3" fill="none"/><path d="M1221.47-1h-2.94v-1.54h2.94z" stroke="#3a414a" stroke-width=".05" fill="#3a414a"/><path d="M1085-174.15l4.63 14.27h-9.27z" stroke="#3a414a" stroke-width="3" fill="#3a414a"/><path d="M1220-2.5V-124a6 6 0 0 1 6-6h123a6 6 0 0 0 6-6v-22.38" stroke="#3a414a" stroke-width="3" fill="none"/><path d="M1221.47-1h-2.94v-1.54h2.94z" stroke="#3a414a" stroke-width=".05" fill="#3a414a"/><path d="M1355-174.15l4.63 14.27h-9.27z" stroke="#3a414a" stroke-width="3" fill="#3a414a"/><path d="M1280-254a6 6 0 0 1 6-6h138a6 6 0 0 1 6 6v68a6 6 0 0 1-6 6h-138a6 6 0 0 1-6-6z" stroke="#282c33" stroke-width="2" fill="#8ea6d7" fill-opacity=".5"/><use xlink:href="#m" transform="matrix(1,0,0,1,1285,-255) translate(44.35777777777778 41.577222222222225)"/><path d="M755 6a6 6 0 0 1 6-6h108a6 6 0 0 1 6 6v108a6 6 0 0 1-6 6H761a6 6 0 0 1-6-6z" stroke="#282c33" stroke-width="2" fill="#a3e784" fill-opacity=".5"/><use xlink:href="#n" transform="matrix(1,0,0,1,767,12) translate(7.898888888888884 43.702222222222225)"/><use xlink:href="#o" transform="matrix(1,0,0,1,767,12) translate(7.923333333333332 68.14666666666668)"/><path d="M1160 6a6 6 0 0 1 6-6h108a6 6 0 0 1 6 6v108a6 6 0 0 1-6 6h-108a6 6 0 0 1-6-6z" stroke="#282c33" stroke-width="2" fill="#a3e784" fill-opacity=".5"/><use xlink:href="#n" transform="matrix(1,0,0,1,1172,12) translate(7.898888888888884 43.702222222222225)"/><use xlink:href="#o" transform="matrix(1,0,0,1,1172,12) translate(7.923333333333332 68.14666666666668)"/><path d="M1565 6a6 6 0 0 1 6-6h108a6 6 0 0 1 6 6v108a6 6 0 0 1-6 6h-108a6 6 0 0 1-6-6z" stroke="#282c33" stroke-width="2" fill="#a3e784" fill-opacity=".5"/><use xlink:href="#p" transform="matrix(1,0,0,1,1577,12) translate(15.342222222222219 31.035555555555547)"/><use xlink:href="#q" transform="matrix(1,0,0,1,1577,12) translate(-1.5244444444444554 55.48)"/><use xlink:href="#r" transform="matrix(1,0,0,1,1577,12) translate(14.657777777777781 79.92444444444445)"/><path d="M1313 530h306a6 6 0 0 0 6-6V141.62" stroke="#3a414a" stroke-width="3" fill="none"/><path d="M1313.04 531.48h-1.58l.04-1.47v-1.47h1.54z" stroke="#3a414a" stroke-width=".05" fill="#3a414a"/><path d="M1625 125.85l4.63 14.27h-9.27z" stroke="#3a414a" stroke-width="3" fill="#3a414a"/><path d="M1550-254a6 6 0 0 1 6-6h138a6 6 0 0 1 6 6v68a6 6 0 0 1-6 6h-138a6 6 0 0 1-6-6z" stroke="#282c33" stroke-width="2" fill="#8ea6d7" fill-opacity=".5"/><use xlink:href="#l" transform="matrix(1,0,0,1,1555,-255) translate(37.745555555555555 41.577222222222225)"/><path d="M1625-2.5v-155.88" stroke="#3a414a" stroke-width="3" fill="none"/><path d="M1626.47-1h-2.94v-1.54h2.94z" stroke="#3a414a" stroke-width=".05" fill="#3a414a"/><path d="M1625-174.15l4.63 14.27h-9.27z" stroke="#3a414a" stroke-width="3" fill="#3a414a"/><path d="M1020 1006a6 6 0 0 1 6-6h388a6 6 0 0 1 6 6v108a6 6 0 0 1-6 6h-388a6 6 0 0 1-6-6z" stroke="#282c33" stroke-width="2" fill="#37352f" fill-opacity=".65"/><use xlink:href="#s" transform="matrix(1,0,0,1,1032,1012) translate(149.46333333333334 55.702222222222225)"/><path d="M1310.44 854.06l-.08 1.1-.28 1.15-.45 1.1-.6 1-.77.9-.9.75-1 .6-1.08.46-1.14.3-1.1.08h-76.98l-.77.05-.7.17-.65.27-.6.37-.55.46-.46.54-.37.6-.27.66-.16.7-.07.76V997.5h-2.94V865.94l.08-1.1.3-1.15.44-1.1.6-1 .77-.9.9-.75 1-.6 1.1-.46 1.13-.3 1.1-.08h76.98l.78-.05.7-.17.64-.27.6-.37.55-.46.46-.54.37-.6.27-.66.16-.7.06-.76V838.8h2.94zm0-39.7h-2.95v-32.74h2.94z" stroke="#3a414a" stroke-width=".05" fill="#3a414a"/><path d="M1221.47 999h-2.94v-1.54h2.94z" fill="#3a414a"/><path stroke="#3a414a" stroke-width=".05" fill="#3a414a"/><path d="M1313.6 780.12h-9.27l4.64-14.27z" fill="#3a414a"/><path d="M1315.63 781.6h-13.33l6.67-20.52zm-9.27-2.96h5.2l-2.6-8z" stroke="#3a414a" stroke-width=".05" fill="#3a414a"/><use xlink:href="#t" transform="matrix(1,0,0,1,1282.8256497158995,814.3695406185652) translate(0.004999999999999005 19.702222222222225)"/><path d="M1127.36 883.94l.06.77.16.7.27.65.38.6.45.55.54.46.6.37.66.27.7.17.76.05h82.12l1.1.1 1.15.27 1.1.44 1 .6.9.77.75.9.6 1 .46 1.1.3 1.13.07 1.1V997.5h-2.94V896.06l-.07-.77-.16-.7-.27-.65-.37-.6-.46-.55-.54-.46-.6-.37-.66-.27-.7-.17-.76-.05h-82.12l-1.1-.1-1.15-.27-1.08-.44-1.02-.6-.9-.77-.75-.9-.6-1-.46-1.1-.28-1.13-.1-1.1V839h2.96zm0-69.37h-2.95v-32.95h2.96z" stroke="#3a414a" stroke-width=".05" fill="#3a414a"/><path d="M1221.47 999h-2.94v-1.54h2.94z" fill="#3a414a"/><path stroke="#3a414a" stroke-width=".05" fill="#3a414a"/><path d="M1130.52 780.12h-9.27l4.63-14.27z" fill="#3a414a"/><path d="M1132.55 781.6h-13.33l6.66-20.52zm-9.27-2.96h5.2l-2.6-8z" stroke="#3a414a" stroke-width=".05" fill="#3a414a"/><g><use xlink:href="#u" transform="matrix(1,0,0,1,1081.3683508799977,814.5700699341862) translate(0.005000000000002558 19.702222222222225)"/></g><path d="M1393.64-158.38V-86a6 6 0 0 0 6 6H1464a6 6 0 0 1 6 6v1128a6 6 0 0 1-6 6h-22.38" stroke="#3a414a" stroke-width="3" fill="none"/><path d="M1393.64-174.15l4.63 14.27H1389zM1425.85 1060l14.27-4.63v9.27z" stroke="#3a414a" stroke-width="3" fill="#3a414a"/><path d="M700 866a6 6 0 0 1 6-6h268a6 6 0 0 1 6 6v68a6 6 0 0 1-6 6H706a6 6 0 0 1-6-6z" fill="none"/><g><use xlink:href="#v" transform="matrix(1,0,0,1,700,860) translate(10.349999999999994 50.2)"/><use xlink:href="#w" transform="matrix(1,0,0,1,700,860) translate(141.35 50.2)"/></g><defs><path fill="#3a414a" d="M499-186c0 110-80 208-197 208-89 0-153-36-184-70C85 5 82 9 82 9c-7 11-8 13-15 13-11 0-11-7-11-24v-200c0-18 0-25 13-25 3 0 11 0 12 10 1 36 4 100 62 154C196-14 272-9 301-9c121-1 172-148 103-235-32-63-188-65-217-84-78-27-131-100-131-183 0-106 84-194 195-194 89 0 130 41 160 70l35-57c7-12 8-13 15-13 11 0 11 7 11 24v201c9 30-23 29-25 12-4-45-28-209-195-209-78 0-132 61-132 131 0 58 39 112 101 127l128 31c84 20 150 102 150 202" id="x"/><path fill="#3a414a" d="M332-181c6 95-8 192-99 192-36 0-129-12-129-135v-276H19v-22c98-4 128-111 129-193h25v184h143v31H173v278c0 17 0 108 67 108 37 0 67-38 67-112v-55h25" id="y"/><path fill="#3a414a" d="M471-214C471-87 370 11 249 11 132 11 28-85 28-214c0-125 97-234 222-234 121 0 221 106 221 234zm-83-8c0-38 0-96-26-139-54-86-173-89-227 2-26 43-24 98-24 137 0 36 0 97 25 141 52 95 186 84 230-7 21-44 22-98 22-134" id="z"/><path fill="#3a414a" d="M364-381c0 61-82 56-86 1-2-32 40-40 12-40-76 0-118 89-118 188v154c0 36 2 47 76 47h21V0C189-6 108-2 28 0v-31c67 0 78 0 78-45v-268c0-49-8-56-78-56v-31l139-11v110c14-43 50-110 123-110 43 0 74 29 74 61" id="A"/><path fill="#3a414a" d="M493-89c0 81-61 95-82 95-47 0-74-42-78-82-19 47-65 87-131 87C139 11 42-14 42-95c0-44 25-95 100-130 63-29 133-33 184-36 13-102-46-165-106-165-32 0-81 11-108 46 46 1 51 34 51 46 0 26-18 46-46 46-26 0-46-17-46-47 0-66 69-113 151-113 48 0 98 16 137 55 36 37 36 76 36 118v200c0 5 4 50 37 50 11 0 36-6 36-64v-56h25v56zm-167-51v-100c-165 6-207 89-207 144 0 50 41 85 90 85 45 0 117-34 117-129" id="B"/><path fill="#3a414a" d="M106-133c5 63 46 68 128 68 61 0 119 0 172 28 51 28 65 79 65 114 0 78-104 129-222 129-122 0-221-55-221-127 0-40 32-83 92-100-60-35-51-132-13-172-25-21-47-59-47-103 0-115 158-199 268-110 42-41 86-47 106-47 60-1 66 75 22 79-30 3-40-46-13-56-30-3-57 2-100 38 92 89 17 248-121 243-19 0-60-3-99-31-17 20-17 43-17 47zm116-39c75 0 86-58 87-124 0-23 0-123-87-123-75 0-86 58-87 124 0 23 0 123 87 123zM419 79C419-25 266-7 162-7c-44 0-82 40-82 86 0 53 69 104 170 104 98 0 169-50 169-104" id="C"/><path fill="#3a414a" d="M415-119c0 19-45 130-167 130C133 11 28-86 28-220c0-125 92-228 208-228 125 0 179 97 179 196 0 21-3 21-25 21H111c0 36 0 102 30 150 23 37 63 67 113 67 10 0 100 0 135-103 0-16 26-21 26-2zm-66-133c0-39-10-174-113-174-34 0-118 25-124 174h237" id="D"/><g id="a"><use transform="matrix(0.024444444444444446,0,0,0.024444444444444446,0,0)" xlink:href="#x"/><use transform="matrix(0.024444444444444446,0,0,0.024444444444444446,13.591111111111111,0)" xlink:href="#y"/><use transform="matrix(0.024444444444444446,0,0,0.024444444444444446,23.1,0)" xlink:href="#z"/><use transform="matrix(0.024444444444444446,0,0,0.024444444444444446,35.32222222222222,0)" xlink:href="#A"/><use transform="matrix(0.024444444444444446,0,0,0.024444444444444446,44.904444444444444,0)" xlink:href="#B"/><use transform="matrix(0.024444444444444446,0,0,0.024444444444444446,57.12666666666667,0)" xlink:href="#C"/><use transform="matrix(0.024444444444444446,0,0,0.024444444444444446,69.3488888888889,0)" xlink:href="#D"/></g><path fill="#3a414a" d="M707-336C707-148 569 0 401 0H35v-31h24c77 0 79-11 79-47v-527c0-36-2-47-79-47H35v-31h366c171 0 306 157 306 347zM552-116c68-84 82-339 3-443-77-102-146-96-282-93-47 0-49 7-49 40v541c0 33 2 40 49 40h101c101 0 157-59 178-85" id="E"/><path fill="#3a414a" d="M651-183C651-89 561 0 428 0H36v-31h24c77 0 79-11 79-47v-527c0-36-2-47-79-47H36v-31h366c130 0 222 82 222 169 0 74-69 138-166 157 111 12 193 87 193 174zM527-514c0-53-35-138-132-138H271c-47 0-49 7-49 40v246h145c111 0 160-84 160-148zm24 330c0-67-42-160-141-160H222v273c0 33 2 40 49 40h125c103 0 155-82 155-153" id="F"/><g id="b"><use transform="matrix(0.024444444444444446,0,0,0.024444444444444446,0,0)" xlink:href="#E"/><use transform="matrix(0.024444444444444446,0,0,0.024444444444444446,18.675555555555558,0)" xlink:href="#F"/></g><g id="c"><use transform="matrix(0.024444444444444446,0,0,0.024444444444444446,0,0)" xlink:href="#x"/><use transform="matrix(0.024444444444444446,0,0,0.024444444444444446,13.591111111111111,0)" xlink:href="#y"/><use transform="matrix(0.024444444444444446,0,0,0.024444444444444446,23.1,0)" xlink:href="#B"/><use transform="matrix(0.024444444444444446,0,0,0.024444444444444446,35.32222222222222,0)" xlink:href="#y"/><use transform="matrix(0.024444444444444446,0,0,0.024444444444444446,44.83111111111111,0)" xlink:href="#D"/></g><path fill="#fff" d="M732-88c0 28-17 110-95 110-30 0-85-5-126-42s-41-78-41-143c0-67 2-100-38-134-69-59-113-26-208-34v253c0 36 2 47 79 47h24V0C235-4 127-4 35 0v-31h24c77 0 79-11 79-47v-527c0-36-2-47-79-47H35v-31h314c147 0 261 84 261 180 0 78-78 139-175 163 55 19 111 50 122 116l13 80C584-51 592 0 641 0c25 0 60-18 66-89 1-7 1-16 12-16 13 0 13 11 13 17zM305-652c-45 0-81-10-81 40v259h111c148 0 172-81 172-150 0-145-112-149-202-149" id="G"/><path fill="#fff" d="M415-119c0 19-45 130-167 130C133 11 28-86 28-220c0-125 92-228 208-228 125 0 179 97 179 196 0 21-3 21-25 21H111c0 36 0 102 30 150 23 37 63 67 113 67 10 0 100 0 135-103 0-16 26-21 26-2zm-66-133c0-39-10-174-113-174-34 0-118 25-124 174h237" id="H"/><path fill="#fff" d="M493-89c0 81-61 95-82 95-47 0-74-42-78-82-19 47-65 87-131 87C139 11 42-14 42-95c0-44 25-95 100-130 63-29 133-33 184-36 13-102-46-165-106-165-32 0-81 11-108 46 46 1 51 34 51 46 0 26-18 46-46 46-26 0-46-17-46-47 0-66 69-113 151-113 48 0 98 16 137 55 36 37 36 76 36 118v200c0 5 4 50 37 50 11 0 36-6 36-64v-56h25v56zm-167-51v-100c-165 6-207 89-207 144 0 50 41 85 90 85 45 0 117-34 117-129" id="I"/><path fill="#fff" d="M415-119c0 10-32 130-166 130C133 11 34-88 34-216c0-124 92-232 217-232 77 0 153 39 153 107 0 30-20 47-46 47-28 0-46-20-46-46 0-13 6-43 47-46-35-36-98-37-107-37-53 0-135 42-135 205 0 161 88 204 141 204 37 0 102-12 131-105 1-11 26-17 26 0" id="J"/><path fill="#fff" d="M332-181c6 95-8 192-99 192-36 0-129-12-129-135v-276H19v-22c98-4 128-111 129-193h25v184h143v31H173v278c0 17 0 108 67 108 37 0 67-38 67-112v-55h25" id="K"/><path fill="#fff" d="M471-214C471-87 370 11 249 11 132 11 28-85 28-214c0-125 97-234 222-234 121 0 221 106 221 234zm-83-8c0-38 0-96-26-139-54-86-173-89-227 2-26 43-24 98-24 137 0 36 0 97 25 141 52 95 186 84 230-7 21-44 22-98 22-134" id="L"/><path fill="#fff" d="M364-381c0 61-82 56-86 1-2-32 40-40 12-40-76 0-118 89-118 188v154c0 36 2 47 76 47h21V0C189-6 108-2 28 0v-31c67 0 78 0 78-45v-268c0-49-8-56-78-56v-31l139-11v110c14-43 50-110 123-110 43 0 74 29 74 61" id="M"/><g id="d"><use transform="matrix(0.024444444444444446,0,0,0.024444444444444446,0,0)" xlink:href="#G"/><use transform="matrix(0.024444444444444446,0,0,0.024444444444444446,17.991111111111113,0)" xlink:href="#H"/><use transform="matrix(0.024444444444444446,0,0,0.024444444444444446,28.844444444444445,0)" xlink:href="#I"/><use transform="matrix(0.024444444444444446,0,0,0.024444444444444446,41.06666666666667,0)" xlink:href="#J"/><use transform="matrix(0.024444444444444446,0,0,0.024444444444444446,51.92,0)" xlink:href="#K"/><use transform="matrix(0.024444444444444446,0,0,0.024444444444444446,61.42888888888889,0)" xlink:href="#L"/><use transform="matrix(0.024444444444444446,0,0,0.024444444444444446,73.65111111111112,0)" xlink:href="#M"/></g><path fill="#fff" d="M665-233c0 116-98 255-261 255C218 22 56-135 56-342c0-204 161-363 348-363 96 0 147 50 184 86l50-74c13-20 27-17 27 12v237c0 21 0 24-16 24-14 0-14-3-16-17-20-146-109-237-218-237-61 0-256 34-256 333C159-43 355-9 416-9c109 0 216-82 224-225 1-10 1-16 12-16 13 0 13 7 13 17" id="N"/><path fill="#fff" d="M535 0c-75-3-150-3-225 0v-31c67 0 78 0 78-45v-233c0-57-11-111-74-111-64 0-135 56-135 160v184c0 45 11 45 78 45V0C182-3 107-3 32 0v-31c67 0 78 0 78-45v-268c0-49-8-56-78-56v-31l141-11v105c28-62 75-105 148-105 58 0 90 21 105 37 53 55 23 235 31 344 2 30 26 30 78 30V0" id="O"/><g id="e"><use transform="matrix(0.024444444444444446,0,0,0.024444444444444446,0,0)" xlink:href="#N"/><use transform="matrix(0.024444444444444446,0,0,0.024444444444444446,17.64888888888889,0)" xlink:href="#L"/><use transform="matrix(0.024444444444444446,0,0,0.024444444444444446,29.871111111111112,0)" xlink:href="#O"/><use transform="matrix(0.024444444444444446,0,0,0.024444444444444446,42.77777777777778,0)" xlink:href="#K"/><use transform="matrix(0.024444444444444446,0,0,0.024444444444444446,52.28666666666667,0)" xlink:href="#M"/><use transform="matrix(0.024444444444444446,0,0,0.024444444444444446,61.86888888888889,0)" xlink:href="#I"/><use transform="matrix(0.024444444444444446,0,0,0.024444444444444446,74.09111111111112,0)" xlink:href="#J"/><use transform="matrix(0.024444444444444446,0,0,0.024444444444444446,84.94444444444446,0)" xlink:href="#K"/></g><path fill="#fff" d="M535 0L391 11v-90c-29 62-73 90-129 90-152 0-152-91-152-169v-150c0-89 0-92-78-92v-31l147-11v332c0 52 4 99 88 99 73 0 121-68 121-155v-178c0-49-8-56-78-56v-31l147-11v355c0 49 8 56 78 56V0" id="P"/><g id="f"><use transform="matrix(0.024444444444444446,0,0,0.024444444444444446,0,0)" xlink:href="#G"/><use transform="matrix(0.024444444444444446,0,0,0.024444444444444446,17.30666666666667,0)" xlink:href="#P"/><use transform="matrix(0.024444444444444446,0,0,0.024444444444444446,30.89777777777778,0)" xlink:href="#O"/><use transform="matrix(0.024444444444444446,0,0,0.024444444444444446,44.488888888888894,0)" xlink:href="#O"/><use transform="matrix(0.024444444444444446,0,0,0.024444444444444446,58.080000000000005,0)" xlink:href="#H"/><use transform="matrix(0.024444444444444446,0,0,0.024444444444444446,68.93333333333334,0)" xlink:href="#M"/></g><path fill="#3a414a" d="M610-455h-25c-16-138-41-194-191-194H274c-47 0-49 7-49 40v253h86c96 0 106-33 106-117h25v265h-25c0-85-10-117-106-117h-86v246c0 35 0 48 95 48h33V0C254-4 132-5 33 0v-31h24c77 0 79-11 79-47v-524c0-36-2-47-79-47H33v-31h549" id="Q"/><path fill="#3a414a" d="M415-119c0 10-32 130-166 130C133 11 34-88 34-216c0-124 92-232 217-232 77 0 153 39 153 107 0 30-20 47-46 47-28 0-46-20-46-46 0-13 6-43 47-46-35-36-98-37-107-37-53 0-135 42-135 205 0 161 88 204 141 204 37 0 102-12 131-105 1-11 26-17 26 0" id="R"/><path fill="#3a414a" d="M535 0c-75-3-150-3-225 0v-31c67 0 78 0 78-45v-233c0-57-11-111-74-111-64 0-135 56-135 160v184c0 45 11 45 78 45V0C182-3 107-3 32 0v-31c67 0 78 0 78-45v-520c0-49-8-56-78-56v-31l144-11c1 116-1 234 1 348 16-36 60-96 144-96 58 0 90 21 105 37 53 55 23 235 31 344 2 30 26 30 78 30V0" id="S"/><g id="g"><use transform="matrix(0.024444444444444446,0,0,0.024444444444444446,0,0)" xlink:href="#Q"/><use transform="matrix(0.024444444444444446,0,0,0.024444444444444446,13.933333333333334,0)" xlink:href="#D"/><use transform="matrix(0.024444444444444446,0,0,0.024444444444444446,24.78666666666667,0)" xlink:href="#y"/><use transform="matrix(0.024444444444444446,0,0,0.024444444444444446,34.29555555555556,0)" xlink:href="#R"/><use transform="matrix(0.024444444444444446,0,0,0.024444444444444446,44.464444444444446,0)" xlink:href="#S"/><use transform="matrix(0.024444444444444446,0,0,0.024444444444444446,58.05555555555556,0)" xlink:href="#D"/><use transform="matrix(0.024444444444444446,0,0,0.024444444444444446,68.9088888888889,0)" xlink:href="#A"/></g><path fill="#3a414a" d="M423-750c18 5 24 14 15 38L97 230c1 24-42 27-41 0C169-92 287-410 402-730c3-10 7-20 21-20" id="T"/><use transform="matrix(0.024444444444444446,0,0,0.024444444444444446,0,0)" xlink:href="#T" id="h"/><path fill="#3a414a" d="M255 0C181-3 107-3 33 0v-31c67 0 78 0 78-45v-520c0-49-8-56-78-56v-31l144-11v618c0 45 11 45 78 45V0" id="U"/><path fill="#3a414a" d="M347-330c-22-50-12-74-86-70v-31c64 5 128 2 193 0v31c-28-4-77 9-54 46l99 279c31-93 68-181 96-277 0-29-22-47-58-48v-31c56 2 111 5 166 0v31c-35 1-66 14-84 64L502-8c-4 10-7 19-20 19s-16-8-20-19L360-292 259-9c-5 14-7 20-20 20s-16-8-21-22L92-365c-12-32-24-35-74-35v-31c67 4 134 3 202 0v31c-27-3-77 8-54 45l95 267" id="V"/><g id="i"><use transform="matrix(0.024444444444444446,0,0,0.024444444444444446,0,0)" xlink:href="#Q"/><use transform="matrix(0.024444444444444446,0,0,0.024444444444444446,13.933333333333334,0)" xlink:href="#z"/><use transform="matrix(0.024444444444444446,0,0,0.024444444444444446,26.15555555555556,0)" xlink:href="#U"/><use transform="matrix(0.024444444444444446,0,0,0.024444444444444446,32.95111111111112,0)" xlink:href="#U"/><use transform="matrix(0.024444444444444446,0,0,0.024444444444444446,39.74666666666667,0)" xlink:href="#z"/><use transform="matrix(0.024444444444444446,0,0,0.024444444444444446,51.284444444444446,0)" xlink:href="#V"/><use transform="matrix(0.024444444444444446,0,0,0.024444444444444446,68.2488888888889,0)" xlink:href="#D"/><use transform="matrix(0.024444444444444446,0,0,0.024444444444444446,79.10222222222224,0)" xlink:href="#A"/></g><path fill="#3a414a" d="M732-88c0 28-17 110-95 110-30 0-85-5-126-42s-41-78-41-143c0-67 2-100-38-134-69-59-113-26-208-34v253c0 36 2 47 79 47h24V0C235-4 127-4 35 0v-31h24c77 0 79-11 79-47v-527c0-36-2-47-79-47H35v-31h314c147 0 261 84 261 180 0 78-78 139-175 163 55 19 111 50 122 116l13 80C584-51 592 0 641 0c25 0 60-18 66-89 1-7 1-16 12-16 13 0 13 11 13 17zM305-652c-45 0-81-10-81 40v259h111c148 0 172-81 172-150 0-145-112-149-202-149" id="W"/><path fill="#3a414a" d="M535 0c-75-3-150-3-225 0v-31c67 0 78 0 78-45v-233c0-57-11-111-74-111-64 0-135 56-135 160v184c0 45 11 45 78 45V0C182-3 107-3 32 0v-31c67 0 78 0 78-45v-268c0-49-8-56-78-56v-31l141-11v105c28-62 75-105 148-105 58 0 90 21 105 37 53 55 23 235 31 344 2 30 26 30 78 30V0" id="X"/><path fill="#3a414a" d="M247 0C177-4 104-3 33 0v-31c67 0 78 0 78-45v-269c0-49-9-55-74-55v-31l140-11v367c0 39 4 44 70 44V0zM139-657c67 0 72 105-1 106-67 0-72-105 1-106" id="Y"/><g id="j"><use transform="matrix(0.024444444444444446,0,0,0.024444444444444446,0,0)" xlink:href="#W"/><use transform="matrix(0.024444444444444446,0,0,0.024444444444444446,17.991111111111113,0)" xlink:href="#D"/><use transform="matrix(0.024444444444444446,0,0,0.024444444444444446,28.844444444444445,0)" xlink:href="#R"/><use transform="matrix(0.024444444444444446,0,0,0.024444444444444446,39.69777777777778,0)" xlink:href="#z"/><use transform="matrix(0.024444444444444446,0,0,0.024444444444444446,51.92,0)" xlink:href="#X"/><use transform="matrix(0.024444444444444446,0,0,0.024444444444444446,65.51111111111112,0)" xlink:href="#R"/><use transform="matrix(0.024444444444444446,0,0,0.024444444444444446,76.36444444444446,0)" xlink:href="#Y"/><use transform="matrix(0.024444444444444446,0,0,0.024444444444444446,83.16000000000001,0)" xlink:href="#U"/><use transform="matrix(0.024444444444444446,0,0,0.024444444444444446,89.95555555555556,0)" xlink:href="#D"/><use transform="matrix(0.024444444444444446,0,0,0.024444444444444446,100.80888888888889,0)" xlink:href="#A"/></g><path fill="#fff" d="M624-497c0 100-108 181-228 181H227v238c0 36 2 47 79 47h24V0C237-4 128-4 35 0v-31h24c77 0 79-11 79-47v-527c0-36-2-47-79-47H35v-31h353c137 0 236 88 236 186zm-103 0c0-49 0-155-159-155-47 0-154-23-138 40v270h138c159 0 159-108 159-155" id="Z"/><path fill="#fff" d="M287-420c8-5 30-32 37-28 11 0 11 7 11 24v101c0 19 0 24-13 24 0 0-11 0-12-9-2-31-7-121-117-121-86 0-112 41-112 76 0 58 67 71 123 82 42 8 81 16 114 48 12 12 42 42 42 95 0 72-46 139-161 139-21 0-66-1-110-43C68-9 56 7 44 11c-11 0-11-7-11-24v-132c0-18 0-25 13-25 10 0 11 4 14 17C79-68 115-11 199-11c78 0 113-40 113-91 0-72-82-88-104-92-72-14-100-20-132-46-27-22-43-50-43-85 0-56 38-123 160-123 15 0 56 0 94 28" id="aa"/><g id="k"><use transform="matrix(0.024444444444444446,0,0,0.024444444444444446,0,0)" xlink:href="#Z"/><use transform="matrix(0.024444444444444446,0,0,0.024444444444444446,15.962222222222223,0)" xlink:href="#H"/><use transform="matrix(0.024444444444444446,0,0,0.024444444444444446,26.81555555555556,0)" xlink:href="#H"/><use transform="matrix(0.024444444444444446,0,0,0.024444444444444446,37.66888888888889,0)" xlink:href="#M"/><use transform="matrix(0.024444444444444446,0,0,0.024444444444444446,47.25111111111111,0)" xlink:href="#aa"/></g><path fill="#3a414a" d="M665-233c0 116-98 255-261 255C218 22 56-135 56-342c0-204 161-363 348-363 96 0 147 50 184 86l50-74c13-20 27-17 27 12v237c0 21 0 24-16 24-14 0-14-3-16-17-20-146-109-237-218-237-61 0-256 34-256 333C159-43 355-9 416-9c109 0 216-82 224-225 1-10 1-16 12-16 13 0 13 7 13 17" id="ab"/><g id="l"><use transform="matrix(0.024444444444444446,0,0,0.024444444444444446,0,0)" xlink:href="#ab"/><use transform="matrix(0.024444444444444446,0,0,0.024444444444444446,17.64888888888889,0)" xlink:href="#U"/><use transform="matrix(0.024444444444444446,0,0,0.024444444444444446,24.444444444444446,0)" xlink:href="#Y"/><use transform="matrix(0.024444444444444446,0,0,0.024444444444444446,31.240000000000002,0)" xlink:href="#D"/><use transform="matrix(0.024444444444444446,0,0,0.024444444444444446,42.093333333333334,0)" xlink:href="#X"/><use transform="matrix(0.024444444444444446,0,0,0.024444444444444446,55,0)" xlink:href="#y"/></g><path fill="#3a414a" d="M736 0c-82-2-175-5-258 0v-31c20 0 59 0 59-30 0-12-9-25-15-34L341-363 225-253v175c0 36 2 47 79 47h24V0C235-4 126-4 33 0v-31h24c77 0 79-11 79-47v-527c0-36-2-47-79-47H33v-31c93 4 202 4 295 0v31h-24c-77 0-79 11-79 47v318l313-299c23-21 34-61-28-66v-31c68 4 146 5 212 0v31c-81 1-134 52-142 60L400-419 631-79c30 44 51 48 105 48V0" id="ac"/><g id="m"><use transform="matrix(0.024444444444444446,0,0,0.024444444444444446,0,0)" xlink:href="#x"/><use transform="matrix(0.024444444444444446,0,0,0.024444444444444446,13.591111111111111,0)" xlink:href="#E"/><use transform="matrix(0.024444444444444446,0,0,0.024444444444444446,32.266666666666666,0)" xlink:href="#ac"/></g><g id="n"><use transform="matrix(0.024444444444444446,0,0,0.024444444444444446,0,0)" xlink:href="#x"/><use transform="matrix(0.024444444444444446,0,0,0.024444444444444446,13.591111111111111,0)" xlink:href="#y"/><use transform="matrix(0.024444444444444446,0,0,0.024444444444444446,23.1,0)" xlink:href="#z"/><use transform="matrix(0.024444444444444446,0,0,0.024444444444444446,35.32222222222222,0)" xlink:href="#A"/><use transform="matrix(0.024444444444444446,0,0,0.024444444444444446,44.904444444444444,0)" xlink:href="#B"/><use transform="matrix(0.024444444444444446,0,0,0.024444444444444446,57.12666666666667,0)" xlink:href="#C"/><use transform="matrix(0.024444444444444446,0,0,0.024444444444444446,69.3488888888889,0)" xlink:href="#D"/></g><path fill="#3a414a" d="M879 0c-92-4-195-4-287 0v-31h24c77 0 79-11 79-47-1-191 1-385-1-574L448-19c-4 11-7 19-18 19-10 0-15-9-20-22-81-207-160-416-242-622v539c0 27 0 74 103 74V0C193-3 115-3 37 0v-31c103 0 103-47 103-74v-500c0-36-2-47-79-47H37v-31h169c23 0 26 0 35 22l217 560 219-563c7-18 7-19 33-19h169v31h-24c-77 0-79 11-79 47v527c0 36 2 47 79 47h24V0" id="ad"/><path fill="#3a414a" d="M527 0L380 11v-66c-25 32-70 66-134 66C132 11 34-88 34-215c0-129 105-227 223-227 54 0 97 26 126 62v-216c0-49-8-56-78-56v-31l144-11v607c0 49 8 56 78 56V0zM117-214c0 91 43 203 134 203 43 0 88-22 118-70 11-17 11-19 11-37v-205c0-18 0-20-11-37-31-45-73-60-108-60-106 0-144 115-144 206" id="ae"/><path fill="#3a414a" d="M535 0L391 11v-90c-29 62-73 90-129 90-152 0-152-91-152-169v-150c0-89 0-92-78-92v-31l147-11v332c0 52 4 99 88 99 73 0 121-68 121-155v-178c0-49-8-56-78-56v-31l147-11v355c0 49 8 56 78 56V0" id="af"/><g id="o"><use transform="matrix(0.024444444444444446,0,0,0.024444444444444446,0,0)" xlink:href="#ad"/><use transform="matrix(0.024444444444444446,0,0,0.024444444444444446,22.415555555555557,0)" xlink:href="#z"/><use transform="matrix(0.024444444444444446,0,0,0.024444444444444446,35.32222222222222,0)" xlink:href="#ae"/><use transform="matrix(0.024444444444444446,0,0,0.024444444444444446,48.913333333333334,0)" xlink:href="#af"/><use transform="matrix(0.024444444444444446,0,0,0.024444444444444446,62.504444444444445,0)" xlink:href="#U"/><use transform="matrix(0.024444444444444446,0,0,0.024444444444444446,69.3,0)" xlink:href="#D"/></g><path fill="#3a414a" d="M717 0c-89-2-185-6-275 0v-31c32 1 95 0 80-44l-53-153H222c-15 49-37 93-48 146 0 26 25 51 75 51V0C177-3 104-4 32 0v-31c54-1 94-16 112-67l207-598c5-14 8-20 24-20s18 7 23 20L614-71c6 38 42 41 103 40V0zM458-259L345-584 233-259h225" id="ag"/><path fill="#3a414a" d="M287-420c8-5 30-32 37-28 11 0 11 7 11 24v101c0 19 0 24-13 24 0 0-11 0-12-9-2-31-7-121-117-121-86 0-112 41-112 76 0 58 67 71 123 82 42 8 81 16 114 48 12 12 42 42 42 95 0 72-46 139-161 139-21 0-66-1-110-43C68-9 56 7 44 11c-11 0-11-7-11-24v-132c0-18 0-25 13-25 10 0 11 4 14 17C79-68 115-11 199-11c78 0 113-40 113-91 0-72-82-88-104-92-72-14-100-20-132-46-27-22-43-50-43-85 0-56 38-123 160-123 15 0 56 0 94 28" id="ah"/><path fill="#3a414a" d="M508-400c-16 0-67 1-93 64L239 91c-24 57-65 114-128 114-50 0-92-36-92-81 0-59 85-55 84-1 0 16-8 38-39 42C176 233 213 83 250 0L100-365c-14-35-33-35-81-35v-31c71 5 136 2 206 0v31c-27-4-74 10-50 44L286-87l101-246c16-33 0-67-41-67v-31c54 2 108 5 162 0v31" id="ai"/><g id="p"><use transform="matrix(0.024444444444444446,0,0,0.024444444444444446,0,0)" xlink:href="#ag"/><use transform="matrix(0.024444444444444446,0,0,0.024444444444444446,18.333333333333336,0)" xlink:href="#ah"/><use transform="matrix(0.024444444444444446,0,0,0.024444444444444446,27.964444444444446,0)" xlink:href="#ai"/><use transform="matrix(0.024444444444444446,0,0,0.024444444444444446,40.87111111111111,0)" xlink:href="#X"/><use transform="matrix(0.024444444444444446,0,0,0.024444444444444446,54.46222222222222,0)" xlink:href="#R"/></g><path fill="#3a414a" d="M521-216C521-87 417 11 298 11c-76 0-118-54-123-70v177c0 45 11 45 78 45v31c-75-3-150-3-225 0v-31c67 0 78 0 78-45v-468c0-44-7-50-78-50v-31l144-11v66c20-22 62-66 140-66 112 0 209 99 209 226zm-83 0c0-113-61-201-134-201-51 0-100 29-129 80v223c0 20 0 21 14 42 94 131 249 35 249-144" id="aj"/><g id="q"><use transform="matrix(0.024444444444444446,0,0,0.024444444444444446,0,0)" xlink:href="#W"/><use transform="matrix(0.024444444444444446,0,0,0.024444444444444446,17.991111111111113,0)" xlink:href="#D"/><use transform="matrix(0.024444444444444446,0,0,0.024444444444444446,28.844444444444445,0)" xlink:href="#ah"/><use transform="matrix(0.024444444444444446,0,0,0.024444444444444446,38.47555555555556,0)" xlink:href="#aj"/><use transform="matrix(0.024444444444444446,0,0,0.024444444444444446,52.751111111111115,0)" xlink:href="#z"/><use transform="matrix(0.024444444444444446,0,0,0.024444444444444446,64.97333333333334,0)" xlink:href="#X"/><use transform="matrix(0.024444444444444446,0,0,0.024444444444444446,78.56444444444446,0)" xlink:href="#ah"/><use transform="matrix(0.024444444444444446,0,0,0.024444444444444446,88.19555555555557,0)" xlink:href="#D"/></g><path fill="#3a414a" d="M508-400c-66 1-83 44-92 67L285-8c-4 10-8 19-21 19s-15-5-21-19L99-363c-13-31-17-37-80-37v-31c71 5 136 2 206 0v31c-25-3-76 8-51 43L286-78l102-255c14-33 6-63-42-67v-31c54 2 108 5 162 0v31" id="ak"/><g id="r"><use transform="matrix(0.024444444444444446,0,0,0.024444444444444446,0,0)" xlink:href="#x"/><use transform="matrix(0.024444444444444446,0,0,0.024444444444444446,13.591111111111111,0)" xlink:href="#D"/><use transform="matrix(0.024444444444444446,0,0,0.024444444444444446,24.444444444444443,0)" xlink:href="#A"/><use transform="matrix(0.024444444444444446,0,0,0.024444444444444446,34.026666666666664,0)" xlink:href="#ak"/><use transform="matrix(0.024444444444444446,0,0,0.024444444444444446,46.248888888888885,0)" xlink:href="#D"/><use transform="matrix(0.024444444444444446,0,0,0.024444444444444446,57.10222222222222,0)" xlink:href="#A"/></g><path fill="#fff" d="M651-183C651-89 561 0 428 0H36v-31h24c77 0 79-11 79-47v-527c0-36-2-47-79-47H36v-31h366c130 0 222 82 222 169 0 74-69 138-166 157 111 12 193 87 193 174zM527-514c0-53-35-138-132-138H271c-47 0-49 7-49 40v246h145c111 0 160-84 160-148zm24 330c0-67-42-160-141-160H222v273c0 33 2 40 49 40h125c103 0 155-82 155-153" id="al"/><path fill="#fff" d="M247 0C177-4 104-3 33 0v-31c67 0 78 0 78-45v-269c0-49-9-55-74-55v-31l140-11v367c0 39 4 44 70 44V0zM139-657c67 0 72 105-1 106-67 0-72-105 1-106" id="am"/><g id="s"><use transform="matrix(0.024444444444444446,0,0,0.024444444444444446,0,0)" xlink:href="#al"/><use transform="matrix(0.024444444444444446,0,0,0.024444444444444446,17.30666666666667,0)" xlink:href="#am"/><use transform="matrix(0.024444444444444446,0,0,0.024444444444444446,24.102222222222224,0)" xlink:href="#K"/><use transform="matrix(0.024444444444444446,0,0,0.024444444444444446,33.611111111111114,0)" xlink:href="#J"/><use transform="matrix(0.024444444444444446,0,0,0.024444444444444446,44.464444444444446,0)" xlink:href="#L"/><use transform="matrix(0.024444444444444446,0,0,0.024444444444444446,56.68666666666667,0)" xlink:href="#am"/><use transform="matrix(0.024444444444444446,0,0,0.024444444444444446,63.48222222222221,0)" xlink:href="#O"/></g><path fill="#333" d="M732-88c0 28-17 110-95 110-30 0-85-5-126-42s-41-78-41-143c0-67 2-100-38-134-69-59-113-26-208-34v253c0 36 2 47 79 47h24V0C235-4 127-4 35 0v-31h24c77 0 79-11 79-47v-527c0-36-2-47-79-47H35v-31h314c147 0 261 84 261 180 0 78-78 139-175 163 55 19 111 50 122 116l13 80C584-51 592 0 641 0c25 0 60-18 66-89 1-7 1-16 12-16 13 0 13 11 13 17zM305-652c-45 0-81-10-81 40v259h111c148 0 172-81 172-150 0-145-112-149-202-149" id="an"/><path fill="#333" d="M624-497c0 100-108 181-228 181H227v238c0 36 2 47 79 47h24V0C237-4 128-4 35 0v-31h24c77 0 79-11 79-47v-527c0-36-2-47-79-47H35v-31h353c137 0 236 88 236 186zm-103 0c0-49 0-155-159-155-47 0-154-23-138 40v270h138c159 0 159-108 159-155" id="ao"/><path fill="#333" d="M665-233c0 116-98 255-261 255C218 22 56-135 56-342c0-204 161-363 348-363 96 0 147 50 184 86l50-74c13-20 27-17 27 12v237c0 21 0 24-16 24-14 0-14-3-16-17-20-146-109-237-218-237-61 0-256 34-256 333C159-43 355-9 416-9c109 0 216-82 224-225 1-10 1-16 12-16 13 0 13 7 13 17" id="ap"/><g id="t"><use transform="matrix(0.024444444444444446,0,0,0.024444444444444446,0,0)" xlink:href="#an"/><use transform="matrix(0.024444444444444446,0,0,0.024444444444444446,17.991111111111113,0)" xlink:href="#ao"/><use transform="matrix(0.024444444444444446,0,0,0.024444444444444446,34.637777777777785,0)" xlink:href="#ap"/></g><path fill="#333" d="M560-267L543 0H82C50 5 51-20 63-37l389-615H295c-164 0-194 81-201 194H69l11-225h448c31-5 31 17 19 35L159-34h164c185 0 204-94 212-233h25" id="aq"/><path fill="#333" d="M415-119c0 19-45 130-167 130C133 11 28-86 28-220c0-125 92-228 208-228 125 0 179 97 179 196 0 21-3 21-25 21H111c0 36 0 102 30 150 23 37 63 67 113 67 10 0 100 0 135-103 0-16 26-21 26-2zm-66-133c0-39-10-174-113-174-34 0-118 25-124 174h237" id="ar"/><path fill="#333" d="M364-381c0 61-82 56-86 1-2-32 40-40 12-40-76 0-118 89-118 188v154c0 36 2 47 76 47h21V0C189-6 108-2 28 0v-31c67 0 78 0 78-45v-268c0-49-8-56-78-56v-31l139-11v110c14-43 50-110 123-110 43 0 74 29 74 61" id="as"/><path fill="#333" d="M471-214C471-87 370 11 249 11 132 11 28-85 28-214c0-125 97-234 222-234 121 0 221 106 221 234zm-83-8c0-38 0-96-26-139-54-86-173-89-227 2-26 43-24 98-24 137 0 36 0 97 25 141 52 95 186 84 230-7 21-44 22-98 22-134" id="at"/><path fill="#333" d="M879 0c-92-4-195-4-287 0v-31h24c77 0 79-11 79-47-1-191 1-385-1-574L448-19c-4 11-7 19-18 19-10 0-15-9-20-22-81-207-160-416-242-622v539c0 27 0 74 103 74V0C193-3 115-3 37 0v-31c103 0 103-47 103-74v-500c0-36-2-47-79-47H37v-31h169c23 0 26 0 35 22l217 560 219-563c7-18 7-19 33-19h169v31h-24c-77 0-79 11-79 47v527c0 36 2 47 79 47h24V0" id="au"/><path fill="#333" d="M727 10c0 51-19 184-121 184-93 0-107-92-122-187C251 74 56-106 56-339c0-206 153-366 332-366 182 0 333 162 333 366 0 151-85 279-203 332 24 64 49 98 96 98 43 0 85-30 91-84 1-10 2-18 11-18 11 0 11 11 11 21zM621-339c0-255-136-341-233-341-92 0-232 81-232 341 0 230 112 303 166 323-32-45-4-132 68-132 59 0 91 50 113 106 106-78 118-219 118-297zM477-26c-11-58-33-100-87-100-39 0-60 33-60 62 0 15 8 61 59 61 22 0 54-4 88-23" id="av"/><g id="u"><use transform="matrix(0.024444444444444446,0,0,0.024444444444444446,0,0)" xlink:href="#aq"/><use transform="matrix(0.024444444444444446,0,0,0.024444444444444446,14.935555555555556,0)" xlink:href="#ar"/><use transform="matrix(0.024444444444444446,0,0,0.024444444444444446,25.78888888888889,0)" xlink:href="#as"/><use transform="matrix(0.024444444444444446,0,0,0.024444444444444446,35.37111111111111,0)" xlink:href="#at"/><use transform="matrix(0.024444444444444446,0,0,0.024444444444444446,47.593333333333334,0)" xlink:href="#au"/><use transform="matrix(0.024444444444444446,0,0,0.024444444444444446,70.00888888888889,0)" xlink:href="#av"/></g><path fill="#3a414a" d="M659-628c3-6-57-13-71-11v-47c94 4 144 5 248 0v47c-39 0-84-4-111 18L485-421 755-67c12 16 15 20 68 20h29V0C751-5 631-4 530 0v-47c35 0 55 0 73-8-68-98-143-189-214-285l-100 83v210h108V0C286-4 150-4 39 0v-47h108v-592H39v-47c111 4 247 4 358 0v47H289v320" id="aw"/><path fill="#3a414a" d="M542-218C542-95 455 6 287 6 120 6 32-94 32-218c0-133 91-235 255-235 163 0 255 101 255 235zm-128-11c0-48 0-103-21-137-43-72-182-66-216 7-17 34-17 85-17 130 0 87 0 195 127 195s127-108 127-195" id="ax"/><path fill="#3a414a" d="M615 0c-84-3-168-3-252 0v-47h69v-270c0-76-21-97-55-97-63 0-149 49-149 158v209h69V0C213-3 129-3 45 0v-47h69v-309c0-39-7-39-69-39v-47l172-8v108c26-51 79-108 175-108 100 0 154 39 154 144v259h69V0" id="ay"/><path fill="#3a414a" d="M382-177C393-73 356 6 261 6c-71 0-158-22-158-129v-274H21v-36c99-3 148-102 149-202h47v191h146v47H217v276c0 23 0 87 58 87 28 0 60-24 60-92v-51h47" id="az"/><path fill="#3a414a" d="M442-368c0 81-120 82-122 0 0-29 19-46 19-46-100 0-125 122-125 192v175h87V0C215-6 123-2 37 0v-47h69v-309c0-39-7-39-69-39v-47l166-8v113c23-63 63-113 133-113 52 0 106 29 106 82" id="aA"/><g id="v"><use transform="matrix(0.03333333333333333,0,0,0.03333333333333333,0,0)" xlink:href="#aw"/><use transform="matrix(0.03333333333333333,0,0,0.03333333333333333,28.966666666666665,0)" xlink:href="#ax"/><use transform="matrix(0.03333333333333333,0,0,0.03333333333333333,48.13333333333333,0)" xlink:href="#ay"/><use transform="matrix(0.03333333333333333,0,0,0.03333333333333333,68.36666666666666,0)" xlink:href="#az"/><use transform="matrix(0.03333333333333333,0,0,0.03333333333333333,83.26666666666667,0)" xlink:href="#ax"/><use transform="matrix(0.03333333333333333,0,0,0.03333333333333333,102.43333333333334,0)" xlink:href="#aA"/></g><path fill="#3a414a" d="M403 0C288-4 148-4 33 0v-47h114v-592H33v-47c115 4 255 4 370 0v47H289v592h114V0" id="aB"/><path fill="#3a414a" d="M601 0L418 6v-49C387-18 339 6 278 6 130 6 38-89 38-221c0-190 225-296 386-184v-195c0-39-7-39-69-39v-47l177-8v608c0 39 7 39 69 39V0zM418-103v-250c-41-62-166-95-226-9-26 39-26 93-26 141 0 70 0 191 122 191 76 0 117-55 130-73" id="aC"/><path fill="#3a414a" d="M494-117c0 17-43 123-201 123C132 6 32-91 32-225c0-125 87-228 247-228 69 0 122 18 159 54 50 50 56 123 56 154 0 27-10 27-32 27H160c0 51 1 184 142 184 65 0 122-32 143-80 6-16 8-21 25-21 5 0 24 0 24 18zm-95-134c-1-35-3-166-120-166-29 0-69 12-95 52-21 33-22 75-24 114h239" id="aD"/><path fill="#3a414a" d="M585 0c-77-3-153-3-230 0v-47h39L284-177c-34 40-71 77-104 119 0 6 19 11 37 11V0C152-3 87-4 22 0v-47c48 0 84 0 101-19l131-147L98-397H27v-47c77 3 154 3 231 0v47h-40l98 115c30-36 64-68 92-106-12-7-24-9-38-9v-47c65 3 130 4 195 0v47c-83 0-89 7-102 21L346-246 514-47h71V0" id="aE"/><g id="w"><use transform="matrix(0.03333333333333333,0,0,0.03333333333333333,0,0)" xlink:href="#aB"/><use transform="matrix(0.03333333333333333,0,0,0.03333333333333333,14.533333333333333,0)" xlink:href="#ay"/><use transform="matrix(0.03333333333333333,0,0,0.03333333333333333,35.833333333333336,0)" xlink:href="#aC"/><use transform="matrix(0.03333333333333333,0,0,0.03333333333333333,57.13333333333334,0)" xlink:href="#aD"/><use transform="matrix(0.03333333333333333,0,0,0.03333333333333333,74.7,0)" xlink:href="#aE"/><use transform="matrix(0.03333333333333333,0,0,0.03333333333333333,94.93333333333334,0)" xlink:href="#aD"/><use transform="matrix(0.03333333333333333,0,0,0.03333333333333333,112.5,0)" xlink:href="#aA"/></g></defs></g></svg>