<svg xmlns="http://www.w3.org/2000/svg" xmlns:xlink="http://www.w3.org/1999/xlink" xmlns:lucid="lucid" width="1292.09" height="576.33"><g transform="translate(510.5866666666667 -258.5)" lucid:page-tab-id="i9pYhGL7nJbm"><path d="M40 821.33c0 6.63-26.86 12-60 12s-60-5.37-60-12v-96c0-6.62 26.86-12 60-12s60 5.38 60 12z" stroke="#3a414a" stroke-width="3" fill="#37352f" fill-opacity=".65"/><path d="M40 725.33c0 6.63-26.86 12-60 12s-60-5.37-60-12" stroke="#3a414a" stroke-width="3" fill="none"/><use xlink:href="#a" transform="matrix(1,0,0,1,-75,742.3333333333337) translate(14.862222222222222 49.26472222222222)"/><path d="M540 821.33c0 6.63-26.86 12-60 12s-60-5.37-60-12v-96c0-6.62 26.86-12 60-12s60 5.38 60 12z" stroke="#3a414a" stroke-width="3" fill="#37352f" fill-opacity=".65"/><path d="M540 725.33c0 6.63-26.86 12-60 12s-60-5.37-60-12" stroke="#3a414a" stroke-width="3" fill="none"/><use xlink:href="#a" transform="matrix(1,0,0,1,425,742.3333333333337) translate(14.862222222222222 49.26472222222222)"/><path d="M-100 499.33a6 6 0 0 1 6-6H54a6 6 0 0 1 6 6v108a6 6 0 0 1-6 6H-94a6 6 0 0 1-6-6z" stroke="#3a414a" stroke-width="3" fill="#a3e784" fill-opacity=".5"/><use xlink:href="#b" transform="matrix(1,0,0,1,-88,505.3333333333335) translate(23.657777777777774 43.70222222222222)"/><use xlink:href="#c" transform="matrix(1,0,0,1,-88,505.3333333333335) translate(38.58111111111111 68.14666666666666)"/><path d="M400 499.33a6 6 0 0 1 6-6h148a6 6 0 0 1 6 6v108a6 6 0 0 1-6 6H406a6 6 0 0 1-6-6z" stroke="#3a414a" stroke-width="3" fill="#a3e784" fill-opacity=".5"/><use xlink:href="#b" transform="matrix(1,0,0,1,412,505.3333333333335) translate(23.657777777777774 43.70222222222222)"/><use xlink:href="#c" transform="matrix(1,0,0,1,412,505.3333333333335) translate(38.58111111111111 68.14666666666666)"/><path d="M-160 606.67c0 7.36-35.82 13.33-80 13.33s-80-5.97-80-13.33V500c0-7.36 35.82-13.33 80-13.33s80 5.97 80 13.33z" stroke="#3a414a" stroke-width="3" fill="#a3e784" fill-opacity=".5"/><path d="M-160 500c0 7.36-35.82 13.33-80 13.33s-80-5.97-80-13.33" stroke="#3a414a" stroke-width="3" fill="none"/><use xlink:href="#d" transform="matrix(1,0,0,1,-315,518.3333333333335) translate(10.820000000000007 43.40125)"/><use xlink:href="#e" transform="matrix(1,0,0,1,-315,518.3333333333335) translate(91.03999999999999 43.40125)"/><use xlink:href="#f" transform="matrix(1,0,0,1,-315,518.3333333333335) translate(48.81 63.40125)"/><path d="M150 719.33a6 6 0 0 1 6-6h148a6 6 0 0 1 6 6v108a6 6 0 0 1-6 6H156a6 6 0 0 1-6-6z" stroke="#3a414a" stroke-width="3" fill="#003d87"/><use xlink:href="#g" transform="matrix(1,0,0,1,162,725.3333333333337) translate(25.16111111111112 55.70222222222222)"/><path d="M-100 272.67a6 6 0 0 1 6-6H54a6 6 0 0 1 6 6v108a6 6 0 0 1-6 6H-94a6 6 0 0 1-6-6z" stroke="#3a414a" stroke-width="3" fill="#fff7a1" fill-opacity=".25"/><use xlink:href="#h" transform="matrix(1,0,0,1,-88,278.6666666666667) translate(24.64777777777779 43.70222222222222)"/><use xlink:href="#i" transform="matrix(1,0,0,1,-88,278.6666666666667) translate(38.58111111111111 68.14666666666666)"/><path d="M-160 380c0 7.36-35.82 13.33-80 13.33s-80-5.97-80-13.33V273.33c0-7.36 35.82-13.33 80-13.33s80 5.97 80 13.33z" stroke="#3a414a" stroke-width="3" fill="#fff7a1" fill-opacity=".25"/><path d="M-160 273.33c0 7.37-35.82 13.34-80 13.34s-80-5.97-80-13.34" stroke="#3a414a" stroke-width="3" fill="none"/><use xlink:href="#j" transform="matrix(1,0,0,1,-315,291.6666666666667) translate(11.63000000000001 43.40125)"/><use xlink:href="#e" transform="matrix(1,0,0,1,-315,291.6666666666667) translate(90.23 43.40125)"/><use xlink:href="#f" transform="matrix(1,0,0,1,-315,291.6666666666667) translate(48.81 63.40125)"/><path d="M400 272.67a6 6 0 0 1 6-6h148a6 6 0 0 1 6 6v108a6 6 0 0 1-6 6H406a6 6 0 0 1-6-6z" stroke="#3a414a" stroke-width="3" fill="#fff7a1" fill-opacity=".25"/><use xlink:href="#h" transform="matrix(1,0,0,1,412,278.6666666666667) translate(24.64777777777779 43.70222222222222)"/><use xlink:href="#i" transform="matrix(1,0,0,1,412,278.6666666666667) translate(38.58111111111111 68.14666666666666)"/><path d="M481.48 490.33h-2.96V450h2.96zm0-60.33h-2.96v-21.2h2.96z" stroke="#3a414a" stroke-width=".05" fill="#3a414a"/><path d="M481.48 491.83h-2.96v-1.53h2.96z" fill="#3a414a"/><path stroke="#3a414a" stroke-width=".05" fill="#3a414a"/><path d="M484.63 407.3h-9.26L480 393z" fill="#3a414a"/><path d="M486.67 408.76h-13.34l6.67-20.5zm-9.28-2.95h5.2l-2.6-8z" stroke="#3a414a" stroke-width=".05" fill="#3a414a"/><use xlink:href="#k" transform="matrix(1,0,0,1,442.26,430.0000000000001) translate(0 16.12)"/><path d="M481.48 710.33h-2.96v-37h2.96zm0-57h-2.96v-17.88h2.96z" stroke="#3a414a" stroke-width=".05" fill="#3a414a"/><path d="M481.48 711.9l-1.48-.07-1.48.05v-1.6h2.96z" fill="#3a414a"/><path stroke="#3a414a" stroke-width=".05" fill="#3a414a"/><path d="M484.63 633.95h-9.26L480 619.7z" fill="#3a414a"/><path d="M486.67 635.43h-13.34L480 614.9zm-9.28-2.95h5.2l-2.6-8.02z" stroke="#3a414a" stroke-width=".05" fill="#3a414a"/><use xlink:href="#l" transform="matrix(1,0,0,1,442.26,653.3328696779823) translate(0 16.12)"/><path d="M-18.52 710.33h-2.96v-37h2.96zm0-57h-2.96v-17.88h2.96z" stroke="#3a414a" stroke-width=".05" fill="#3a414a"/><path d="M-18.52 711.9l-1.48-.07-1.48.05v-1.6h2.96z" fill="#3a414a"/><path stroke="#3a414a" stroke-width=".05" fill="#3a414a"/><path d="M-15.37 633.95h-9.27L-20 619.7z" fill="#3a414a"/><path d="M-13.34 635.43h-13.32L-20 614.9zm-9.27-2.95h5.2l-2.6-8.02z" stroke="#3a414a" stroke-width=".05" fill="#3a414a"/><use xlink:href="#l" transform="matrix(1,0,0,1,-57.739999999999995,653.3328696779823) translate(0 16.12)"/><path d="M-103 553.33h-2.9m-11.63 0h-5.82m-11.62 0h-2.9" stroke="#3a414a" stroke-width="3" fill="none"/><path d="M-101.5 554.8h-1.54v-2.94h1.54z" stroke="#3a414a" stroke-width=".05" fill="#3a414a"/><path d="M-153.65 553.33l14.27-4.63v9.27z" stroke="#3a414a" stroke-width="3" fill="#3a414a"/><path d="M563 553.33h2.9m11.63 0h5.82m11.62 0h2.9" stroke="#3a414a" stroke-width="3" fill="none"/><path d="M563.04 554.8h-1.54v-2.94h1.54z" stroke="#3a414a" stroke-width=".05" fill="#3a414a"/><path d="M613.65 553.33l-14.27 4.64v-9.27z" stroke="#3a414a" stroke-width="3" fill="#3a414a"/><path d="M-18.52 490.33h-2.96V450h2.96zm0-60.33h-2.96v-21.2h2.96z" stroke="#3a414a" stroke-width=".05" fill="#3a414a"/><path d="M-18.52 491.83h-2.96v-1.53h2.96z" fill="#3a414a"/><path stroke="#3a414a" stroke-width=".05" fill="#3a414a"/><path d="M-15.37 407.3h-9.27L-20 393z" fill="#3a414a"/><path d="M-13.34 408.76h-13.32l6.66-20.5zm-9.27-2.95h5.2l-2.6-8z" stroke="#3a414a" stroke-width=".05" fill="#3a414a"/><use xlink:href="#l" transform="matrix(1,0,0,1,-57.739999999999995,430.0000000000001) translate(0 16.12)"/><path d="M-103 326.67h-2.9m-11.63 0h-5.82m-11.62 0h-2.9" stroke="#3a414a" stroke-width="3" fill="none"/><path d="M-101.5 328.14h-1.54v-2.95h1.54z" stroke="#3a414a" stroke-width=".05" fill="#3a414a"/><path d="M-153.65 326.67l14.27-4.64v9.27z" stroke="#3a414a" stroke-width="3" fill="#3a414a"/><path d="M563 326.67h2.9m11.63 0h5.82m11.62 0h2.9" stroke="#3a414a" stroke-width="3" fill="none"/><path d="M563.04 328.14h-1.54v-2.95h1.54z" stroke="#3a414a" stroke-width=".05" fill="#3a414a"/><path d="M613.65 326.67l-14.27 4.63v-9.27z" stroke="#3a414a" stroke-width="3" fill="#3a414a"/><path d="M63.5 553.33h119.84a6 6 0 0 1 6 6V689.1" stroke="#3a414a" stroke-width="4" fill="none"/><path d="M63.55 555.3H61.5v-3.94h2.05z" stroke="#3a414a" stroke-width=".05" fill="#3a414a"/><path d="M189.34 705.36l-4.64-14.26h9.27z" stroke="#3a414a" stroke-width="4" fill="#3a414a"/><path d="M396.5 553.33H276.66a6 6 0 0 0-6 6V689.1" stroke="#3a414a" stroke-width="4" fill="none"/><path d="M398.5 555.3h-2.05v-3.94h2.05z" stroke="#3a414a" stroke-width=".05" fill="#3a414a"/><path d="M270.66 705.36l-4.63-14.26h9.27z" stroke="#3a414a" stroke-width="4" fill="#3a414a"/><path d="M313.5 773.33h82.26" stroke="#3a414a" stroke-width="4" fill="none"/><path d="M313.55 775.3h-2.05v-3.94h2.05z" stroke="#3a414a" stroke-width=".05" fill="#3a414a"/><path d="M412.03 773.33l-14.27 4.64v-9.27z" stroke="#3a414a" stroke-width="4" fill="#3a414a"/><path d="M146.5 773.33H64.24" stroke="#3a414a" stroke-width="4" fill="none"/><path d="M148.5 775.3h-2.05v-3.94h2.05z" stroke="#3a414a" stroke-width=".05" fill="#3a414a"/><path d="M47.97 773.33l14.27-4.63v9.27z" stroke="#3a414a" stroke-width="4" fill="#3a414a"/><path d="M191.3 709.83h-3.94v-244.5h3.95zm-6.7-385.05l1.2.3 1.16.48 1.07.65.95.82.82.96.65 1.06.48 1.16.3 1.22.08 1.17v112.73h-3.94v-112.6l-.05-.7-.14-.6-.24-.6-.33-.53-.42-.48-.48-.4-.54-.33-.58-.26-.6-.14-.72-.06H63.5v-3.95h119.92z" stroke="#3a414a" stroke-width=".05" fill="#3a414a"/><path d="M63.55 328.64H61.5v-3.95h2.05z" fill="#3a414a"/><path stroke="#3a414a" stroke-width=".05" fill="#3a414a"/><path d="M191.3 711.83h-3.94v-2.05h3.95z" fill="#3a414a"/><path stroke="#3a414a" stroke-width=".05" fill="#3a414a"/><use xlink:href="#m" transform="matrix(1,0,0,1,125.99886990253185,445.3305787856027) translate(0.005000000000002558 16.12)"/><path d="M396.5 326.67H276.66a6 6 0 0 0-6 6V689.1" stroke="#3a414a" stroke-width="4" fill="none"/><path d="M398.5 328.64h-2.05v-3.95h2.05z" stroke="#3a414a" stroke-width=".05" fill="#3a414a"/><path d="M270.66 705.36l-4.63-14.26h9.27z" stroke="#3a414a" stroke-width="4" fill="#3a414a"/><path d="M-460 279.33a6 6 0 0 1 6-6h88a6 6 0 0 1 6 6V614a6 6 0 0 1-6 6h-88a6 6 0 0 1-6-6z" fill="none"/><path d="M-360 620c-5.52 0-10-4.48-10-10V456.67c0-5.53-4.48-10-10-10 5.52 0 10-4.48 10-10V283.33c0-5.52 4.48-10 10-10" stroke="#3a414a" stroke-width="3" fill="none"/><use xlink:href="#n" transform="matrix(1,0,0,1,-455,278.3333333333331) translate(-11.680000000000007 176.66)"/><path d="M-460 719.33a6 6 0 0 1 6-6h88a6 6 0 0 1 6 6v108a6 6 0 0 1-6 6h-88a6 6 0 0 1-6-6z" fill="none"/><path d="M-360 833.33c-5.52 0-10-4.47-10-10v-40c0-5.52-4.48-10-10-10 5.52 0 10-4.47 10-10v-40c0-5.52 4.48-10 10-10" stroke="#3a414a" stroke-width="3" fill="none"/><g><use xlink:href="#o" transform="matrix(1,0,0,1,-455,718.3333333333337) translate(-54.58666666666667 63.16)"/></g><path d="M780 606.67c0 7.36-35.82 13.33-80 13.33s-80-5.97-80-13.33V500c0-7.36 35.82-13.33 80-13.33s80 5.97 80 13.33z" stroke="#3a414a" stroke-width="3" fill="#a3e784" fill-opacity=".5"/><path d="M780 500c0 7.36-35.82 13.33-80 13.33s-80-5.97-80-13.33" stroke="#3a414a" stroke-width="3" fill="none"/><g><use xlink:href="#d" transform="matrix(1,0,0,1,625,518.3333333333335) translate(10.820000000000007 43.40125)"/><use xlink:href="#e" transform="matrix(1,0,0,1,625,518.3333333333335) translate(91.03999999999999 43.40125)"/><use xlink:href="#f" transform="matrix(1,0,0,1,625,518.3333333333335) translate(48.81 63.40125)"/></g><path d="M780 380c0 7.36-35.82 13.33-80 13.33s-80-5.97-80-13.33V273.33c0-7.36 35.82-13.33 80-13.33s80 5.97 80 13.33z" stroke="#3a414a" stroke-width="3" fill="#fff7a1" fill-opacity=".25"/><path d="M780 273.33c0 7.37-35.82 13.34-80 13.34s-80-5.97-80-13.34" stroke="#3a414a" stroke-width="3" fill="none"/><g><use xlink:href="#j" transform="matrix(1,0,0,1,625,291.6666666666667) translate(11.63000000000001 43.40125)"/><use xlink:href="#e" transform="matrix(1,0,0,1,625,291.6666666666667) translate(90.23 43.40125)"/><use xlink:href="#f" transform="matrix(1,0,0,1,625,291.6666666666667) translate(48.81 63.40125)"/></g><defs><path fill="#fff" d="M753-186C753-88 669 0 503 0H39v-47h108v-592H39v-47h434c161 0 248 80 248 172 0 77-65 137-173 156 119 9 205 76 205 172zM579-514c0-46-18-125-119-125H278v264h156c97 0 145-62 145-139zm27 327c0-11 0-67-33-109-34-43-81-43-101-43H278v292h184c144 0 144-128 144-140" id="p"/><path fill="#fff" d="M293 0C211-3 129-3 47 0v-47h69v-553c0-39-7-39-69-39v-47l177-8v647h69V0" id="q"/><path fill="#fff" d="M542-218C542-95 455 6 287 6 120 6 32-94 32-218c0-133 91-235 255-235 163 0 255 101 255 235zm-128-11c0-48 0-103-21-137-43-72-182-66-216 7-17 34-17 85-17 130 0 87 0 195 127 195s127-108 127-195" id="r"/><path fill="#fff" d="M478-117c0 7-30 123-192 123C132 6 38-89 38-222c0-116 74-231 253-231 58 0 174 6 174 92 0 42-32 63-63 63-46 0-90-67-42-109-13-3-30-6-65-6-129 0-129 130-129 186 0 46 0 193 139 193 51 0 99-19 125-82 0-20 46-22 48-1" id="s"/><path fill="#fff" d="M587 0c-80-4-129-4-226 0v-47c51 2 25-20 6-44L266-217c-20 14-28 20-57 43v127h69V0C198-3 117-3 37 0v-47h69v-553c0-39-7-39-69-39v-47l177-8v457l189-149c-8-8-11-11-34-11v-47c65 1 129 6 193 0v47c-67 0-76 7-90 18L342-278 511-67c8 20 35 21 76 20V0" id="t"/><path fill="#fff" d="M415-140C415 6 261 6 230 6c-20 0-72 0-118-32-12 6-48 36-56 32-18 0-18-9-18-28v-109c0-23 0-29 24-29 14 0 20 0 24 14 13 43 38 116 144 116 22 0 114 0 114-75 0-59-75-72-111-78-77-14-115-20-155-55-20-17-40-44-40-84 0-131 154-131 184-131 40 0 75 6 101 19 39-19 41-19 45-19 18 0 18 9 18 28v80c0 23 0 28-24 28-21 0-22-5-23-20-5-55-43-84-118-84-19 0-112 0-112 62 0 47 65 58 102 65 78 13 111 18 149 48 36 27 55 63 55 106" id="u"/><g id="a"><use transform="matrix(0.024444444444444442,0,0,0.024444444444444442,0,0)" xlink:href="#p"/><use transform="matrix(0.024444444444444442,0,0,0.024444444444444442,19.995555555555555,0)" xlink:href="#q"/><use transform="matrix(0.024444444444444442,0,0,0.024444444444444442,27.79333333333333,0)" xlink:href="#r"/><use transform="matrix(0.024444444444444442,0,0,0.024444444444444442,42.63111111111111,0)" xlink:href="#s"/><use transform="matrix(0.024444444444444442,0,0,0.024444444444444442,54.339999999999996,0)" xlink:href="#t"/><use transform="matrix(0.024444444444444442,0,0,0.024444444444444442,69.17777777777778,0)" xlink:href="#u"/></g><path fill="#3a414a" d="M753-186C753-88 669 0 503 0H39v-47h108v-592H39v-47h434c161 0 248 80 248 172 0 77-65 137-173 156 119 9 205 76 205 172zM579-514c0-46-18-125-119-125H278v264h156c97 0 145-62 145-139zm27 327c0-11 0-67-33-109-34-43-81-43-101-43H278v292h184c144 0 144-128 144-140" id="v"/><path fill="#3a414a" d="M286 0C206-3 127-3 47 0v-47h69v-309c0-39-7-39-66-39v-47l174-8v403h62V0zm-48-607c0 43-35 78-78 78s-78-35-78-78 35-78 78-78 78 35 78 78" id="w"/><path fill="#3a414a" d="M382-177C393-73 356 6 261 6c-71 0-158-22-158-129v-274H21v-36c99-3 148-102 149-202h47v191h146v47H217v276c0 23 0 87 58 87 28 0 60-24 60-92v-51h47" id="x"/><path fill="#3a414a" d="M478-117c0 7-30 123-192 123C132 6 38-89 38-222c0-116 74-231 253-231 58 0 174 6 174 92 0 42-32 63-63 63-46 0-90-67-42-109-13-3-30-6-65-6-129 0-129 130-129 186 0 46 0 193 139 193 51 0 99-19 125-82 0-20 46-22 48-1" id="y"/><path fill="#3a414a" d="M542-218C542-95 455 6 287 6 120 6 32-94 32-218c0-133 91-235 255-235 163 0 255 101 255 235zm-128-11c0-48 0-103-21-137-43-72-182-66-216 7-17 34-17 85-17 130 0 87 0 195 127 195s127-108 127-195" id="z"/><path fill="#3a414a" d="M615 0c-84-3-168-3-252 0v-47h69v-270c0-76-21-97-55-97-63 0-149 49-149 158v209h69V0C213-3 129-3 45 0v-47h69v-309c0-39-7-39-69-39v-47l172-8v108c26-51 79-108 175-108 100 0 154 39 154 144v259h69V0" id="A"/><g id="b"><use transform="matrix(0.024444444444444442,0,0,0.024444444444444442,0,0)" xlink:href="#v"/><use transform="matrix(0.024444444444444442,0,0,0.024444444444444442,19.995555555555555,0)" xlink:href="#w"/><use transform="matrix(0.024444444444444442,0,0,0.024444444444444442,27.79333333333333,0)" xlink:href="#x"/><use transform="matrix(0.024444444444444442,0,0,0.024444444444444442,38.72,0)" xlink:href="#y"/><use transform="matrix(0.024444444444444442,0,0,0.024444444444444442,51.21111111111111,0)" xlink:href="#z"/><use transform="matrix(0.024444444444444442,0,0,0.024444444444444442,65.26666666666667,0)" xlink:href="#w"/><use transform="matrix(0.024444444444444442,0,0,0.024444444444444442,73.06444444444445,0)" xlink:href="#A"/></g><path fill="#3a414a" d="M766-227c0 115-113 238-300 238C217 11 64-138 64-343s153-354 402-354c68 0 135 18 197 68l66-59c14-16 44-11 37 19v215c0 26-1 28-27 28-23 0-24-2-27-21-22-127-117-203-225-203-52 0-140 11-204 77s-66 174-66 230c0 90 12 165 59 222 52 61 136 85 214 85 101 0 222-61 229-195 1-17 10-17 23-17 17 0 24 1 24 21" id="B"/><path fill="#3a414a" d="M442-368c0 81-120 82-122 0 0-29 19-46 19-46-100 0-125 122-125 192v175h87V0C215-6 123-2 37 0v-47h69v-309c0-39-7-39-69-39v-47l166-8v113c23-63 63-113 133-113 52 0 106 29 106 82" id="C"/><path fill="#3a414a" d="M494-117c0 17-43 123-201 123C132 6 32-91 32-225c0-125 87-228 247-228 69 0 122 18 159 54 50 50 56 123 56 154 0 27-10 27-32 27H160c0 51 1 184 142 184 65 0 122-32 143-80 6-16 8-21 25-21 5 0 24 0 24 18zm-95-134c-1-35-3-166-120-166-29 0-69 12-95 52-21 33-22 75-24 114h239" id="D"/><g id="c"><use transform="matrix(0.024444444444444442,0,0,0.024444444444444442,0,0)" xlink:href="#B"/><use transform="matrix(0.024444444444444442,0,0,0.024444444444444442,20.313333333333333,0)" xlink:href="#z"/><use transform="matrix(0.024444444444444442,0,0,0.024444444444444442,34.36888888888889,0)" xlink:href="#C"/><use transform="matrix(0.024444444444444442,0,0,0.024444444444444442,45.955555555555556,0)" xlink:href="#D"/></g><g id="d"><use transform="matrix(0.019999999999999997,0,0,0.019999999999999997,0,0)" xlink:href="#v"/><use transform="matrix(0.019999999999999997,0,0,0.019999999999999997,16.359999999999996,0)" xlink:href="#w"/><use transform="matrix(0.019999999999999997,0,0,0.019999999999999997,22.739999999999995,0)" xlink:href="#x"/><use transform="matrix(0.019999999999999997,0,0,0.019999999999999997,31.67999999999999,0)" xlink:href="#y"/><use transform="matrix(0.019999999999999997,0,0,0.019999999999999997,41.89999999999999,0)" xlink:href="#z"/><use transform="matrix(0.019999999999999997,0,0,0.019999999999999997,53.39999999999999,0)" xlink:href="#w"/><use transform="matrix(0.019999999999999997,0,0,0.019999999999999997,59.779999999999994,0)" xlink:href="#A"/></g><g id="e"><use transform="matrix(0.019999999999999997,0,0,0.019999999999999997,0,0)" xlink:href="#B"/><use transform="matrix(0.019999999999999997,0,0,0.019999999999999997,16.619999999999997,0)" xlink:href="#z"/><use transform="matrix(0.019999999999999997,0,0,0.019999999999999997,28.119999999999997,0)" xlink:href="#C"/><use transform="matrix(0.019999999999999997,0,0,0.019999999999999997,37.599999999999994,0)" xlink:href="#D"/></g><path fill="#3a414a" d="M574-203c0 101-62 214-227 214-41 0-134-6-200-55-22 17-36 47-65 55-18 0-18-9-18-28v-182c0-23 0-29 24-29 22 0 22 5 23 23C119-56 271-36 347-36c104 0 130-69 130-117 0-46-25-72-40-87-22-21-39-24-127-43-109-24-143-31-192-80-21-22-54-68-54-133 0-105 72-201 224-201 48 0 113 9 171 55l45-44c15-20 38-14 38 17v183c0 23 0 28-24 28-21 0-21-2-25-26-23-136-124-170-204-170-100 0-128 62-128 105 0 122 141 109 241 135 90 23 172 100 172 211" id="E"/><path fill="#3a414a" d="M558-24c1 40-48 24-80 24-104 0-104-46-104-77-22 42-69 83-149 83C156 6 32-12 32-108c0-145 254-154 325-157 14-126-58-175-182-145 3 2 22 19 22 49 0 42-32 63-63 63-27 0-62-19-62-63 0-88 122-92 179-92 149 0 220 65 220 154v215c0 23 0 36 61 37 13 0 26 0 26 23zM357-139v-95c-50 3-208 17-208 125 0 44 40 79 91 79 25 0 117-13 117-109" id="F"/><g id="f"><use transform="matrix(0.019999999999999997,0,0,0.019999999999999997,0,0)" xlink:href="#E"/><use transform="matrix(0.019999999999999997,0,0,0.019999999999999997,12.779999999999998,0)" xlink:href="#x"/><use transform="matrix(0.019999999999999997,0,0,0.019999999999999997,21.719999999999995,0)" xlink:href="#F"/><use transform="matrix(0.019999999999999997,0,0,0.019999999999999997,32.9,0)" xlink:href="#x"/><use transform="matrix(0.019999999999999997,0,0,0.019999999999999997,41.839999999999996,0)" xlink:href="#D"/></g><path fill="#fff" d="M201-76c-4 42 67 23 108 29V0C221-4 128-4 40 0v-47c31 0 54 0 79-3 28-4 29-4 29-26v-563H40v-47h222c22 0 33 0 44 25l240 529 240-529c11-25 22-25 44-25h221v47H943v592h108V0C946-4 815-4 710 0v-47h108c-1-197 1-397-1-592L538-24c-7 25-48 37-64-1-87-202-181-402-273-601v550" id="G"/><path fill="#fff" d="M286 0C206-3 127-3 47 0v-47h69v-309c0-39-7-39-66-39v-47l174-8v403h62V0zm-48-607c0 43-35 78-78 78s-78-35-78-78 35-78 78-78 78 35 78 78" id="H"/><path fill="#fff" d="M615 0c-84-3-168-3-252 0v-47h69v-270c0-76-21-97-55-97-63 0-149 49-149 158v209h69V0C213-3 129-3 45 0v-47h69v-309c0-39-7-39-69-39v-47l172-8v108c26-51 79-108 175-108 100 0 154 39 154 144v259h69V0" id="I"/><path fill="#fff" d="M494-117c0 17-43 123-201 123C132 6 32-91 32-225c0-125 87-228 247-228 69 0 122 18 159 54 50 50 56 123 56 154 0 27-10 27-32 27H160c0 51 1 184 142 184 65 0 122-32 143-80 6-16 8-21 25-21 5 0 24 0 24 18zm-95-134c-1-35-3-166-120-166-29 0-69 12-95 52-21 33-22 75-24 114h239" id="J"/><path fill="#fff" d="M442-368c0 81-120 82-122 0 0-29 19-46 19-46-100 0-125 122-125 192v175h87V0C215-6 123-2 37 0v-47h69v-309c0-39-7-39-69-39v-47l166-8v113c23-63 63-113 133-113 52 0 106 29 106 82" id="K"/><g id="g"><use transform="matrix(0.024444444444444442,0,0,0.024444444444444442,0,0)" xlink:href="#G"/><use transform="matrix(0.024444444444444442,0,0,0.024444444444444442,26.69333333333333,0)" xlink:href="#H"/><use transform="matrix(0.024444444444444442,0,0,0.024444444444444442,34.49111111111111,0)" xlink:href="#I"/><use transform="matrix(0.024444444444444442,0,0,0.024444444444444442,50.11111111111111,0)" xlink:href="#J"/><use transform="matrix(0.024444444444444442,0,0,0.024444444444444442,62.993333333333325,0)" xlink:href="#K"/><use transform="matrix(0.024444444444444442,0,0,0.024444444444444442,74.57999999999998,0)" xlink:href="#u"/></g><path fill="#3a414a" d="M659-628c3-6-57-13-71-11v-47c94 4 144 5 248 0v47c-39 0-84-4-111 18L485-421 755-67c12 16 15 20 68 20h29V0C751-5 631-4 530 0v-47c35 0 55 0 73-8-68-98-143-189-214-285l-100 83v210h108V0C286-4 150-4 39 0v-47h108v-592H39v-47c111 4 247 4 358 0v47H289v320" id="L"/><g id="h"><use transform="matrix(0.024444444444444442,0,0,0.024444444444444442,0,0)" xlink:href="#L"/><use transform="matrix(0.024444444444444442,0,0,0.024444444444444442,21.242222222222217,0)" xlink:href="#z"/><use transform="matrix(0.024444444444444442,0,0,0.024444444444444442,35.29777777777777,0)" xlink:href="#A"/><use transform="matrix(0.024444444444444442,0,0,0.024444444444444442,50.13555555555554,0)" xlink:href="#x"/><use transform="matrix(0.024444444444444442,0,0,0.024444444444444442,61.0622222222222,0)" xlink:href="#z"/><use transform="matrix(0.024444444444444442,0,0,0.024444444444444442,75.11777777777776,0)" xlink:href="#C"/></g><g id="i"><use transform="matrix(0.024444444444444442,0,0,0.024444444444444442,0,0)" xlink:href="#B"/><use transform="matrix(0.024444444444444442,0,0,0.024444444444444442,20.313333333333333,0)" xlink:href="#z"/><use transform="matrix(0.024444444444444442,0,0,0.024444444444444442,34.36888888888889,0)" xlink:href="#C"/><use transform="matrix(0.024444444444444442,0,0,0.024444444444444442,45.955555555555556,0)" xlink:href="#D"/></g><g id="j"><use transform="matrix(0.019999999999999997,0,0,0.019999999999999997,0,0)" xlink:href="#L"/><use transform="matrix(0.019999999999999997,0,0,0.019999999999999997,17.379999999999995,0)" xlink:href="#z"/><use transform="matrix(0.019999999999999997,0,0,0.019999999999999997,28.879999999999995,0)" xlink:href="#A"/><use transform="matrix(0.019999999999999997,0,0,0.019999999999999997,41.019999999999996,0)" xlink:href="#x"/><use transform="matrix(0.019999999999999997,0,0,0.019999999999999997,49.959999999999994,0)" xlink:href="#z"/><use transform="matrix(0.019999999999999997,0,0,0.019999999999999997,61.459999999999994,0)" xlink:href="#C"/></g><path d="M721-491c0 117-116 189-255 189H289v255h108V0C286-4 150-4 39 0v-47h108v-592H39v-47h417c166 0 265 85 265 195zm-153 0c0-72 0-148-150-148H283v296h134c151 0 151-77 151-148" id="M"/><path d="M558-24c1 40-48 24-80 24-104 0-104-46-104-77-22 42-69 83-149 83C156 6 32-12 32-108c0-145 254-154 325-157 14-126-58-175-182-145 3 2 22 19 22 49 0 42-32 63-63 63-27 0-62-19-62-63 0-88 122-92 179-92 149 0 220 65 220 154v215c0 23 0 36 61 37 13 0 26 0 26 23zM357-139v-95c-50 3-208 17-208 125 0 44 40 79 91 79 25 0 117-13 117-109" id="N"/><path d="M442-368c0 81-120 82-122 0 0-29 19-46 19-46-100 0-125 122-125 192v175h87V0C215-6 123-2 37 0v-47h69v-309c0-39-7-39-69-39v-47l166-8v113c23-63 63-113 133-113 52 0 106 29 106 82" id="O"/><path d="M415-140C415 6 261 6 230 6c-20 0-72 0-118-32-12 6-48 36-56 32-18 0-18-9-18-28v-109c0-23 0-29 24-29 14 0 20 0 24 14 13 43 38 116 144 116 22 0 114 0 114-75 0-59-75-72-111-78-77-14-115-20-155-55-20-17-40-44-40-84 0-131 154-131 184-131 40 0 75 6 101 19 39-19 41-19 45-19 18 0 18 9 18 28v80c0 23 0 28-24 28-21 0-22-5-23-20-5-55-43-84-118-84-19 0-112 0-112 62 0 47 65 58 102 65 78 13 111 18 149 48 36 27 55 63 55 106" id="P"/><path d="M286 0C206-3 127-3 47 0v-47h69v-309c0-39-7-39-66-39v-47l174-8v403h62V0zm-48-607c0 43-35 78-78 78s-78-35-78-78 35-78 78-78 78 35 78 78" id="Q"/><path d="M615 0c-84-3-168-3-252 0v-47h69v-270c0-76-21-97-55-97-63 0-149 49-149 158v209h69V0C213-3 129-3 45 0v-47h69v-309c0-39-7-39-69-39v-47l172-8v108c26-51 79-108 175-108 100 0 154 39 154 144v259h69V0" id="R"/><path d="M558-397c0 24-17 43-43 43-33 1-52-32-39-63-11 1-32 3-62 19 15 16 40 49 40 96 0 70-55 148-199 148-25 0-76-2-122-26-20 38-12 79 45 96 100 4 229-5 289 29 65 37 75 97 75 127 0 70-78 129-255 129C87 201 32 126 32 75c0-63 73-84 86-87-40-32-44-81-44-96 0-21 6-54 34-89-32-23-52-64-52-105 0-70 55-148 199-148 74 0 116 21 134 33 44-35 91-38 106-38 46 0 63 35 63 58zm-215 95c0-45 0-112-88-112s-88 67-88 112 0 112 88 112 88-67 88-112zM456 75c0-62-113-62-144-62H195c-14 0-77 0-77 60 0 46 49 92 169 92 130 0 169-54 169-90" id="S"/><g id="k"><use transform="matrix(0.02,0,0,0.02,0,0)" xlink:href="#M"/><use transform="matrix(0.02,0,0,0.02,15.08,0)" xlink:href="#N"/><use transform="matrix(0.02,0,0,0.02,26.259999999999994,0)" xlink:href="#O"/><use transform="matrix(0.02,0,0,0.02,35.739999999999995,0)" xlink:href="#P"/><use transform="matrix(0.02,0,0,0.02,44.81999999999999,0)" xlink:href="#Q"/><use transform="matrix(0.02,0,0,0.02,51.19999999999999,0)" xlink:href="#R"/><use transform="matrix(0.02,0,0,0.02,63.980000000000004,0)" xlink:href="#S"/></g><path fill="#333" d="M721-491c0 117-116 189-255 189H289v255h108V0C286-4 150-4 39 0v-47h108v-592H39v-47h417c166 0 265 85 265 195zm-153 0c0-72 0-148-150-148H283v296h134c151 0 151-77 151-148" id="T"/><path fill="#333" d="M558-24c1 40-48 24-80 24-104 0-104-46-104-77-22 42-69 83-149 83C156 6 32-12 32-108c0-145 254-154 325-157 14-126-58-175-182-145 3 2 22 19 22 49 0 42-32 63-63 63-27 0-62-19-62-63 0-88 122-92 179-92 149 0 220 65 220 154v215c0 23 0 36 61 37 13 0 26 0 26 23zM357-139v-95c-50 3-208 17-208 125 0 44 40 79 91 79 25 0 117-13 117-109" id="U"/><path fill="#333" d="M442-368c0 81-120 82-122 0 0-29 19-46 19-46-100 0-125 122-125 192v175h87V0C215-6 123-2 37 0v-47h69v-309c0-39-7-39-69-39v-47l166-8v113c23-63 63-113 133-113 52 0 106 29 106 82" id="V"/><path fill="#333" d="M415-140C415 6 261 6 230 6c-20 0-72 0-118-32-12 6-48 36-56 32-18 0-18-9-18-28v-109c0-23 0-29 24-29 14 0 20 0 24 14 13 43 38 116 144 116 22 0 114 0 114-75 0-59-75-72-111-78-77-14-115-20-155-55-20-17-40-44-40-84 0-131 154-131 184-131 40 0 75 6 101 19 39-19 41-19 45-19 18 0 18 9 18 28v80c0 23 0 28-24 28-21 0-22-5-23-20-5-55-43-84-118-84-19 0-112 0-112 62 0 47 65 58 102 65 78 13 111 18 149 48 36 27 55 63 55 106" id="W"/><path fill="#333" d="M286 0C206-3 127-3 47 0v-47h69v-309c0-39-7-39-66-39v-47l174-8v403h62V0zm-48-607c0 43-35 78-78 78s-78-35-78-78 35-78 78-78 78 35 78 78" id="X"/><path fill="#333" d="M615 0c-84-3-168-3-252 0v-47h69v-270c0-76-21-97-55-97-63 0-149 49-149 158v209h69V0C213-3 129-3 45 0v-47h69v-309c0-39-7-39-69-39v-47l172-8v108c26-51 79-108 175-108 100 0 154 39 154 144v259h69V0" id="Y"/><path fill="#333" d="M558-397c0 24-17 43-43 43-33 1-52-32-39-63-11 1-32 3-62 19 15 16 40 49 40 96 0 70-55 148-199 148-25 0-76-2-122-26-20 38-12 79 45 96 100 4 229-5 289 29 65 37 75 97 75 127 0 70-78 129-255 129C87 201 32 126 32 75c0-63 73-84 86-87-40-32-44-81-44-96 0-21 6-54 34-89-32-23-52-64-52-105 0-70 55-148 199-148 74 0 116 21 134 33 44-35 91-38 106-38 46 0 63 35 63 58zm-215 95c0-45 0-112-88-112s-88 67-88 112 0 112 88 112 88-67 88-112zM456 75c0-62-113-62-144-62H195c-14 0-77 0-77 60 0 46 49 92 169 92 130 0 169-54 169-90" id="Z"/><g id="l"><use transform="matrix(0.02,0,0,0.02,0,0)" xlink:href="#T"/><use transform="matrix(0.02,0,0,0.02,15.08,0)" xlink:href="#U"/><use transform="matrix(0.02,0,0,0.02,26.259999999999994,0)" xlink:href="#V"/><use transform="matrix(0.02,0,0,0.02,35.739999999999995,0)" xlink:href="#W"/><use transform="matrix(0.02,0,0,0.02,44.81999999999999,0)" xlink:href="#X"/><use transform="matrix(0.02,0,0,0.02,51.19999999999999,0)" xlink:href="#Y"/><use transform="matrix(0.02,0,0,0.02,63.980000000000004,0)" xlink:href="#Z"/></g><path fill="#333" d="M757-434h-47c-10-114-20-194-163-194h-76v581h153V0C483-4 317-4 176 0v-47h153v-581h-77c-144 0-154 81-163 194H42l21-241h673" id="aa"/><path fill="#333" d="M478-117c0 7-30 123-192 123C132 6 38-89 38-222c0-116 74-231 253-231 58 0 174 6 174 92 0 42-32 63-63 63-46 0-90-67-42-109-13-3-30-6-65-6-129 0-129 130-129 186 0 46 0 193 139 193 51 0 99-19 125-82 0-20 46-22 48-1" id="ab"/><path fill="#333" d="M382-177C393-73 356 6 261 6c-71 0-158-22-158-129v-274H21v-36c99-3 148-102 149-202h47v191h146v47H217v276c0 23 0 87 58 87 28 0 60-24 60-92v-51h47" id="ac"/><path fill="#333" d="M542-218C542-95 455 6 287 6 120 6 32-94 32-218c0-133 91-235 255-235 163 0 255 101 255 235zm-128-11c0-48 0-103-21-137-43-72-182-66-216 7-17 34-17 85-17 130 0 87 0 195 127 195s127-108 127-195" id="ad"/><g id="m"><use transform="matrix(0.02,0,0,0.02,0,0)" xlink:href="#aa"/><use transform="matrix(0.02,0,0,0.02,14.08,0)" xlink:href="#V"/><use transform="matrix(0.02,0,0,0.02,23.56,0)" xlink:href="#U"/><use transform="matrix(0.02,0,0,0.02,34.74,0)" xlink:href="#Y"/><use transform="matrix(0.02,0,0,0.02,47.52,0)" xlink:href="#W"/><use transform="matrix(0.02,0,0,0.02,56.6,0)" xlink:href="#U"/><use transform="matrix(0.02,0,0,0.02,67.78,0)" xlink:href="#ab"/><use transform="matrix(0.02,0,0,0.02,78,0)" xlink:href="#ac"/><use transform="matrix(0.02,0,0,0.02,86.94,0)" xlink:href="#X"/><use transform="matrix(0.02,0,0,0.02,93.32000000000001,0)" xlink:href="#ad"/><use transform="matrix(0.02,0,0,0.02,104.82000000000001,0)" xlink:href="#Y"/><use transform="matrix(0.02,0,0,0.02,117.60000000000001,0)" xlink:href="#W"/></g><path fill="#3a414a" d="M643-274L612 0H39v-47h108v-592H39v-47c119 5 266 4 385 0v47H289v592h103c179 0 196-158 204-227h47" id="ae"/><path fill="#3a414a" d="M293 0C211-3 129-3 47 0v-47h69v-553c0-39-7-39-69-39v-47l177-8v647h69V0" id="af"/><g id="n"><use transform="matrix(0.02666666666666667,0,0,0.02666666666666667,0,0)" xlink:href="#ae"/><use transform="matrix(0.02666666666666667,0,0,0.02666666666666667,18.453333333333333,0)" xlink:href="#z"/><use transform="matrix(0.02666666666666667,0,0,0.02666666666666667,34.64,0)" xlink:href="#y"/><use transform="matrix(0.02666666666666667,0,0,0.02666666666666667,48.266666666666666,0)" xlink:href="#F"/><use transform="matrix(0.02666666666666667,0,0,0.02666666666666667,63.17333333333334,0)" xlink:href="#af"/></g><path fill="#3a414a" d="M699-610c4-42-67-23-108-29v-47c88 4 181 4 269 0v47c-31 0-54 0-79 3-28 4-29 4-29 26v578c0 23 0 32-27 32-16 0-17-1-27-13L200-599v523c-4 42 67 23 108 29V0C220-4 127-4 39 0v-47c31 0 54 0 79-3 28-4 29-4 29-26v-563H39v-47h229c21 0 22 1 33 13l398 468v-405" id="ag"/><path fill="#3a414a" d="M805-397c-59 0-63 8-68 21L593-23c-7 17-11 27-36 27s-29-10-36-27L415-282 309-23c-7 17-11 27-36 27s-29-10-36-27L84-397H25v-47c77 4 155 3 232 0v47h-56l105 258c27-69 57-135 83-205 0 0 0-3-21-53h-59v-47c50 4 154 2 214 0v47h-56l114 280c36-90 74-177 109-268 0-11-49-12-58-12v-47c57 2 116 5 173 0v47" id="ah"/><path fill="#3a414a" d="M587 0c-80-4-129-4-226 0v-47c51 2 25-20 6-44L266-217c-20 14-28 20-57 43v127h69V0C198-3 117-3 37 0v-47h69v-553c0-39-7-39-69-39v-47l177-8v457l189-149c-8-8-11-11-34-11v-47c65 1 129 6 193 0v47c-67 0-76 7-90 18L342-278 511-67c8 20 35 21 76 20V0" id="ai"/><g id="o"><use transform="matrix(0.02666666666666667,0,0,0.02666666666666667,0,0)" xlink:href="#ag"/><use transform="matrix(0.02666666666666667,0,0,0.02666666666666667,24,0)" xlink:href="#D"/><use transform="matrix(0.02666666666666667,0,0,0.02666666666666667,38.053333333333335,0)" xlink:href="#x"/><use transform="matrix(0.02666666666666667,0,0,0.02666666666666667,49.120000000000005,0)" xlink:href="#ah"/><use transform="matrix(0.02666666666666667,0,0,0.02666666666666667,70.42666666666668,0)" xlink:href="#z"/><use transform="matrix(0.02666666666666667,0,0,0.02666666666666667,85.76,0)" xlink:href="#C"/><use transform="matrix(0.02666666666666667,0,0,0.02666666666666667,98.4,0)" xlink:href="#ai"/></g></defs></g></svg>