<svg viewBox="0 0 1400 400" xmlns="http://www.w3.org/2000/svg">
  <style>
    text { 
      font-family: 'Inter', -apple-system, BlinkMacSystemFont, sans-serif;
      fill: #9ca3af;
    }
    .date { 
      font-size: 13px;
      font-weight: 600;
      fill: #d1d5db;
    }
    .description { 
      font-size: 12px;
      fill: #9ca3af;
    }
  </style>
  
  <!-- Main timeline line -->
  <line x1="50" y1="200" x2="1350" y2="200" stroke="#4b5563" stroke-width="2" />
  
  <!-- Milestone 1: Q4 2024 — Series A -->
  <circle cx="100" cy="200" r="8" fill="#6BA6E8" />
  <line x1="100" y1="200" x2="100" y2="160" stroke="#4b5563" stroke-width="1" opacity="0.5" />
  <text x="100" y="145" text-anchor="middle" class="date">Q4 2024</text>
  <text x="100" y="165" text-anchor="middle" class="description">Series A</text>
  
  <!-- Milestone 2: December 1st — Begin Airdrop -->
  <circle cx="240" cy="200" r="8" fill="#8BD99F" />
  <line x1="240" y1="200" x2="240" y2="240" stroke="#4b5563" stroke-width="1" opacity="0.5" />
  <text x="240" y="260" text-anchor="middle" class="date">December 1st</text>
  <text x="240" y="278" text-anchor="middle" class="description">Begin Airdrop</text>
  
  <!-- Milestone 3: December 15th — Security Audit -->
  <circle cx="380" cy="200" r="8" fill="#C9A8E8" />
  <line x1="380" y1="200" x2="380" y2="160" stroke="#4b5563" stroke-width="1" opacity="0.5" />
  <text x="380" y="145" text-anchor="middle" class="date">December 15th</text>
  <text x="380" y="165" text-anchor="middle" class="description">Security Audit</text>
  
  <!-- Milestone 4: January 2026 — Go-to-Market Partnerships -->
  <circle cx="520" cy="200" r="8" fill="#E89A6B" />
  <line x1="520" y1="200" x2="520" y2="240" stroke="#4b5563" stroke-width="1" opacity="0.5" />
  <text x="520" y="260" text-anchor="middle" class="date">January 2026</text>
  <text x="520" y="278" text-anchor="middle" class="description">Go-to-Market Partnerships</text>
  
  <!-- Milestone 5: Q1 2026 — Token Sale and Mainnet Launch -->
  <circle cx="680" cy="200" r="8" fill="#E8C96B" />
  <line x1="680" y1="200" x2="680" y2="160" stroke="#4b5563" stroke-width="1" opacity="0.5" />
  <text x="680" y="145" text-anchor="middle" class="date">Q1 2026</text>
  <text x="680" y="165" text-anchor="middle" class="description">Token Sale and Mainnet Launch</text>
  
  <!-- Milestone 6: Q2 2026 — Community Developer Grants -->
  <circle cx="840" cy="200" r="8" fill="#6BA6E8" />
  <line x1="840" y1="200" x2="840" y2="240" stroke="#4b5563" stroke-width="1" opacity="0.5" />
  <text x="840" y="260" text-anchor="middle" class="date">Q2 2026</text>
  <text x="840" y="278" text-anchor="middle" class="description">Community Developer Grants</text>
  
  <!-- Milestone 7: Q3 2026 — Sigil Python + JavaScript SDKs -->
  <circle cx="1000" cy="200" r="8" fill="#8BD99F" />
  <line x1="1000" y1="200" x2="1000" y2="160" stroke="#4b5563" stroke-width="1" opacity="0.5" />
  <text x="1000" y="145" text-anchor="middle" class="date">Q3 2026</text>
  <text x="1000" y="165" text-anchor="middle" class="description">Sigil Python + JavaScript SDKs</text>
  
  <!-- Milestone 8: Q4 2026 — MEV Minimization -->
  <circle cx="1160" cy="200" r="8" fill="#E89BB5" />
  <line x1="1160" y1="200" x2="1160" y2="240" stroke="#4b5563" stroke-width="1" opacity="0.5" />
  <text x="1160" y="260" text-anchor="middle" class="date">Q4 2026</text>
  <text x="1160" y="278" text-anchor="middle" class="description">MEV Minimization</text>
  
  <!-- Milestone 9: H1 2027 — Optimistic Runtime Concurrency -->
  <circle cx="1300" cy="200" r="8" fill="#C9A8E8" />
  <line x1="1300" y1="200" x2="1300" y2="160" stroke="#4b5563" stroke-width="1" opacity="0.5" />
  <text x="1300" y="145" text-anchor="middle" class="date">H1 2027</text>
  <text x="1300" y="165" text-anchor="middle" class="description">Optimistic Runtime Concurrency</text>
</svg>